<?xml version="1.0" standalone="no"?>
<!DOCTYPE svg PUBLIC "-//W3C//DTD SVG 20010904//EN"
 "http://www.w3.org/TR/2001/REC-SVG-20010904/DTD/svg10.dtd">
<svg version="1.0" xmlns="http://www.w3.org/2000/svg"
 width="1536.000000pt" height="1061.000000pt" viewBox="0 0 1536.000000 1061.000000"
 preserveAspectRatio="xMidYMid meet">
<metadata>
Created by potrace 1.16, written by Peter Selinger 2001-2019
</metadata>
<g transform="translate(0.000000,1061.000000) scale(0.100000,-0.100000)"
fill="#FFFFFF" stroke="none">
<path d="M13530 10600 c-262 -37 -546 -208 -794 -479 -101 -111 -170 -219
-284 -446 -81 -160 -149 -335 -182 -472 -31 -123 -55 -174 -133 -278 -71 -96
-116 -140 -307 -295 -91 -74 -190 -157 -220 -185 -71 -64 -777 -627 -1035
-825 -110 -84 -316 -248 -459 -364 -373 -305 -400 -326 -408 -326 -14 0 -496
-237 -620 -305 -520 -285 -1046 -650 -1426 -988 -63 -56 -135 -119 -161 -140
-25 -21 -68 -60 -96 -87 -44 -43 -81 -63 -288 -155 -506 -225 -812 -399 -1157
-661 -80 -61 -186 -138 -236 -171 -181 -122 -293 -223 -335 -304 -10 -20 -23
-79 -29 -130 -7 -52 -17 -103 -25 -114 -26 -41 -430 -242 -835 -415 -113 -48
-264 -115 -336 -149 -73 -33 -183 -79 -245 -101 -137 -49 -227 -93 -337 -167
-145 -98 -260 -212 -303 -301 -18 -37 -19 -47 -9 -73 7 -16 22 -35 34 -42 13
-7 94 -14 226 -17 l205 -5 -70 -56 c-174 -140 -709 -495 -1135 -752 -195 -118
-717 -415 -1125 -640 -159 -88 -360 -203 -445 -255 -85 -53 -240 -146 -345
-208 -104 -62 -220 -132 -257 -155 -83 -52 -191 -157 -217 -213 -11 -22 -39
-63 -62 -91 -44 -53 -78 -118 -79 -149 0 -10 16 -34 35 -53 32 -32 39 -35 74
-29 63 10 186 67 523 242 360 187 450 230 598 286 58 22 281 114 495 205 492
209 1119 458 1318 524 306 101 719 219 769 219 15 0 42 6 60 14 80 34 481 150
499 144 6 -2 -56 -44 -138 -93 -320 -192 -498 -318 -509 -359 -3 -13 0 -34 6
-46 12 -22 14 -22 173 -15 299 12 892 89 1317 171 157 31 359 66 450 80 261
39 478 86 1040 224 707 174 974 226 1222 240 86 5 364 10 618 11 l462 2 36
-36 c65 -63 282 -142 499 -182 113 -21 158 -35 248 -76 115 -54 303 -136 418
-183 37 -16 67 -32 67 -37 0 -5 -17 -17 -38 -28 -37 -19 -218 -205 -240 -246
-5 -11 -18 -66 -27 -122 -25 -147 -10 -200 96 -359 55 -82 98 -112 143 -100
35 9 33 32 -9 85 -42 53 -44 80 -10 153 17 37 25 70 25 111 0 117 81 233 187
268 96 31 235 -15 360 -120 54 -45 76 -73 112 -141 41 -77 45 -92 51 -180 4
-53 13 -119 20 -148 l14 -52 -48 -49 c-50 -51 -55 -74 -18 -83 10 -3 37 1 58
9 21 8 66 24 98 36 66 24 93 53 106 113 11 46 12 167 2 277 -4 42 -4 77 -1 77
9 0 59 -59 59 -69 0 -4 -5 -12 -11 -18 -7 -7 -9 -23 -5 -37 5 -19 18 -29 57
-43 39 -14 63 -31 98 -72 25 -30 63 -74 85 -98 l39 -43 -2 -89 c-2 -82 -1 -90
18 -96 12 -3 25 -3 31 0 20 13 40 65 51 137 7 48 19 86 36 110 38 56 30 124
-31 257 -26 57 -54 136 -62 177 -15 79 -40 139 -70 165 -11 9 -44 29 -74 44
-30 15 -68 40 -85 56 -16 15 -69 44 -117 63 -47 19 -119 51 -160 72 -68 34
-191 83 -398 155 -127 45 -387 176 -406 204 -22 33 -11 45 41 45 24 0 108 20
187 45 78 25 170 50 203 55 80 13 225 13 263 -1 28 -10 31 -14 25 -37 -14 -48
-7 -87 26 -157 66 -143 96 -163 266 -176 124 -10 163 -2 195 38 36 46 28 53
-64 53 -83 0 -84 0 -115 35 -51 59 -64 92 -58 152 7 66 11 73 48 73 16 0 64 7
105 16 71 14 77 14 95 -2 11 -10 31 -56 45 -103 39 -135 51 -153 109 -173 27
-9 54 -23 59 -30 6 -10 -1 -43 -19 -97 -30 -91 -25 -111 24 -111 61 0 152 143
152 237 0 56 -19 114 -66 201 -52 94 -54 92 78 92 l113 0 41 -43 c22 -23 46
-53 53 -66 11 -22 10 -27 -21 -53 -19 -15 -53 -37 -76 -49 -48 -23 -53 -37
-23 -64 24 -22 101 -23 151 -2 49 20 109 75 126 115 13 31 16 32 51 26 59 -10
61 -18 19 -95 -37 -66 -38 -71 -23 -94 31 -48 87 -38 140 25 34 41 60 131 51
178 -23 132 -50 178 -146 243 -43 29 -66 53 -84 90 -29 56 -61 79 -153 110
-94 31 -154 24 -274 -33 l-97 -46 -123 8 c-68 5 -208 10 -313 10 -187 0 -231
3 -492 34 -143 17 -163 22 -163 40 0 6 66 52 148 101 211 129 424 273 517 350
80 66 424 386 628 585 115 111 265 276 363 400 32 41 107 133 167 204 100 120
353 486 512 740 177 285 252 553 262 943 6 226 0 315 -55 753 -37 293 -37 298
-36 655 1 392 4 429 65 675 67 269 178 526 317 728 332 484 364 522 523 600
213 104 278 116 638 110 l266 -4 155 -98 c85 -53 174 -103 198 -109 24 -6 52
-20 64 -31 21 -19 21 -19 41 5 16 20 19 35 15 95 -8 127 -94 251 -239 347 -84
55 -225 178 -276 239 -44 53 -87 182 -112 330 -36 217 -75 308 -191 446 -67
80 -145 134 -315 218 -181 89 -286 115 -480 119 -82 2 -179 0 -215 -5z"/>
</g>
</svg>
