<?xml version="1.0" standalone="no"?>
<!DOCTYPE svg PUBLIC "-//W3C//DTD SVG 20010904//EN"
 "http://www.w3.org/TR/2001/REC-SVG-20010904/DTD/svg10.dtd">
<svg version="1.0" xmlns="http://www.w3.org/2000/svg"
 width="1536.000000pt" height="1495.000000pt" viewBox="0 0 1536.000000 1495.000000"
 preserveAspectRatio="xMidYMid meet">
<metadata>
Created by potrace 1.16, written by Peter Selinger 2001-2019
</metadata>
<g transform="translate(0.000000,1495.000000) scale(0.100000,-0.100000)"
fill="#FFFFFF" stroke="none">
<path d="M3806 14929 c-33 -11 -127 -31 -210 -44 -239 -40 -484 -130 -810
-298 -198 -102 -341 -191 -454 -281 -103 -82 -167 -106 -348 -131 -115 -16
-272 -47 -499 -99 -60 -14 -153 -30 -205 -35 -95 -11 -132 -20 -243 -60 -76
-28 -230 -61 -540 -116 -388 -69 -497 -106 -497 -170 0 -42 68 -75 157 -75 54
0 154 -21 304 -65 78 -23 170 -40 258 -50 167 -19 395 -71 572 -131 74 -25
201 -63 283 -85 82 -21 182 -55 221 -74 91 -43 199 -142 266 -244 58 -88 149
-269 179 -356 31 -90 42 -272 30 -520 -10 -227 -23 -327 -46 -362 -18 -29 -18
-105 1 -167 28 -91 15 -172 -75 -496 -61 -219 -84 -324 -105 -485 -21 -159
-39 -703 -31 -945 8 -284 60 -851 92 -1024 59 -313 344 -903 716 -1481 116
-181 573 -670 1284 -1375 478 -474 650 -630 705 -643 41 -10 136 -78 239 -172
124 -112 260 -203 390 -260 148 -64 228 -114 394 -250 77 -63 144 -100 199
-110 64 -12 66 -22 68 -418 l2 -307 -24 -26 c-40 -44 -221 -175 -334 -244
-193 -117 -338 -217 -460 -317 -199 -164 -318 -252 -585 -433 -288 -196 -398
-274 -520 -373 -168 -135 -212 -146 -610 -157 -168 -4 -334 -13 -369 -20 -114
-20 -171 -62 -171 -125 0 -50 -32 -88 -110 -129 -118 -62 -265 -84 -454 -66
-112 10 -185 23 -449 80 -112 24 -297 28 -387 9 -130 -27 -243 -101 -281 -184
-27 -57 -25 -126 3 -152 56 -50 210 -81 559 -113 340 -31 427 -45 507 -83 54
-25 70 -49 82 -122 16 -101 75 -153 265 -234 157 -68 230 -109 283 -160 58
-56 87 -108 114 -205 33 -121 118 -226 255 -316 138 -91 274 -136 455 -150
139 -11 166 -17 193 -40 50 -44 90 -49 172 -25 59 18 143 73 227 148 l59 54
-56 154 c-72 202 -106 355 -119 546 -6 84 -9 156 -6 159 3 3 167 11 364 19
1020 40 1477 74 1971 145 113 17 236 30 273 30 68 0 68 0 79 -32 7 -18 16
-114 21 -213 13 -271 22 -297 124 -393 128 -119 293 -212 378 -212 84 0 115
29 88 81 -6 10 -44 41 -85 69 -41 28 -79 59 -85 69 -5 11 -10 77 -10 146 0
132 -3 144 -51 205 -37 48 -51 98 -53 189 -2 133 13 151 140 171 84 14 171 6
289 -26 101 -27 210 -32 240 -11 10 8 25 29 34 48 11 23 31 41 61 56 64 31
216 57 301 51 81 -6 110 -27 159 -113 83 -147 137 -382 165 -711 26 -317 34
-335 129 -307 65 19 139 76 213 164 68 81 109 148 124 202 5 21 25 55 43 75
50 56 69 100 70 164 1 45 -4 63 -22 85 -34 42 -42 67 -51 163 -12 108 -28 141
-120 244 -39 43 -71 82 -71 87 0 13 39 36 89 54 82 28 234 54 476 80 654 69
1127 148 1378 231 77 25 284 81 460 124 452 111 549 143 583 195 57 87 -117
302 -267 330 -29 5 -41 2 -66 -19 -38 -32 -64 -42 -138 -51 -40 -4 -74 -16
-103 -35 -30 -20 -62 -31 -100 -34 -121 -13 -178 -27 -248 -61 -91 -45 -162
-57 -294 -50 -131 7 -150 -1 -167 -69 -26 -104 -50 -111 -458 -141 -249 -18
-355 -31 -410 -51 -113 -42 -164 -55 -319 -85 -154 -30 -174 -32 -235 -21 -51
9 -234 72 -249 87 -7 6 31 396 44 465 25 118 64 208 210 475 323 591 420 754
560 935 82 106 124 153 159 176 24 16 45 61 65 141 14 55 55 89 119 98 55 7
103 38 100 64 -4 41 4 62 54 138 28 44 60 94 69 112 9 17 30 36 45 42 36 14
207 6 368 -18 175 -26 341 -22 490 10 483 105 459 103 880 43 543 -78 725
-115 924 -186 58 -21 275 -81 481 -134 206 -52 528 -136 715 -185 391 -104
440 -124 728 -305 92 -58 171 -108 176 -111 16 -9 115 90 144 144 35 63 46
163 27 242 -19 79 -92 147 -240 224 -135 71 -208 123 -283 204 -105 114 -130
217 -74 299 25 35 27 44 17 64 -7 13 -100 109 -207 213 -200 196 -214 215
-158 229 33 8 156 -26 265 -74 135 -60 197 -80 247 -80 52 0 62 16 37 59 -10
17 -149 145 -309 284 -373 326 -403 351 -570 486 -77 62 -194 168 -260 235
-102 104 -133 129 -210 169 -111 59 -126 72 -213 186 -110 145 -346 405 -597
658 -194 196 -237 233 -273 244 -54 16 -102 68 -102 110 0 16 11 47 25 67 14
20 25 45 25 55 0 43 -57 118 -226 298 -108 116 -181 210 -190 245 -4 15 1 33
14 51 40 59 38 75 -30 160 -92 117 -522 543 -593 588 -81 51 -152 114 -402
357 -240 233 -291 268 -392 268 -113 0 -153 27 -226 148 -50 85 -132 167 -197
197 -81 38 -99 34 -166 -34 -69 -70 -94 -81 -131 -54 -40 31 -59 72 -82 174
-11 52 -32 119 -46 149 -52 106 -541 576 -798 766 -227 168 -344 257 -420 319
-44 37 -126 94 -183 128 -56 33 -132 88 -169 120 -77 68 -112 86 -201 98 -86
12 -109 26 -189 115 -37 42 -81 83 -96 90 -15 8 -65 19 -109 24 -100 12 -158
44 -206 114 -29 44 -32 54 -30 116 3 79 3 80 -112 173 -226 184 -333 301 -412
452 -29 55 -72 123 -94 151 -54 66 -62 83 -74 146 -19 96 -141 258 -390 512
-261 266 -466 435 -558 458 -47 12 -81 41 -178 154 -99 115 -365 281 -494 308
-14 3 -50 26 -80 52 -75 63 -159 101 -250 114 -96 13 -126 23 -231 77 -98 50
-258 94 -428 117 -143 20 -221 19 -295 -5z m3477 -10852 c95 -47 158 -60 173
-35 4 7 10 28 14 48 5 31 9 35 37 38 19 2 64 -10 108 -27 92 -37 136 -39 206
-7 81 37 129 40 259 17 266 -46 582 -54 680 -16 95 36 132 40 211 21 149 -36
268 -95 295 -147 30 -59 28 -64 -112 -319 -45 -80 -116 -210 -159 -290 -231
-431 -517 -839 -627 -896 -43 -22 -187 -61 -310 -83 -162 -29 -191 -44 -316
-162 -167 -159 -252 -207 -410 -228 -186 -24 -379 -147 -396 -252 -9 -54 -35
-65 -238 -94 -95 -14 -234 -36 -309 -50 -318 -58 -678 -84 -1544 -110 -269 -8
-518 -15 -551 -15 l-61 0 14 62 c8 33 21 75 30 92 66 129 301 359 598 586 61
46 207 161 325 256 265 211 412 317 538 388 53 30 121 75 150 100 58 50 63 52
95 34 32 -17 45 -36 65 -100 l18 -58 50 63 c63 80 115 107 202 107 133 0 343
59 399 112 34 31 29 54 -18 83 -52 33 -73 81 -64 144 11 72 36 120 115 211
132 152 282 407 297 505 3 22 13 48 22 59 27 31 103 17 214 -37z m-3425 -2993
c18 -3 38 -14 47 -28 15 -22 34 -168 35 -257 l0 -45 -72 7 c-39 5 -84 11 -100
14 -47 11 -86 52 -103 108 -18 62 -20 157 -2 181 23 31 80 37 195 20z m136
-440 c9 -3 23 -31 32 -61 14 -49 15 -68 3 -152 -12 -91 -14 -98 -51 -133 -107
-104 -223 -56 -249 103 -22 135 3 169 161 225 70 25 80 27 104 18z"/>
</g>
</svg>
