<?xml version="1.0" standalone="no"?>
<!DOCTYPE svg PUBLIC "-//W3C//DTD SVG 20010904//EN"
 "http://www.w3.org/TR/2001/REC-SVG-20010904/DTD/svg10.dtd">
<svg version="1.0" xmlns="http://www.w3.org/2000/svg"
 width="948.000000pt" height="1536.000000pt" viewBox="0 0 948.000000 1536.000000"
 preserveAspectRatio="xMidYMid meet">
<metadata>
Created by potrace 1.16, written by Peter Selinger 2001-2019
</metadata>
<g transform="translate(0.000000,1536.000000) scale(0.100000,-0.100000)"
fill="#FFFFFF" stroke="none">
<path d="M2461 14535 c-18 -8 -44 -15 -57 -15 -39 0 -217 -52 -245 -71 -46
-32 -77 -40 -122 -30 -23 6 -47 17 -53 26 -15 20 -38 11 -84 -29 -46 -41 -162
-106 -190 -106 -12 0 -29 4 -39 9 -14 8 -27 -2 -72 -56 -30 -36 -75 -89 -101
-118 -27 -29 -48 -56 -48 -61 0 -5 -25 -34 -55 -64 -38 -37 -55 -62 -55 -80 0
-14 -13 -38 -28 -55 -25 -27 -28 -38 -30 -114 -4 -115 -27 -154 -104 -182 -20
-7 -42 -22 -48 -33 -6 -12 -35 -34 -65 -50 -30 -16 -55 -32 -55 -36 0 -5 -29
-29 -65 -55 -36 -25 -65 -49 -65 -53 0 -4 -14 -16 -30 -25 -17 -10 -39 -36
-51 -59 -20 -38 -20 -40 -2 -54 10 -7 22 -14 26 -14 11 0 56 -20 175 -76 51
-24 97 -44 102 -44 16 0 80 -39 108 -66 15 -13 38 -27 52 -30 78 -16 108 -71
110 -199 0 -44 8 -109 16 -145 9 -36 24 -101 34 -145 10 -44 25 -107 35 -140
50 -171 49 -169 36 -314 -11 -110 -20 -154 -49 -231 -19 -52 -38 -97 -41 -100
-14 -11 -49 -66 -56 -90 -4 -14 -18 -37 -31 -52 -12 -15 -25 -40 -28 -55 -4
-16 -21 -38 -40 -51 -18 -12 -37 -32 -43 -45 -5 -12 -23 -51 -40 -87 -17 -36
-34 -78 -38 -94 -3 -17 -14 -41 -24 -55 -35 -49 -61 -110 -61 -141 0 -17 -7
-47 -16 -68 -12 -30 -14 -57 -9 -138 5 -74 3 -110 -7 -135 -13 -33 -10 -262 6
-558 8 -125 41 -325 65 -386 63 -163 111 -296 120 -340 6 -27 16 -72 22 -100
6 -27 14 -99 18 -159 5 -86 10 -111 24 -121 11 -8 22 -36 28 -76 6 -35 14 -68
19 -74 5 -6 14 -41 20 -78 6 -37 24 -102 41 -145 42 -104 69 -199 69 -243 0
-21 8 -47 20 -62 27 -34 55 -102 85 -205 14 -48 36 -109 49 -137 47 -98 66
-144 66 -161 0 -10 18 -54 39 -98 22 -45 51 -120 65 -167 25 -85 142 -326 186
-384 8 -11 71 -134 145 -285 26 -52 62 -111 80 -130 36 -39 83 -108 109 -160
9 -19 29 -51 44 -71 15 -20 42 -57 59 -82 18 -25 48 -55 67 -66 43 -27 106
-96 106 -117 0 -9 8 -28 18 -42 9 -15 22 -34 27 -43 24 -37 79 -109 84 -109 3
0 47 -38 96 -85 50 -47 101 -93 115 -101 14 -9 41 -33 60 -55 30 -35 93 -99
153 -157 10 -9 43 -46 74 -82 31 -36 70 -74 87 -85 41 -27 91 -71 140 -122 22
-24 46 -43 53 -43 45 0 103 -61 103 -108 0 -10 7 -33 16 -50 8 -17 18 -62 22
-99 6 -54 15 -78 42 -118 39 -56 44 -101 21 -171 -13 -39 -12 -43 14 -83 26
-39 27 -45 21 -117 -4 -41 -11 -86 -16 -98 -5 -13 -13 -64 -19 -113 -6 -57
-17 -104 -30 -127 -12 -20 -21 -45 -21 -55 0 -43 -59 -253 -84 -296 -14 -26
-26 -56 -26 -67 0 -38 -110 -257 -152 -304 -11 -12 -44 -29 -74 -39 -62 -19
-64 -22 -69 -76 -5 -45 -39 -129 -53 -129 -5 0 -20 -21 -33 -47 -13 -25 -42
-67 -65 -92 -52 -59 -64 -81 -54 -100 73 -139 81 -178 60 -291 -6 -29 -10 -84
-10 -121 0 -58 5 -78 31 -126 17 -32 37 -65 43 -73 19 -23 48 -91 42 -97 -3
-3 1 -20 8 -37 11 -27 11 -43 0 -95 -7 -34 -15 -70 -19 -79 -4 -9 -10 -48 -15
-87 -11 -99 -34 -180 -70 -252 -17 -35 -30 -73 -28 -85 3 -22 8 -23 107 -26
88 -2 107 0 123 15 34 30 48 69 48 130 0 65 45 228 87 311 14 29 40 62 57 75
41 29 71 67 71 92 0 38 35 29 79 -20 55 -62 140 -84 291 -75 l80 5 45 49 c41
45 45 53 44 100 0 64 -24 179 -38 188 -7 5 -14 -9 -18 -40 -4 -26 -10 -65 -13
-87 -10 -67 -23 -83 -69 -87 -22 -3 -47 -3 -53 0 -18 6 -16 32 4 54 10 11 23
40 29 64 11 42 9 49 -20 106 -17 33 -49 81 -72 107 -49 55 -64 82 -64 113 0
12 -15 47 -34 78 -39 64 -55 157 -28 167 8 4 20 -1 27 -10 7 -10 18 -17 25
-17 8 0 29 -5 47 -12 26 -9 36 -9 45 0 9 9 7 19 -12 44 -13 18 -33 40 -44 48
-35 25 -136 133 -149 160 -16 31 -15 112 1 118 7 2 12 23 12 50 0 30 8 59 20
80 18 30 19 39 9 69 -19 59 10 125 73 166 23 14 28 25 28 57 0 75 36 176 101
282 34 56 69 111 78 122 58 72 103 112 156 138 46 23 71 43 107 91 66 89 104
168 124 257 16 74 15 81 -1 137 -28 92 -61 155 -105 196 -22 21 -41 44 -41 50
-1 7 -3 21 -4 33 -1 12 -12 31 -24 43 -38 38 -17 65 25 32 15 -12 34 -21 43
-21 9 0 39 -15 66 -33 28 -19 66 -37 85 -41 81 -15 301 -188 389 -306 27 -36
77 -84 116 -110 97 -65 153 -111 241 -196 126 -122 174 -160 244 -191 53 -24
116 -75 238 -194 57 -55 88 -95 150 -193 18 -28 38 -58 45 -66 39 -48 70 -94
83 -123 13 -29 30 -60 89 -156 11 -19 39 -59 61 -90 23 -31 63 -96 89 -146 81
-154 107 -198 146 -250 20 -27 46 -68 56 -90 11 -22 36 -67 57 -99 20 -33 36
-67 36 -75 0 -9 9 -27 20 -41 11 -14 20 -39 20 -56 0 -17 7 -37 15 -44 9 -7
30 -43 47 -79 18 -36 42 -82 54 -101 13 -19 37 -71 54 -115 17 -44 43 -109 59
-145 55 -125 61 -141 61 -160 0 -27 55 -145 80 -170 11 -11 23 -32 26 -47 4
-16 15 -46 25 -68 10 -22 23 -67 29 -100 14 -75 36 -144 68 -215 13 -30 39
-93 58 -140 61 -158 179 -410 192 -410 4 0 27 -19 52 -43 84 -79 116 -100 139
-88 34 19 68 13 91 -16 23 -29 84 -53 137 -53 25 0 35 7 53 37 23 39 23 41 4
232 -3 36 -2 73 4 85 6 11 16 42 22 68 8 31 26 62 54 90 61 64 83 99 91 143 4
22 16 55 26 72 16 30 17 36 4 67 -21 49 -4 83 42 92 42 8 77 -15 106 -66 25
-45 35 -52 155 -111 82 -39 119 -65 182 -125 53 -51 91 -79 117 -86 49 -13
102 -37 132 -60 31 -24 95 -23 129 1 70 48 121 43 198 -21 26 -22 60 -42 76
-45 16 -3 31 -10 34 -14 8 -13 58 -11 72 3 7 7 12 40 12 79 0 54 -4 70 -18 81
-29 21 -50 59 -56 108 -13 88 -37 128 -216 365 -34 46 -108 130 -151 174 -19
20 -75 81 -125 136 -49 54 -106 116 -126 137 -21 22 -38 43 -38 48 0 5 -6 15
-13 22 -28 30 -134 173 -158 216 -15 25 -42 57 -61 71 -19 14 -55 56 -79 93
-55 85 -126 179 -145 194 -18 14 -44 50 -148 204 -46 69 -110 149 -141 178
-31 28 -62 64 -68 80 -7 15 -34 60 -60 99 -26 40 -60 97 -74 125 -15 29 -37
64 -49 78 -13 14 -32 54 -43 88 -11 35 -27 72 -36 82 -9 10 -28 36 -43 58 -15
22 -55 77 -89 121 -34 45 -67 98 -73 119 -28 92 -58 154 -117 240 -35 51 -63
99 -63 106 0 8 -21 33 -47 55 -37 33 -46 48 -46 73 0 18 -15 55 -34 86 -34 58
-43 102 -19 102 7 0 21 -20 30 -45 19 -48 57 -85 88 -85 10 0 60 -25 111 -56
135 -83 156 -94 176 -94 10 0 58 -25 107 -56 102 -65 229 -116 293 -118 43 -1
44 0 72 54 20 38 31 77 35 125 l6 71 -45 69 c-24 39 -54 86 -65 105 -11 19
-40 71 -65 115 -25 44 -66 103 -92 130 -25 28 -70 77 -100 109 -30 33 -55 64
-55 71 0 6 -14 24 -31 41 -17 16 -39 45 -49 65 -12 22 -40 48 -77 72 -33 20
-87 64 -121 99 -33 35 -78 79 -99 98 -67 62 -75 91 -80 289 -3 97 -6 286 -7
421 -1 135 -5 283 -10 330 -5 57 -4 112 4 163 9 64 9 81 -2 94 -17 22 -17 277
0 353 11 47 11 63 -3 110 -23 78 -78 326 -105 470 -6 35 -19 78 -28 95 -11 21
-17 60 -18 126 -2 96 -10 155 -24 174 -4 6 -17 37 -30 70 -21 58 -31 102 -49
235 -14 95 -21 131 -36 165 -7 17 -21 73 -30 125 -16 88 -54 234 -76 289 -6
13 -12 60 -15 105 -6 81 -32 178 -66 245 -10 19 -18 45 -18 56 0 12 -4 25 -8
31 -14 16 -30 76 -47 169 -17 93 -30 145 -45 180 -5 11 -26 58 -48 105 -41 90
-63 149 -81 217 -6 22 -27 63 -45 91 -19 27 -40 69 -47 93 -20 70 -78 186
-144 289 -34 52 -64 102 -68 110 -6 14 -28 50 -73 119 -12 18 -38 44 -57 57
-27 18 -47 48 -81 119 -26 53 -46 102 -46 109 0 18 -47 124 -69 156 -10 14
-30 57 -45 95 -15 39 -41 91 -57 118 -16 26 -29 52 -29 58 0 5 -20 31 -44 57
-24 26 -61 76 -82 112 -21 36 -59 87 -86 114 -26 28 -51 58 -54 68 -6 21 11
48 32 48 19 0 18 24 -1 40 -8 7 -15 18 -15 24 0 6 -13 27 -29 46 -15 19 -35
49 -44 65 -8 17 -40 58 -71 93 -32 35 -60 78 -65 99 -7 24 -29 55 -60 86 -36
34 -54 61 -65 96 -19 64 -39 100 -76 135 -35 34 -36 41 -14 85 15 31 15 32 -8
50 -13 11 -35 41 -48 67 -15 29 -43 61 -72 81 -25 18 -49 40 -52 49 -9 24 -7
54 4 54 18 0 10 20 -35 88 -28 41 -45 78 -45 96 0 17 -10 40 -22 53 -11 12
-24 39 -27 60 -5 30 -13 41 -42 56 -24 13 -40 30 -49 55 -7 21 -21 45 -31 54
-10 10 -21 23 -26 30 -4 7 -25 26 -45 41 -26 19 -39 38 -44 63 -4 24 -24 54
-61 92 -29 32 -81 95 -115 142 -34 47 -77 103 -95 124 -18 22 -33 45 -33 51 0
18 -125 127 -175 152 -24 12 -52 35 -63 51 -11 15 -33 34 -49 42 -15 8 -41 25
-56 37 -45 36 -203 103 -246 103 -39 1 -132 25 -171 45 -19 9 -51 32 -70 50
-32 30 -42 33 -125 40 -125 11 -209 11 -283 2 -59 -8 -63 -7 -86 18 -27 29
-29 29 -75 10z m1118 -11795 c48 -46 52 -53 45 -83 -8 -37 -34 -76 -50 -77
-13 0 -24 22 -24 50 0 10 -8 20 -18 22 -23 6 -39 103 -21 125 7 7 12 13 14 13
1 0 25 -23 54 -50z"/>
</g>
</svg>
