<?xml version="1.0" standalone="no"?>
<!DOCTYPE svg PUBLIC "-//W3C//DTD SVG 20010904//EN"
 "http://www.w3.org/TR/2001/REC-SVG-20010904/DTD/svg10.dtd">
<svg version="1.0" xmlns="http://www.w3.org/2000/svg"
 width="1536.000000pt" height="835.000000pt" viewBox="0 0 1536.000000 835.000000"
 preserveAspectRatio="xMidYMid meet">
<metadata>
Created by potrace 1.16, written by Peter Selinger 2001-2019
</metadata>
<g transform="translate(0.000000,835.000000) scale(0.100000,-0.100000)"
fill="#FFFFFF" stroke="none">
<path d="M90 8336 c-75 -24 -76 -34 -12 -113 76 -91 74 -108 -11 -97 -32 5
-46 2 -56 -10 -20 -24 -7 -57 51 -123 29 -32 73 -86 98 -118 101 -131 203
-234 296 -300 38 -26 83 -60 99 -75 68 -61 378 -246 690 -412 83 -44 164 -88
180 -98 17 -10 113 -63 215 -118 175 -94 273 -149 365 -202 22 -13 192 -101
379 -197 186 -95 352 -183 368 -194 16 -12 64 -71 108 -132 170 -241 428 -552
618 -746 160 -164 314 -338 364 -412 27 -39 55 -78 64 -87 17 -16 203 -265
219 -291 9 -16 24 -80 29 -125 2 -16 17 -41 35 -58 24 -23 31 -36 27 -53 -4
-15 1 -28 15 -41 29 -26 50 -70 43 -88 -4 -10 0 -18 10 -22 9 -3 16 -12 16
-20 0 -7 6 -17 13 -21 6 -4 13 -17 14 -28 4 -50 10 -62 41 -84 35 -26 36 -28
23 -84 -8 -32 -6 -42 13 -64 15 -17 33 -26 54 -27 l32 -1 -7 -54 c-4 -40 -3
-52 5 -47 7 4 12 1 12 -9 0 -11 5 -15 15 -11 11 4 16 -5 21 -35 7 -39 8 -41
39 -35 22 5 36 2 45 -9 7 -8 18 -15 25 -15 9 0 12 -13 11 -40 l-2 -40 44 0 44
0 -6 -35 c-8 -39 1 -66 14 -45 5 9 9 9 14 1 4 -6 2 -11 -3 -11 -6 0 -11 -8
-11 -17 -1 -16 -2 -16 -16 2 -14 19 -15 19 -38 -10 -23 -29 -24 -30 -5 -37 11
-4 22 -14 25 -22 3 -8 19 -20 35 -26 23 -10 27 -16 18 -26 -15 -18 -3 -34 25
-34 12 0 26 -3 30 -7 4 -4 25 -13 46 -19 32 -10 42 -9 51 2 14 17 29 9 29 -15
0 -24 22 -42 63 -51 l32 -7 -40 -24 -40 -24 58 -5 c47 -4 62 -10 77 -30 l19
-25 46 23 c84 41 93 37 247 -100 48 -43 110 -94 138 -114 63 -45 70 -70 36
-126 -46 -77 -49 -79 -85 -67 -78 27 -171 -19 -171 -85 0 -43 -8 -66 -25 -66
-24 0 -43 36 -50 97 -7 65 -21 88 -48 77 -22 -8 -31 -63 -23 -131 13 -114 48
-141 198 -154 75 -6 106 -13 129 -30 28 -20 34 -20 116 -9 67 10 106 23 177
58 50 26 98 45 106 44 17 -4 71 -39 235 -153 61 -42 164 -107 230 -145 417
-235 523 -298 550 -327 17 -18 49 -45 72 -61 66 -44 137 -139 158 -210 9 -31
21 -44 55 -62 24 -13 48 -30 52 -38 5 -9 15 -13 23 -10 8 4 15 1 15 -5 0 -6
11 -11 24 -11 14 0 31 -7 40 -15 8 -8 22 -15 31 -15 9 0 25 -5 36 -11 11 -5
35 -11 53 -13 18 -2 38 -6 44 -10 6 -3 13 -2 17 4 3 5 14 10 23 10 13 0 13 -2
-4 -15 -18 -14 -18 -14 6 -16 45 -4 65 1 77 18 12 15 13 15 19 0 3 -10 17 -17
30 -17 13 0 24 -4 24 -10 0 -5 13 -10 30 -10 23 0 31 -5 34 -22 26 -135 28
-139 70 -181 112 -110 174 -157 242 -181 102 -35 140 -39 185 -16 43 23 69 26
69 8 0 -6 8 -4 20 7 17 16 40 17 267 12 303 -5 327 -11 413 -91 34 -31 79 -65
100 -76 47 -24 83 -66 105 -124 37 -98 -5 -201 -109 -267 -33 -21 -80 -61
-104 -89 l-43 -50 43 -40 c55 -50 70 -65 85 -83 6 -8 35 -20 64 -27 42 -10 63
-23 104 -66 43 -44 59 -53 99 -59 67 -10 182 3 225 26 62 33 88 26 156 -40
l60 -60 94 -2 c105 -3 99 -7 183 93 26 31 71 71 99 89 l51 34 -7 85 c-6 73 -4
94 15 148 21 61 21 65 6 135 -8 40 -20 107 -25 150 -5 43 -16 88 -25 100 -83
114 -123 185 -157 276 -13 35 -60 71 -94 71 -11 0 -29 6 -40 14 -14 10 -70 16
-185 21 -91 4 -203 13 -249 21 -46 8 -103 14 -126 14 -43 0 -77 21 -55 35 5 3
65 13 133 21 67 8 196 26 287 39 91 14 178 25 194 25 15 0 96 18 180 41 83 22
162 42 176 43 22 1 204 87 320 151 25 13 92 45 150 71 192 85 265 121 358 178
51 31 95 56 98 56 2 0 32 13 66 29 35 16 81 37 103 46 22 9 69 33 105 55 36
21 90 48 120 59 30 12 78 38 105 59 80 60 183 132 189 132 3 0 6 -10 6 -22 1
-21 4 -19 38 17 20 22 41 40 47 41 29 1 80 43 168 138 54 58 101 105 105 104
11 -3 102 63 158 115 53 49 67 57 58 32 -11 -28 7 -36 33 -15 14 11 31 20 37
20 7 0 32 20 56 45 46 47 85 59 97 29 4 -12 16 -4 52 35 25 27 64 75 85 105
21 30 43 53 48 50 4 -3 8 -21 8 -40 0 -19 5 -34 10 -34 6 0 24 23 41 50 17 28
36 49 43 47 6 -2 21 4 34 14 13 10 30 15 38 12 23 -9 62 24 70 59 7 32 8 32
14 8 l6 -25 13 23 c7 13 18 21 26 18 8 -3 38 33 81 96 77 114 285 330 374 390
61 41 87 68 115 115 23 39 45 50 61 28 11 -15 14 -14 28 7 9 12 16 28 16 34 0
7 13 25 30 40 16 16 34 41 41 55 10 26 77 79 99 79 5 0 10 13 10 29 0 23 5 30
23 33 16 2 23 11 25 30 4 32 3 32 36 17 19 -9 29 -8 47 5 13 9 38 16 56 16 23
0 33 5 33 16 0 10 6 14 18 10 148 -43 444 -79 872 -106 91 -6 173 -13 184 -16
16 -5 17 -2 11 28 -22 99 -153 295 -321 480 -136 149 -204 235 -204 261 0 9
-7 17 -15 17 -9 0 -19 10 -24 23 -5 13 -22 38 -37 56 -26 31 -28 41 -31 130
-1 60 -10 122 -23 166 -11 39 -29 112 -40 164 -22 109 -100 278 -172 376 -126
171 -574 629 -742 760 -107 83 -247 164 -503 291 -288 143 -415 180 -801 235
-68 9 -85 9 -99 -2 -10 -9 -52 -16 -109 -19 -51 -3 -96 -9 -100 -13 -12 -11
36 -55 73 -68 49 -16 34 -22 -20 -8 -39 11 -47 10 -61 -3 -22 -22 -21 -23 19
-47 19 -11 35 -26 35 -33 0 -15 -122 -44 -220 -53 -36 -3 -99 -9 -140 -15 -41
-5 -119 -6 -172 -3 -79 5 -102 3 -121 -10 -22 -14 -31 -14 -75 -2 -28 7 -54
10 -57 6 -4 -3 -10 -6 -13 -6 -4 0 -20 -6 -37 -12 -16 -7 -88 -26 -159 -43
-145 -35 -155 -35 -306 12 -156 48 -282 76 -530 118 -369 62 -429 70 -700 90
-140 11 -271 22 -290 25 -101 15 -490 47 -750 61 -228 12 -537 16 -1365 17
-1083 2 -1396 -5 -1430 -33 -11 -9 -90 -15 -303 -21 -317 -9 -518 -23 -661
-45 -53 -8 -238 -19 -420 -24 -312 -10 -379 -14 -588 -40 -52 -6 -189 -10
-310 -8 l-218 3 -195 90 c-107 49 -222 104 -255 123 -33 19 -105 56 -160 84
-119 60 -199 104 -241 132 -17 12 -71 48 -120 81 -93 63 -570 308 -809 416
-77 35 -160 75 -185 90 -91 54 -397 215 -470 248 -41 18 -120 54 -175 81 -55
26 -143 65 -195 85 -270 105 -335 119 -420 91z m13115 -5176 c3 -5 1 -10 -4
-10 -6 0 -11 5 -11 10 0 6 2 10 4 10 3 0 8 -4 11 -10z"/>
</g>
</svg>
