<?xml version="1.0" standalone="no"?>
<!DOCTYPE svg PUBLIC "-//W3C//DTD SVG 20010904//EN"
 "http://www.w3.org/TR/2001/REC-SVG-20010904/DTD/svg10.dtd">
<svg version="1.0" xmlns="http://www.w3.org/2000/svg"
 width="1534.000000pt" height="1536.000000pt" viewBox="0 0 1534.000000 1536.000000"
 preserveAspectRatio="xMidYMid meet">
<metadata>
Created by potrace 1.16, written by Peter Selinger 2001-2019
</metadata>
<g transform="translate(0.000000,1536.000000) scale(0.100000,-0.100000)"
fill="#FFFFFF" stroke="none">
<path d="M2805 15344 c-54 -17 -83 -19 -131 -9 -33 7 -135 -30 -210 -77 -21
-14 -57 -31 -79 -38 -115 -36 -200 -99 -419 -311 -418 -402 -631 -675 -806
-1034 -72 -147 -90 -203 -134 -420 -22 -103 -42 -179 -54 -195 -10 -14 -70
-60 -133 -103 -208 -144 -460 -364 -661 -580 -168 -179 -199 -227 -164 -256
10 -8 21 -6 47 12 19 13 39 22 44 21 6 -2 133 -15 282 -29 312 -30 671 -85
684 -106 13 -21 26 -73 45 -179 17 -100 14 -315 -6 -445 -17 -105 -117 -447
-164 -555 -83 -196 -141 -410 -172 -634 -18 -123 -18 -129 0 -141 17 -13 17
-18 2 -92 -30 -149 -46 -279 -56 -463 -11 -194 -1 -451 19 -503 6 -16 18 -108
26 -205 24 -288 46 -392 132 -637 70 -198 317 -733 451 -977 96 -175 274 -443
365 -548 36 -42 94 -121 130 -175 35 -55 81 -120 101 -143 20 -24 36 -48 36
-54 0 -5 -11 -24 -25 -42 -61 -80 -67 -138 -35 -336 40 -246 80 -360 164 -468
59 -77 92 -106 110 -99 22 9 21 22 -19 154 -20 63 -38 148 -42 188 l-6 73 46
-5 c42 -5 49 -3 76 26 l29 31 21 -54 c11 -30 25 -85 32 -123 16 -95 44 -167
96 -245 48 -73 85 -108 114 -108 25 0 24 17 -6 65 -61 101 -67 118 -73 201
l-5 82 40 11 c21 6 52 24 67 40 l29 30 77 -67 c42 -37 133 -119 202 -182 l125
-115 -49 -47 c-27 -26 -56 -64 -64 -83 -8 -20 -31 -54 -51 -76 -31 -35 -36
-46 -35 -85 2 -44 1 -46 -40 -64 -84 -37 -289 -82 -406 -89 -64 -4 -117 -12
-124 -19 -57 -57 261 -81 547 -41 83 12 186 25 230 29 101 10 157 32 194 79
16 20 56 51 89 68 l59 33 75 -54 c384 -275 753 -477 1252 -683 259 -107 345
-136 575 -194 233 -58 665 -191 675 -208 8 -12 -114 -414 -159 -526 -55 -137
-217 -457 -290 -575 -78 -122 -138 -195 -194 -234 -56 -39 -85 -31 -97 26 -8
34 -19 49 -69 88 -38 29 -70 64 -86 96 -42 78 -93 130 -146 148 -65 22 -98 20
-141 -9 -20 -14 -42 -25 -49 -25 -20 0 -73 51 -73 70 0 51 -100 119 -175 120
-35 0 -45 -6 -95 -58 -30 -32 -91 -84 -135 -114 l-81 -55 -90 -5 c-89 -4 -92
-5 -245 -82 -84 -42 -162 -85 -173 -94 -25 -23 -51 -86 -77 -185 -19 -73 -20
-89 -9 -144 9 -49 9 -70 0 -99 -21 -64 -17 -229 9 -309 52 -163 163 -345 211
-345 39 0 42 34 10 91 -17 30 -39 74 -50 98 -26 55 -45 228 -35 315 l6 65 76
42 c72 39 182 136 209 184 11 19 14 19 40 5 l29 -16 -4 -110 c-2 -96 1 -122
22 -190 13 -43 32 -115 42 -159 24 -109 75 -262 98 -291 24 -32 62 -31 83 1
18 28 15 48 -25 157 -23 62 -28 159 -11 218 8 29 17 39 47 49 63 22 122 60
137 89 7 15 19 53 26 85 18 87 34 71 69 -69 13 -51 46 -94 71 -94 22 0 55 43
47 63 -6 15 12 201 21 228 7 16 22 9 132 -61 98 -63 151 -106 248 -202 135
-134 222 -252 222 -299 0 -52 -36 -106 -106 -159 -83 -62 -144 -91 -258 -123
-99 -28 -127 -47 -106 -71 20 -25 125 -20 222 10 184 58 529 212 633 284 59
40 99 91 143 179 31 64 37 85 37 141 0 85 -30 134 -101 170 -27 14 -51 26 -52
27 -2 1 -1 36 3 78 6 60 13 83 32 105 13 16 33 61 44 99 74 270 240 663 352
833 96 148 333 393 437 452 96 54 126 66 175 66 28 0 63 7 79 15 36 19 87 19
201 0 128 -21 174 -20 201 6 21 19 35 22 136 23 108 1 113 2 123 24 13 30 24
28 226 -31 86 -25 214 -58 285 -73 127 -27 132 -27 279 -16 244 19 289 17 485
-28 96 -22 281 -62 410 -90 251 -53 431 -107 945 -283 396 -135 531 -177 735
-227 91 -22 264 -74 385 -115 157 -53 266 -83 380 -105 298 -57 450 -92 500
-115 94 -42 732 -476 1141 -775 110 -81 272 -196 359 -256 169 -117 515 -390
760 -600 239 -205 665 -524 808 -604 49 -27 62 -31 82 -22 36 17 38 44 10 125
-14 40 -25 79 -25 85 0 7 15 12 34 12 19 0 44 8 57 19 21 17 22 21 11 57 -25
83 -101 192 -219 315 -107 111 -768 754 -1088 1059 -150 143 -818 736 -1075
954 -440 375 -551 475 -785 710 -138 138 -316 328 -397 421 -80 94 -220 251
-313 350 -160 172 -352 411 -340 424 7 7 984 -485 1202 -606 84 -46 235 -132
335 -192 101 -59 219 -127 263 -151 44 -23 143 -78 220 -121 214 -119 327
-150 349 -94 13 34 6 107 -14 146 -11 21 -60 85 -109 142 -159 183 -250 262
-491 427 -264 180 -452 319 -570 422 -47 40 -166 138 -265 217 -310 249 -790
755 -921 971 -64 106 -254 342 -404 505 -46 50 -181 191 -300 315 -119 124
-290 304 -380 400 -254 271 -518 540 -697 712 -217 208 -575 497 -718 579 -50
29 -69 48 -112 114 -29 44 -153 229 -276 410 -124 182 -357 530 -519 775 -333
502 -568 834 -736 1043 -63 78 -141 182 -174 231 -32 49 -74 107 -92 130 -19
22 -58 91 -89 151 -65 131 -164 303 -297 515 -53 85 -114 186 -134 225 -38 70
-150 226 -278 387 -38 48 -69 95 -68 105 4 32 1 39 -45 97 -30 39 -45 68 -45
88 0 17 -18 59 -44 101 -43 73 -52 94 -81 202 -9 33 -21 68 -26 79 -6 10 -13
58 -16 106 l-6 88 -57 51 c-32 27 -78 64 -103 81 -45 30 -111 100 -102 108 2
2 20 -2 41 -8 33 -11 39 -11 50 5 18 25 13 30 -117 121 l-109 76 31 29 c29 27
30 31 17 52 -19 29 -121 96 -408 269 -283 171 -411 233 -593 287 -76 23 -154
48 -174 56 l-35 15 21 26 c19 24 20 30 8 48 -16 24 -55 35 -323 92 -173 37
-180 39 -214 75 -25 26 -53 42 -101 57 -79 24 -197 42 -280 42 -33 0 -70 5
-82 11 -35 19 -185 21 -242 3z"/>
</g>
</svg>
