<?xml version="1.0" standalone="no"?>
<!DOCTYPE svg PUBLIC "-//W3C//DTD SVG 20010904//EN"
 "http://www.w3.org/TR/2001/REC-SVG-20010904/DTD/svg10.dtd">
<svg version="1.0" xmlns="http://www.w3.org/2000/svg"
 width="1321.000000pt" height="1536.000000pt" viewBox="0 0 1321.000000 1536.000000"
 preserveAspectRatio="xMidYMid meet">
<metadata>
Created by potrace 1.16, written by Peter Selinger 2001-2019
</metadata>
<g transform="translate(0.000000,1536.000000) scale(0.100000,-0.100000)"
fill="#FFFFFF" stroke="none">
<path d="M3100 15354 c-19 -2 -87 -9 -150 -15 -134 -13 -316 -43 -380 -64 -25
-8 -80 -19 -122 -25 -43 -5 -88 -16 -100 -24 -13 -8 -77 -33 -143 -56 -153
-53 -314 -132 -447 -219 -78 -52 -134 -100 -217 -188 -63 -65 -125 -126 -140
-136 -38 -25 -193 -73 -296 -91 -50 -9 -200 -23 -335 -31 -269 -17 -376 -28
-490 -51 -94 -19 -205 -65 -250 -103 l-35 -29 25 -20 c48 -39 351 -124 775
-217 116 -26 244 -60 285 -76 221 -88 360 -246 540 -614 100 -203 164 -370
245 -636 85 -282 88 -300 87 -564 0 -254 -11 -402 -47 -635 -37 -238 -56 -452
-63 -707 -20 -681 51 -1147 279 -1843 131 -398 254 -669 462 -1014 145 -243
417 -643 581 -856 254 -329 709 -797 1061 -1090 428 -356 984 -706 1635 -1029
444 -221 736 -333 1033 -396 98 -21 111 -38 66 -89 -35 -40 -194 -160 -344
-259 -55 -36 -340 -226 -634 -423 -611 -408 -745 -494 -891 -568 -131 -67
-227 -97 -455 -140 -380 -73 -362 -71 -786 -68 l-387 3 -93 -30 c-52 -17 -134
-37 -184 -46 -193 -33 -320 -90 -421 -189 -108 -105 -78 -125 77 -52 188 89
337 96 440 21 46 -34 56 -37 150 -46 56 -4 104 -11 107 -13 2 -3 -12 -29 -33
-57 -36 -51 -65 -108 -65 -129 0 -18 21 -11 109 34 100 51 178 76 235 76 52 0
61 -7 89 -61 31 -62 79 -84 177 -83 64 1 92 8 192 48 64 25 119 46 123 46 4 0
65 27 136 60 79 37 174 73 246 91 64 17 169 54 233 82 l115 52 555 -3 c305 -1
583 -3 618 -2 78 0 80 -11 18 -94 -61 -81 -268 -309 -309 -340 -48 -37 -98
-52 -285 -85 -320 -58 -380 -63 -832 -70 l-425 -7 -83 -37 c-57 -25 -114 -41
-181 -51 -166 -25 -302 -87 -385 -175 -46 -50 -60 -91 -31 -91 9 0 42 14 75
30 85 43 202 79 280 86 81 8 122 -10 148 -63 39 -83 101 -96 328 -68 80 10
147 15 150 13 2 -3 -31 -28 -74 -57 -131 -86 -211 -181 -153 -181 11 0 69 18
129 39 118 42 187 57 227 47 18 -5 27 -16 35 -47 14 -51 39 -76 86 -85 44 -8
77 -2 334 64 144 36 217 61 275 91 44 23 119 52 167 66 48 14 156 57 240 96
311 145 396 168 688 189 80 5 214 21 298 35 84 14 183 25 220 25 135 0 238 32
282 87 18 23 20 35 15 74 -6 44 -5 47 31 79 115 100 312 115 477 35 124 -60
166 -38 90 47 -76 83 -276 155 -408 145 -90 -7 -294 -77 -474 -163 -149 -71
-202 -87 -353 -109 -191 -27 -302 -16 -314 31 -15 61 133 403 215 495 44 50
53 49 136 -21 47 -40 61 -47 73 -38 19 16 10 68 -24 144 -53 117 -55 107 60
267 128 178 517 702 610 822 109 140 362 431 397 455 l31 23 267 -17 c346 -21
540 -47 689 -91 60 -18 154 -79 308 -202 165 -131 204 -161 255 -196 269 -186
392 -279 407 -310 7 -15 31 -35 55 -45 49 -23 282 -187 423 -299 138 -110 281
-283 474 -573 35 -52 113 -162 174 -245 61 -82 180 -253 265 -380 84 -126 172
-250 194 -275 21 -25 52 -67 67 -94 15 -26 73 -110 129 -185 55 -75 180 -255
277 -401 97 -146 216 -318 263 -383 79 -108 128 -183 219 -329 18 -29 48 -75
67 -102 21 -28 35 -60 35 -77 0 -22 5 -29 19 -29 11 0 31 -15 43 -32 28 -39
196 -262 218 -290 12 -14 34 -20 88 -25 70 -6 72 -5 72 17 0 29 50 128 106
208 l45 64 -129 256 c-71 142 -156 304 -189 362 -33 58 -124 222 -203 365 -78
143 -161 289 -184 325 -45 69 -148 251 -366 645 -73 132 -164 292 -203 355
-114 188 -308 516 -387 655 -40 72 -94 164 -120 205 -56 89 -268 457 -300 519
l-22 44 71 -7 c80 -8 132 3 169 38 34 30 25 75 -38 205 -103 212 -281 489
-520 811 -161 216 -440 620 -505 730 -21 36 -63 104 -92 151 -48 78 -76 127
-165 286 -16 29 -43 94 -59 144 -50 155 -222 497 -359 714 -31 50 -90 151
-130 225 -40 74 -107 189 -148 255 -90 145 -560 840 -837 1240 -326 470 -445
648 -580 870 -368 603 -839 1301 -1315 1945 -91 124 -203 277 -248 340 -45 63
-109 147 -143 185 -152 174 -283 384 -444 711 -88 179 -121 258 -145 345 -17
63 -42 133 -54 155 -13 23 -26 58 -30 79 -15 79 -182 493 -290 718 -102 213
-255 417 -464 618 -194 187 -355 295 -622 414 -165 74 -258 100 -464 131 -163
24 -496 40 -596 28z m4424 -10861 c31 -17 -66 -173 -346 -557 -399 -544 -493
-663 -548 -691 -14 -7 -47 -16 -75 -19 -27 -4 -147 -32 -265 -62 -262 -67
-331 -76 -492 -63 -151 12 -198 23 -198 48 0 107 467 484 1382 1115 376 259
357 249 450 243 42 -3 83 -9 92 -14z"/>
</g>
</svg>
