<?xml version="1.0" standalone="no"?>
<!DOCTYPE svg PUBLIC "-//W3C//DTD SVG 20010904//EN"
 "http://www.w3.org/TR/2001/REC-SVG-20010904/DTD/svg10.dtd">
<svg version="1.0" xmlns="http://www.w3.org/2000/svg"
 width="1536.000000pt" height="1308.000000pt" viewBox="0 0 1536.000000 1308.000000"
 preserveAspectRatio="xMidYMid meet">
<metadata>
Created by potrace 1.16, written by Peter Selinger 2001-2019
</metadata>
<g transform="translate(0.000000,1308.000000) scale(0.100000,-0.100000)"
fill="#FFFFFF" stroke="none">
<path d="M12389 13070 c-762 -30 -1623 -169 -2634 -425 -1252 -317 -1659 -445
-2293 -721 -415 -181 -502 -232 -844 -490 -108 -82 -247 -180 -309 -219 -254
-157 -356 -254 -469 -446 -40 -66 -89 -139 -109 -162 -113 -125 -244 -100
-595 115 -311 191 -514 262 -777 275 -160 7 -249 -6 -437 -64 -131 -40 -161
-46 -279 -52 -108 -5 -135 -10 -152 -25 -31 -28 -26 -42 29 -82 56 -40 56 -42
84 -219 23 -143 93 -416 149 -580 60 -173 112 -290 208 -467 106 -193 123
-238 116 -307 -9 -88 -25 -102 -200 -181 -148 -68 -240 -141 -472 -375 -121
-122 -281 -276 -355 -342 -226 -201 -288 -275 -536 -638 -290 -425 -363 -549
-774 -1320 -635 -1191 -834 -1599 -1055 -2160 -129 -327 -186 -506 -329 -1035
-101 -372 -233 -1033 -290 -1455 -58 -425 -81 -902 -55 -1161 11 -114 47 -292
81 -403 23 -74 71 -131 110 -131 82 0 271 166 360 315 26 44 82 163 124 265
80 195 92 214 218 356 189 214 265 336 370 597 89 221 131 294 174 302 64 13
78 22 109 70 17 28 52 78 78 111 76 102 171 267 292 509 125 250 154 297 308
515 57 80 133 201 171 270 75 139 130 224 165 256 13 12 56 41 94 64 141 85
237 203 330 409 75 166 89 187 164 245 172 132 348 390 431 631 48 141 64 166
170 279 100 107 123 143 253 402 103 205 213 383 303 493 37 45 44 60 44 96 0
51 8 55 88 43 47 -8 61 -5 110 17 77 35 118 77 159 163 35 74 36 74 108 86
113 18 128 25 200 101 73 77 70 75 188 90 38 5 70 21 143 71 108 74 131 84
274 119 57 15 127 38 155 51 l52 26 79 -27 c163 -54 254 -114 549 -360 189
-158 286 -228 469 -340 202 -124 464 -358 643 -575 303 -369 1274 -1626 1467
-1900 88 -125 194 -243 237 -266 36 -18 83 -18 99 1 26 32 6 140 -55 300 -45
118 -61 177 -76 275 -33 213 -60 304 -149 490 -97 207 -110 252 -110 392 0 66
-8 147 -20 210 -25 128 -25 143 0 168 19 19 22 19 58 4 20 -9 76 -23 124 -30
116 -18 224 -59 377 -142 308 -169 1013 -479 1130 -498 51 -8 58 6 31 62 -87
178 -540 643 -1445 1484 -589 547 -728 690 -862 888 -92 134 -123 196 -243
482 -129 306 -296 651 -404 830 l-74 124 36 21 c48 27 75 78 97 180 22 106 43
141 101 167 51 22 74 61 74 125 0 81 17 111 129 227 117 122 144 159 161 226
26 106 51 130 135 130 95 0 130 31 182 163 31 79 80 140 134 168 22 10 87 31
147 44 144 34 166 44 306 134 155 101 175 110 331 161 72 24 215 81 319 127
269 119 426 184 896 368 441 173 573 230 765 330 804 422 879 453 1225 520
196 37 311 70 407 115 72 34 96 52 170 130 110 115 156 133 393 155 184 17
254 39 500 155 202 95 234 107 390 144 143 34 266 77 516 180 279 115 325 155
257 217 -59 53 -154 93 -379 158 -403 116 -642 155 -1169 191 -205 14 -1128
21 -1396 10z"/>
</g>
</svg>
