<?xml version="1.0" standalone="no"?>
<!DOCTYPE svg PUBLIC "-//W3C//DTD SVG 20010904//EN"
 "http://www.w3.org/TR/2001/REC-SVG-20010904/DTD/svg10.dtd">
<svg version="1.0" xmlns="http://www.w3.org/2000/svg"
 width="1386.000000pt" height="1536.000000pt" viewBox="0 0 1386.000000 1536.000000"
 preserveAspectRatio="xMidYMid meet">
<metadata>
Created by potrace 1.16, written by Peter Selinger 2001-2019
</metadata>
<g transform="translate(0.000000,1536.000000) scale(0.100000,-0.100000)"
fill="#FFFFFF" stroke="none">
<path d="M12180 15349 c-30 -4 -199 -24 -375 -44 -439 -50 -481 -64 -707 -242
-122 -96 -187 -166 -384 -413 -183 -229 -228 -306 -352 -597 -74 -173 -93
-231 -187 -578 -128 -469 -203 -692 -290 -866 -53 -105 -82 -144 -224 -303
-429 -483 -616 -668 -784 -779 -153 -101 -217 -157 -517 -453 l-255 -251 -185
-110 c-152 -90 -741 -429 -1095 -631 -283 -160 -896 -674 -1425 -1196 -336
-330 -513 -475 -792 -648 -227 -141 -433 -299 -948 -728 -107 -89 -242 -197
-299 -239 -154 -112 -259 -217 -390 -390 l-116 -153 -195 -112 -195 -111 -216
-216 c-235 -236 -266 -260 -534 -414 -187 -108 -238 -133 -560 -272 -121 -52
-226 -100 -234 -106 -7 -6 -33 -41 -57 -78 -48 -72 -120 -144 -235 -232 -161
-124 -197 -227 -112 -322 l27 -30 218 1 c121 1 215 -2 211 -6 -4 -4 -49 -35
-100 -69 -50 -34 -120 -88 -155 -120 -58 -54 -63 -61 -63 -101 0 -38 5 -47 52
-90 70 -65 154 -95 251 -92 165 4 972 137 1873 307 130 25 239 45 243 45 17 0
-197 -382 -286 -510 -32 -47 -82 -117 -111 -155 -50 -68 -78 -116 -332 -570
-181 -322 -299 -516 -364 -598 -106 -134 -260 -346 -589 -812 -320 -453 -385
-542 -496 -680 -75 -93 -222 -299 -452 -635 -103 -151 -219 -313 -257 -359
-129 -158 -194 -271 -183 -316 3 -13 19 -28 36 -35 40 -17 90 -3 183 51 92 52
140 67 259 80 147 16 208 10 260 -28 55 -39 187 -105 257 -128 61 -20 117 -16
155 11 14 11 49 53 78 94 61 88 333 367 538 553 260 235 385 367 795 847 229
267 606 719 817 980 l134 165 79 27 c71 25 105 44 215 121 19 13 87 58 150 99
343 222 695 535 1092 971 145 158 205 218 256 250 37 23 201 131 365 239 188
125 318 204 350 214 36 11 105 18 227 21 184 6 298 -5 352 -33 27 -14 29 -19
25 -52 -22 -146 -23 -136 18 -169 20 -17 62 -41 94 -53 52 -21 59 -28 85 -79
15 -31 75 -135 132 -232 57 -97 104 -186 104 -198 0 -40 -86 -65 -338 -97
-112 -15 -139 -16 -169 -5 -52 19 -127 17 -164 -5 -41 -24 -86 -80 -95 -119
l-7 -30 32 27 c17 15 46 30 65 33 35 7 111 -9 121 -25 3 -5 -10 -41 -30 -79
-19 -39 -35 -75 -35 -81 0 -6 16 -18 36 -26 29 -12 72 -15 204 -12 l167 3 74
57 c87 66 114 78 175 78 87 0 160 -59 184 -150 20 -75 31 -89 115 -152 44 -33
81 -64 83 -68 1 -4 -4 -49 -13 -100 -8 -52 -13 -95 -11 -97 2 -2 29 31 61 74
32 43 78 97 103 120 l45 42 -7 68 c-3 37 -9 85 -12 105 -5 30 -3 38 9 38 9 0
112 -35 229 -78 l213 -77 485 0 c267 0 505 3 530 6 32 5 51 16 70 37 14 17 35
33 47 36 41 12 138 -17 324 -98 36 -15 37 -15 32 5 -7 26 -92 119 -137 150
-20 13 -36 29 -36 36 0 7 16 28 35 48 33 32 40 35 94 35 33 0 205 -13 383 -30
585 -53 710 -58 784 -30 13 5 27 24 34 44 6 20 16 36 20 36 31 0 124 -48 175
-90 33 -28 64 -50 69 -50 14 0 1 112 -18 152 -10 20 -34 49 -54 65 -43 32
-224 95 -267 92 -184 -12 -717 56 -865 111 -43 16 -130 38 -192 50 -140 26
-173 36 -220 66 -24 15 -52 24 -77 24 -71 0 -122 59 -337 394 -142 222 -163
269 -171 372 -7 93 20 253 53 314 48 89 251 301 408 427 22 18 157 82 315 149
297 127 917 432 1095 538 429 257 782 671 995 1167 144 337 207 674 321 1739
62 577 67 655 81 1230 13 524 7 1030 -13 1130 -17 88 -17 791 0 1035 29 404
57 635 94 785 51 211 109 274 377 408 164 83 204 97 401 136 136 26 211 36
337 40 l162 7 104 -45 c112 -48 208 -80 273 -90 40 -7 41 -7 48 25 38 191 -79
382 -318 520 -37 21 -87 61 -111 87 -27 30 -73 63 -126 91 -46 25 -96 57 -111
72 -16 15 -42 30 -59 34 -44 10 -65 51 -73 144 -17 201 -103 347 -324 545 -55
49 -121 97 -158 116 -110 54 -247 71 -394 49z m-4309 -10564 c114 -41 137 -57
339 -237 304 -270 403 -371 439 -448 48 -102 39 -155 -29 -175 -14 -4 -88 -32
-165 -63 l-140 -55 -190 7 c-277 10 -425 -11 -486 -70 -15 -14 -34 -24 -42
-22 -9 2 -84 140 -177 328 l-162 325 21 80 c31 113 78 210 121 249 42 38 124
72 220 91 104 21 174 18 251 -10z m99 -1093 c0 -56 -33 -64 -148 -36 -37 9
-71 20 -75 24 -13 11 100 38 166 39 56 1 57 1 57 -27z m875 -72 c28 -6 51 -21
78 -51 20 -23 36 -44 34 -46 -2 -2 -19 3 -39 11 -19 8 -113 27 -209 42 -95 14
-183 30 -194 34 -19 8 -19 9 5 19 28 12 256 6 325 -9z"/>
</g>
</svg>
