<?xml version="1.0" standalone="no"?>
<!DOCTYPE svg PUBLIC "-//W3C//DTD SVG 20010904//EN"
 "http://www.w3.org/TR/2001/REC-SVG-20010904/DTD/svg10.dtd">
<svg version="1.0" xmlns="http://www.w3.org/2000/svg"
 width="1536.000000pt" height="1172.000000pt" viewBox="0 0 1536.000000 1172.000000"
 preserveAspectRatio="xMidYMid meet">
<metadata>
Created by potrace 1.16, written by Peter Selinger 2001-2019
</metadata>
<g transform="translate(0.000000,1172.000000) scale(0.100000,-0.100000)"
fill="#FFFFFF" stroke="none">
<path d="M10475 11061 c-6 -5 -50 -12 -100 -15 -156 -9 -214 -17 -226 -32 -6
-8 -26 -14 -45 -14 -18 0 -36 -4 -39 -10 -3 -5 -24 -10 -46 -10 -21 0 -39 -4
-39 -10 0 -5 -18 -10 -39 -10 -22 0 -43 -4 -46 -10 -3 -5 -24 -10 -45 -10 -21
0 -42 -4 -45 -10 -3 -5 -17 -10 -30 -10 -13 0 -27 -4 -30 -10 -3 -5 -23 -10
-44 -10 -20 0 -46 -7 -57 -15 -10 -8 -31 -15 -46 -15 -15 0 -30 -4 -33 -10 -3
-5 -21 -10 -40 -10 -19 0 -37 -4 -40 -10 -3 -5 -19 -10 -35 -10 -16 0 -32 -4
-35 -10 -3 -5 -24 -10 -46 -10 -21 0 -47 -4 -57 -9 -9 -5 -35 -17 -57 -26 -22
-9 -48 -20 -57 -25 -10 -6 -28 -10 -40 -10 -13 0 -38 -9 -56 -20 -18 -11 -40
-20 -48 -20 -9 0 -27 -9 -41 -20 -14 -11 -34 -20 -44 -20 -10 0 -20 -4 -24 -9
-8 -14 -65 -41 -86 -41 -10 0 -34 -9 -54 -20 -20 -11 -44 -20 -55 -20 -10 0
-22 -4 -25 -10 -3 -5 -15 -10 -26 -10 -10 0 -19 -4 -19 -10 0 -5 -8 -10 -17
-11 -10 0 -31 -9 -48 -19 -52 -32 -88 -50 -102 -50 -7 0 -13 -4 -13 -10 0 -5
-13 -10 -30 -10 -16 0 -30 -4 -30 -10 0 -5 -5 -10 -12 -10 -6 0 -26 -11 -44
-25 -18 -14 -40 -25 -48 -25 -8 0 -32 -10 -53 -22 -21 -12 -56 -31 -78 -42
-22 -12 -54 -31 -72 -43 -17 -13 -36 -23 -41 -23 -6 0 -14 -9 -17 -20 -3 -11
-15 -20 -26 -20 -10 0 -19 -4 -19 -9 0 -5 -24 -21 -54 -35 -30 -15 -59 -33
-66 -41 -14 -16 -67 -45 -84 -45 -7 0 -18 -9 -26 -20 -8 -11 -21 -20 -30 -21
-8 0 -28 -9 -45 -19 -16 -11 -49 -28 -72 -40 -23 -11 -44 -24 -48 -29 -7 -13
-64 -41 -82 -41 -7 0 -13 -4 -13 -10 0 -5 -8 -10 -19 -10 -10 0 -27 -11 -37
-25 -10 -14 -26 -25 -35 -25 -9 0 -24 -9 -34 -20 -10 -11 -24 -20 -30 -20 -7
0 -19 -7 -26 -16 -7 -9 -22 -20 -34 -25 -34 -16 -64 -35 -83 -52 -10 -10 -26
-17 -35 -17 -9 0 -17 -4 -17 -8 0 -5 -12 -15 -27 -23 -16 -8 -49 -29 -74 -46
-26 -18 -51 -33 -56 -33 -5 0 -29 -20 -53 -45 -24 -25 -49 -45 -55 -45 -6 0
-24 -13 -40 -30 -16 -16 -34 -30 -40 -30 -6 0 -26 -16 -45 -35 -19 -19 -40
-35 -47 -35 -7 0 -50 -37 -96 -83 -46 -46 -103 -97 -128 -114 -24 -18 -63 -52
-87 -77 -24 -25 -49 -46 -55 -46 -7 0 -28 -16 -47 -35 -19 -19 -38 -35 -43
-35 -6 0 -77 -66 -159 -147 -82 -81 -156 -151 -166 -154 -23 -10 -352 -342
-352 -357 0 -7 -7 -12 -15 -12 -8 0 -15 -6 -15 -13 0 -7 -45 -57 -100 -112
-55 -55 -100 -105 -100 -113 0 -7 -11 -17 -25 -22 -14 -5 -25 -15 -25 -22 0
-8 -38 -51 -85 -98 -47 -47 -85 -91 -85 -98 0 -7 -18 -31 -40 -52 -22 -21 -40
-45 -40 -52 0 -7 -16 -28 -35 -47 -19 -18 -35 -36 -35 -41 0 -4 -16 -25 -35
-46 -19 -21 -35 -43 -35 -49 0 -7 -9 -20 -20 -30 -11 -10 -20 -24 -20 -30 0
-7 -7 -19 -16 -26 -9 -7 -20 -23 -25 -36 -5 -13 -14 -23 -22 -23 -7 0 -26 -25
-42 -55 -17 -30 -33 -55 -37 -55 -5 0 -8 -6 -8 -13 0 -21 -28 -72 -50 -92 -11
-10 -20 -25 -20 -34 0 -9 -9 -27 -20 -41 -11 -14 -20 -33 -20 -42 0 -10 -4
-18 -10 -18 -5 0 -10 -8 -10 -18 0 -10 -9 -24 -20 -32 -11 -8 -20 -22 -20 -30
0 -9 -11 -27 -25 -40 -14 -13 -25 -31 -25 -40 0 -8 -13 -31 -30 -50 -16 -19
-29 -38 -30 -43 0 -4 -16 -30 -35 -57 -19 -27 -35 -55 -35 -61 0 -6 -13 -24
-30 -39 -16 -15 -30 -34 -30 -40 0 -7 -15 -30 -32 -51 -18 -22 -48 -56 -65
-78 -18 -21 -33 -43 -33 -48 0 -5 -16 -24 -35 -43 -19 -19 -35 -39 -35 -45 0
-6 -13 -24 -30 -40 -16 -16 -30 -35 -30 -43 0 -8 -11 -22 -24 -33 -13 -10 -29
-32 -36 -49 -7 -16 -16 -30 -21 -30 -5 0 -9 -8 -9 -18 0 -11 -9 -27 -20 -37
-11 -10 -20 -23 -20 -30 0 -7 -9 -20 -21 -31 -11 -10 -29 -37 -39 -60 -11 -22
-26 -47 -35 -54 -8 -7 -15 -21 -15 -30 0 -10 -4 -20 -8 -22 -9 -3 -50 -73 -99
-169 -19 -37 -43 -75 -53 -84 -11 -10 -20 -24 -20 -32 0 -8 -9 -23 -20 -35
-11 -12 -20 -28 -20 -35 0 -7 -4 -13 -10 -13 -5 0 -10 -8 -10 -19 0 -10 -7
-25 -16 -32 -9 -7 -20 -22 -25 -34 -9 -21 -17 -34 -61 -102 -16 -23 -28 -49
-28 -57 0 -9 -4 -16 -10 -16 -5 0 -10 -8 -11 -17 0 -10 -9 -31 -19 -48 -32
-52 -70 -128 -70 -142 0 -7 -4 -13 -10 -13 -5 0 -10 -9 -10 -20 0 -11 -4 -20
-10 -20 -5 0 -10 -8 -11 -17 0 -10 -9 -31 -19 -48 -32 -52 -70 -128 -70 -142
0 -7 -4 -13 -10 -13 -5 0 -10 -9 -10 -20 0 -11 -4 -20 -10 -20 -5 0 -10 -8
-11 -17 0 -10 -9 -31 -19 -48 -32 -52 -70 -128 -70 -142 0 -7 -4 -13 -10 -13
-5 0 -10 -9 -10 -20 0 -11 -4 -20 -10 -20 -5 0 -10 -8 -11 -17 0 -10 -9 -31
-19 -48 -32 -52 -70 -128 -70 -142 0 -7 -4 -13 -10 -13 -5 0 -10 -9 -10 -20 0
-11 -4 -20 -10 -20 -5 0 -10 -6 -10 -13 0 -18 -28 -75 -41 -82 -5 -4 -9 -16
-9 -29 0 -13 -9 -31 -20 -41 -11 -10 -20 -26 -20 -37 0 -10 -4 -18 -10 -18 -5
0 -10 -6 -10 -14 0 -7 -7 -27 -15 -42 -8 -16 -15 -37 -15 -46 0 -10 -14 -33
-30 -51 -17 -19 -30 -45 -30 -57 0 -13 -9 -30 -20 -40 -11 -9 -27 -33 -35 -53
-8 -20 -28 -51 -44 -70 -20 -23 -29 -43 -29 -65 1 -23 -7 -39 -30 -61 -18 -16
-32 -35 -32 -41 0 -7 -11 -23 -25 -36 -14 -13 -25 -29 -25 -37 0 -8 -9 -22
-20 -32 -11 -10 -20 -23 -20 -28 0 -6 -7 -19 -17 -29 -19 -21 -32 -43 -69
-115 -14 -29 -30 -53 -35 -53 -5 0 -9 -6 -9 -13 0 -7 -9 -23 -20 -35 -11 -12
-20 -27 -20 -35 0 -7 -11 -24 -25 -37 -14 -13 -25 -28 -25 -32 0 -5 -13 -29
-30 -53 -16 -24 -30 -46 -30 -49 0 -4 -16 -29 -35 -56 -19 -27 -35 -57 -35
-65 0 -8 -4 -15 -10 -15 -5 0 -10 -8 -10 -19 0 -10 -7 -24 -15 -31 -9 -7 -25
-32 -35 -55 -10 -23 -26 -47 -34 -54 -18 -15 -46 -68 -46 -88 0 -7 -4 -13 -10
-13 -5 0 -10 -9 -10 -20 0 -11 -4 -20 -10 -20 -5 0 -10 -9 -10 -19 0 -11 -4
-23 -10 -26 -5 -3 -10 -17 -10 -29 0 -13 -11 -40 -25 -60 -14 -20 -25 -43 -25
-51 0 -8 -4 -15 -10 -15 -5 0 -10 -9 -10 -20 0 -11 -4 -20 -10 -20 -5 0 -10
-9 -10 -20 0 -12 -8 -33 -17 -47 -10 -15 -19 -41 -20 -60 -1 -22 -13 -44 -37
-68 -20 -20 -36 -41 -36 -48 -1 -7 -21 -32 -45 -57 -25 -25 -45 -50 -45 -55 0
-6 -34 -44 -75 -85 -41 -41 -75 -79 -75 -85 0 -14 -90 -100 -113 -108 -9 -4
-17 -16 -17 -30 0 -13 -13 -36 -30 -52 -16 -16 -30 -34 -30 -40 0 -6 -12 -22
-26 -36 -14 -13 -40 -44 -57 -69 -17 -25 -45 -60 -64 -78 -18 -18 -33 -39 -33
-47 0 -8 -4 -15 -9 -15 -5 0 -16 -15 -25 -34 -8 -18 -22 -39 -31 -46 -8 -7
-15 -18 -15 -24 0 -7 -14 -25 -31 -42 -17 -16 -37 -44 -46 -61 -8 -18 -22 -33
-30 -33 -9 0 -12 -6 -9 -18 4 -11 -3 -24 -19 -36 -14 -10 -25 -27 -25 -37 0
-11 -4 -19 -10 -19 -5 0 -10 -7 -10 -15 0 -8 -9 -30 -20 -50 -11 -20 -20 -44
-20 -55 0 -10 -4 -22 -10 -25 -5 -3 -10 -15 -10 -26 0 -14 7 -19 29 -19 17 0
33 5 36 10 3 6 16 10 29 10 13 0 31 9 41 20 10 11 25 20 34 20 9 0 25 11 35
25 10 14 27 25 37 25 18 0 23 10 19 39 -2 19 40 61 62 61 10 0 18 5 18 10 0 6
11 20 25 32 14 12 25 28 25 35 0 7 8 13 18 13 21 0 132 112 132 133 0 7 22 35
50 62 43 43 50 46 56 30 5 -11 3 -20 -4 -23 -7 -2 -12 -13 -12 -25 0 -29 -23
-94 -38 -109 -7 -7 -12 -25 -12 -40 0 -15 -4 -28 -10 -28 -5 0 -10 -13 -10
-28 0 -16 -9 -37 -20 -47 -11 -10 -20 -31 -20 -47 0 -15 -4 -28 -9 -28 -5 0
-11 -19 -14 -42 -3 -24 -9 -58 -12 -76 -7 -32 -7 -32 31 -32 29 0 46 7 69 30
18 18 45 32 65 34 19 3 37 5 40 5 2 1 -1 6 -8 13 -10 10 3 28 60 85 40 40 79
73 86 73 8 0 12 6 8 15 -3 8 7 29 22 48 15 17 34 44 41 60 8 15 23 27 33 27
10 0 18 6 18 14 0 14 97 116 111 116 5 0 14 9 21 20 7 11 18 20 24 20 19 0 45
35 34 46 -7 7 4 25 30 54 22 24 40 49 40 56 0 6 11 20 25 30 14 10 25 27 25
36 0 10 6 18 13 18 18 1 117 99 117 116 0 8 13 23 30 32 16 9 30 21 30 26 0 4
37 46 82 92 46 46 85 91 88 100 8 21 422 434 435 434 6 0 26 16 45 35 19 19
39 35 45 35 6 0 29 18 50 41 22 22 51 46 65 53 43 22 73 40 94 59 11 9 25 17
31 17 6 0 31 20 55 45 24 25 49 45 56 45 6 0 19 9 29 20 10 11 23 20 29 20 5
0 22 11 36 25 29 28 62 25 58 -4 -3 -14 10 -16 86 -19 53 -2 93 1 100 8 5 5
23 10 38 10 16 0 45 7 65 15 19 8 50 15 68 15 29 0 55 10 137 51 10 5 29 9 43
9 13 0 39 9 57 20 18 11 40 20 48 20 8 0 28 7 44 15 15 8 36 15 45 15 9 0 22
5 28 11 6 6 49 12 94 14 113 5 192 15 204 26 15 15 45 10 45 -7 0 -9 6 -14 13
-11 6 2 11 11 11 20 -1 9 21 39 49 67 47 47 71 60 79 42 2 -4 16 -18 32 -30
16 -12 34 -32 40 -44 15 -30 57 -37 158 -28 81 8 84 7 103 -17 20 -25 21 -25
63 -8 23 10 42 21 42 26 0 4 9 13 20 19 16 8 28 6 59 -12 l40 -23 31 24 c28
20 35 21 61 11 16 -7 36 -10 44 -6 9 3 24 -3 36 -15 15 -15 27 -19 42 -14 12
4 33 9 47 12 14 3 38 20 55 37 45 47 105 73 105 46 0 -5 11 -10 24 -10 13 0
29 -7 36 -15 11 -13 15 -13 33 0 44 31 124 16 197 -36 14 -10 50 -20 80 -23
30 -3 47 -3 38 0 -10 3 -18 10 -18 15 0 13 37 11 45 -2 5 -7 14 -4 29 8 30 26
87 65 89 61 1 -1 8 -13 14 -25 7 -12 10 -29 7 -37 -3 -8 3 -19 15 -26 24 -12
41 -6 41 15 0 7 15 22 33 34 17 11 40 26 50 33 15 11 21 9 38 -12 18 -23 20
-24 30 -8 5 10 15 18 22 18 7 0 23 9 37 20 16 12 41 20 67 20 23 0 45 5 48 10
3 5 17 10 30 10 27 0 85 30 85 45 1 17 48 46 55 34 5 -6 18 2 35 23 l29 33 39
-22 c44 -25 52 -19 52 33 0 19 5 24 25 24 13 0 33 9 43 21 14 14 26 18 45 14
22 -6 25 -4 20 13 -7 29 31 49 47 25 9 -15 10 -13 5 10 -5 26 -4 27 15 17 12
-7 19 -18 16 -25 -3 -8 -1 -17 3 -20 5 -2 11 4 14 15 7 27 47 27 47 0 0 -11 3
-20 6 -20 20 0 144 108 144 126 0 6 9 19 19 28 29 26 36 2 11 -34 -15 -21 -17
-30 -8 -30 15 0 68 43 68 56 0 5 27 38 60 74 l60 65 15 -23 c16 -22 45 -30 45
-12 0 6 6 10 14 10 8 0 17 8 20 18 3 9 21 29 40 45 l35 27 34 -35 c39 -40 87
-49 87 -15 0 10 -8 24 -17 30 -15 9 -14 10 9 6 20 -5 31 0 46 19 25 32 32 17
32 -69 0 -58 2 -64 36 -97 20 -18 40 -43 45 -54 31 -65 70 -115 89 -115 8 0
20 -8 27 -19 12 -20 39 -29 118 -39 41 -6 49 -10 47 -25 -2 -11 4 -27 14 -38
9 -10 14 -25 11 -32 -3 -8 5 -31 19 -50 13 -20 24 -45 24 -55 0 -26 23 -34 80
-26 46 6 47 6 64 -30 15 -31 22 -36 51 -36 19 0 37 -4 40 -10 3 -5 14 -10 24
-10 10 0 26 -9 36 -20 10 -11 26 -20 36 -20 10 0 21 -4 24 -10 3 -5 16 -10 29
-10 12 0 28 -6 34 -12 9 -9 54 -14 132 -17 125 -3 190 8 275 50 22 10 46 19
53 19 23 0 12 51 -20 90 l-31 40 -134 -1 -134 -1 -40 43 c-32 35 -39 49 -39
84 0 55 22 75 84 75 26 0 55 -4 64 -8 9 -5 36 -3 60 3 33 8 40 13 30 23 -7 7
-20 12 -29 12 -10 0 -40 11 -67 25 -28 14 -62 25 -76 25 -14 0 -34 4 -44 9 -9
5 -34 17 -54 27 -21 10 -38 22 -38 26 0 5 -9 8 -20 8 -11 0 -28 4 -38 9 -9 5
-33 16 -53 25 -20 9 -42 22 -49 31 -7 8 -18 15 -25 15 -18 0 -48 37 -40 49 3
6 -2 23 -12 39 -53 77 -57 145 -14 224 68 125 101 193 101 210 0 9 5 20 10 23
6 3 10 21 10 39 0 39 8 50 26 35 11 -9 15 -7 20 6 8 19 -3 31 -31 37 -17 3
-15 6 14 21 19 9 40 17 48 17 7 0 13 5 13 10 0 6 17 10 38 10 27 0 45 7 60 23
12 13 54 38 94 56 40 19 81 37 90 42 10 5 24 9 33 9 8 0 31 10 52 21 34 19
174 72 228 86 11 2 29 9 40 13 11 5 52 19 90 30 63 19 102 34 200 75 62 25
103 35 148 35 47 0 97 -16 97 -32 0 -4 13 -8 29 -8 48 0 81 -52 81 -128 0 -33
5 -64 10 -67 12 -7 14 -135 2 -135 -16 0 -32 -90 -33 -192 -1 -60 -5 -108 -10
-108 -9 0 -6 -427 4 -436 4 -4 7 -20 7 -35 0 -15 4 -30 9 -34 6 -3 10 -33 10
-66 0 -34 4 -66 10 -72 6 -6 11 -23 11 -38 0 -15 5 -31 10 -34 6 -3 10 -15 10
-26 0 -20 47 -101 61 -107 5 -2 9 -8 9 -14 0 -5 9 -23 20 -38 11 -16 19 -33
18 -37 -8 -26 34 -86 106 -151 102 -92 151 -132 163 -132 6 0 18 -9 28 -20 10
-11 28 -20 40 -20 11 0 25 -4 30 -9 27 -26 316 -44 330 -21 3 6 18 10 33 10
21 0 30 7 38 28 16 41 7 52 -39 52 -35 0 -45 -5 -58 -28 -8 -15 -27 -33 -42
-41 -38 -20 -75 1 -99 56 -17 38 -23 43 -52 43 -18 0 -41 8 -52 18 -28 26
-174 125 -209 142 -16 8 -32 16 -34 17 -2 1 2 9 9 18 8 10 9 15 1 15 -6 0 -11
9 -11 19 0 11 -4 22 -9 26 -13 8 -41 65 -41 84 0 9 -9 27 -20 41 -36 46 -21
94 43 133 24 16 27 23 27 71 0 35 -5 58 -15 66 -8 7 -15 18 -15 24 0 7 -16 28
-36 47 -19 18 -48 52 -63 74 -24 36 -26 45 -18 90 5 28 8 64 6 80 -2 17 -3 77
-3 135 1 92 4 112 27 163 22 46 27 73 27 132 0 40 5 77 10 80 6 3 10 20 10 36
0 16 18 67 40 114 22 47 40 89 40 95 0 5 5 10 10 10 6 0 15 11 20 25 5 14 15
25 21 25 6 0 20 10 31 22 17 20 19 32 13 84 -6 58 -5 63 21 83 20 16 41 21 86
21 34 0 82 9 116 21 120 43 163 50 277 46 61 -2 137 -11 170 -20 63 -17 263
-31 281 -19 14 9 84 119 84 132 0 5 14 17 31 25 17 9 44 29 60 45 27 25 110
71 164 91 11 4 34 12 51 19 21 8 62 9 120 5 49 -3 131 -7 182 -8 53 -1 92 -6
92 -12 0 -5 9 -21 20 -35 22 -28 27 -99 9 -117 -18 -18 -3 -43 25 -43 29 0 56
33 56 70 0 15 -14 52 -30 82 -29 54 -30 59 -23 135 l8 78 84 3 c75 3 85 1 98
-18 8 -11 23 -20 34 -20 14 0 19 -7 19 -29 0 -17 5 -33 10 -36 6 -3 10 -17 10
-30 0 -31 31 -94 46 -95 12 0 22 24 30 75 7 41 7 60 -3 129 -8 57 -10 61 -53
87 -25 15 -53 28 -62 28 -10 1 -18 6 -18 11 0 6 -9 10 -19 10 -11 0 -23 5 -26
10 -4 6 -92 10 -231 10 -143 0 -224 -4 -224 -10 0 -5 -22 -10 -49 -10 -28 0
-52 -4 -55 -8 -3 -5 -47 -9 -98 -11 -55 -1 -95 -7 -100 -13 -5 -9 -10 -8 -21
1 -10 8 -17 9 -22 1 -8 -13 -325 -14 -325 0 0 6 7 10 16 10 35 0 60 49 39 77
-8 10 -15 24 -15 32 0 7 -23 35 -52 62 -45 42 -58 49 -94 49 -79 0 -264 -78
-264 -112 0 -13 -7 -18 -28 -18 -42 0 -82 -46 -82 -94 0 -32 -3 -36 -18 -32
-12 4 -26 -1 -37 -14 -13 -14 -31 -20 -61 -20 -24 0 -46 -4 -49 -10 -4 -6 -84
-10 -209 -10 -132 0 -206 -4 -213 -11 -8 -8 -13 -8 -17 0 -4 6 -37 11 -75 11
-77 0 -120 15 -171 59 -19 17 -40 31 -47 31 -6 0 -13 4 -15 8 -4 11 -66 56
-111 81 -27 15 -55 21 -100 21 -57 0 -87 11 -87 31 0 4 10 9 23 11 16 2 21 9
19 24 -2 12 10 44 26 71 17 28 33 59 36 71 4 11 18 27 31 36 14 9 48 49 77 89
122 170 200 267 277 344 44 45 81 87 81 94 0 20 168 282 230 359 43 54 191
253 205 278 6 9 22 35 36 57 14 22 52 89 83 150 31 60 66 119 77 132 12 12 31
43 43 70 29 62 91 160 126 198 38 43 94 124 111 163 7 17 17 32 21 32 5 0 8 9
8 20 0 11 4 20 10 20 5 0 17 16 26 35 9 19 20 35 25 35 5 0 9 8 9 18 0 11 9
27 20 37 11 10 20 28 20 40 0 11 16 36 35 55 19 19 35 38 35 43 0 6 23 34 50
63 28 29 50 57 50 62 0 10 106 92 119 92 11 0 57 52 64 73 4 9 13 17 21 17 8
0 19 8 24 17 9 16 63 52 107 72 11 5 31 21 44 35 14 14 29 26 35 26 6 0 24 11
40 25 16 14 32 25 36 25 3 0 15 8 26 18 26 23 70 49 119 71 22 10 46 26 54 34
7 9 29 19 50 23 20 4 45 15 56 25 11 10 45 31 75 46 30 16 60 39 66 51 13 27
122 132 138 133 6 1 15 1 19 0 22 -4 67 35 67 57 0 21 3 23 30 17 26 -6 30 -4
30 13 0 19 73 92 92 92 5 0 14 5 21 10 76 64 213 140 251 140 8 0 18 5 21 10
3 6 26 10 50 10 58 0 175 18 246 37 43 12 61 13 77 4 26 -14 199 -15 207 -1 4
6 53 10 115 10 62 0 111 4 115 10 3 6 46 10 94 10 48 0 91 4 96 9 13 11 142
31 204 31 27 0 53 5 56 10 3 6 28 10 54 10 31 0 53 5 61 15 7 9 29 15 51 15
22 0 48 5 59 10 11 6 29 15 40 20 11 6 33 10 49 10 17 0 33 5 37 11 3 6 19 9
34 6 16 -4 35 0 46 8 11 8 29 15 41 15 12 0 25 5 29 11 4 7 20 8 41 4 29 -5
34 -4 31 12 -2 12 4 19 20 21 12 2 22 8 22 13 0 5 25 9 56 9 54 0 55 0 52 28
-2 21 -9 28 -30 30 -14 2 -32 10 -38 18 -7 8 -23 14 -35 14 -12 0 -28 7 -35
15 -9 11 -23 14 -45 9 -19 -3 -35 -1 -39 5 -4 6 -25 11 -47 11 -21 0 -39 5
-39 10 0 6 -17 10 -38 10 -21 0 -42 4 -47 9 -9 9 -26 11 -150 27 -27 3 -54 10
-60 15 -5 5 -30 9 -56 9 -27 0 -51 6 -58 14 -7 9 -46 16 -114 20 -97 6 -166
14 -302 34 -33 5 -79 7 -101 4 -25 -2 -44 0 -48 7 -5 7 -56 11 -151 11 -85 0
-146 4 -150 10 -3 6 -16 10 -28 10 -26 0 -89 21 -108 36 -8 6 -30 18 -50 27
-20 9 -42 23 -49 32 -8 10 -31 15 -70 15 -59 0 -90 18 -90 53 0 24 -22 69 -48
97 -13 14 -28 35 -33 48 -4 12 -15 22 -23 22 -7 0 -32 29 -55 64 -44 68 -68
92 -103 110 -13 6 -27 21 -33 32 -13 26 -35 48 -57 57 -10 3 -18 13 -18 22 0
8 -6 15 -13 15 -15 0 -65 51 -91 93 -9 15 -25 31 -34 34 -9 4 -30 17 -45 30
-16 13 -38 23 -49 23 -11 0 -37 18 -58 40 -21 22 -44 40 -50 40 -6 0 -26 11
-43 24 -41 31 -145 86 -163 86 -8 0 -14 5 -14 10 0 6 -9 10 -20 10 -11 0 -20
5 -20 10 0 6 -8 10 -19 10 -10 0 -24 7 -31 15 -7 8 -23 15 -36 15 -12 0 -26 5
-29 10 -3 6 -17 10 -31 10 -13 0 -32 4 -42 9 -9 5 -28 13 -42 19 -14 5 -50 22
-81 36 -31 14 -68 26 -82 26 -15 0 -27 5 -27 10 0 6 -13 10 -29 10 -17 0 -33
5 -36 10 -3 6 -24 10 -46 10 -21 0 -39 5 -39 10 0 6 -15 10 -33 10 -18 0 -37
4 -42 9 -6 5 -30 12 -55 15 -110 14 -136 19 -150 31 -17 15 -92 24 -265 31
-66 3 -124 9 -129 15 -13 12 -249 12 -261 0z m683 -5823 c7 -7 12 -24 12 -38
0 -14 5 -31 11 -37 6 -6 9 -28 7 -49 -4 -53 -35 -67 -168 -75 -58 -4 -114 -8
-124 -10 -38 -8 -26 20 17 40 24 11 50 27 57 36 7 8 24 15 37 15 16 0 27 7 30
20 3 10 20 28 39 39 24 15 34 27 34 46 0 27 26 35 48 13z m-1358 -48 c5 -8 4
-22 -1 -32 -8 -15 -23 -18 -87 -18 -79 0 -110 9 -98 29 4 6 0 14 -8 17 -9 3
-16 11 -16 16 0 17 200 4 210 -12z"/>
</g>
</svg>
