<?xml version="1.0" standalone="no"?>
<!DOCTYPE svg PUBLIC "-//W3C//DTD SVG 20010904//EN"
 "http://www.w3.org/TR/2001/REC-SVG-20010904/DTD/svg10.dtd">
<svg version="1.0" xmlns="http://www.w3.org/2000/svg"
 width="1536.000000pt" height="1122.000000pt" viewBox="0 0 1536.000000 1122.000000"
 preserveAspectRatio="xMidYMid meet">
<metadata>
Created by potrace 1.16, written by Peter Selinger 2001-2019
</metadata>
<g transform="translate(0.000000,1122.000000) scale(0.100000,-0.100000)"
fill="#FFFFFF" stroke="none">
<path d="M7430 11198 c-2 -112 -32 -518 -41 -550 -6 -24 -37 -113 -69 -198
-32 -85 -88 -239 -124 -343 -98 -278 -234 -589 -404 -921 -128 -251 -152 -283
-242 -329 -116 -58 -212 -79 -365 -80 -128 0 -134 1 -390 66 -143 36 -339 84
-435 106 -379 88 -644 173 -1149 368 -308 119 -343 137 -442 226 -148 133
-203 178 -364 300 -193 145 -408 289 -528 351 -82 43 -93 46 -165 46 -91 0
-104 6 -297 120 -168 100 -559 300 -633 324 -49 17 -54 17 -78 1 -36 -23 -46
-59 -42 -145 6 -137 73 -232 305 -427 62 -53 112 -97 110 -100 -2 -2 -108 35
-236 82 -490 179 -764 265 -851 265 -47 0 -66 -17 -75 -69 -15 -88 31 -169
184 -324 138 -142 225 -206 399 -296 78 -40 141 -76 138 -78 -11 -12 -315 59
-696 162 -117 32 -275 47 -399 38 -78 -5 -98 -10 -122 -30 -39 -33 -49 -77
-38 -162 24 -194 158 -300 549 -437 209 -73 220 -69 -110 -38 -234 23 -384 8
-493 -48 -55 -27 -167 -139 -167 -165 0 -26 94 -120 185 -185 169 -120 348
-182 700 -244 118 -21 116 -22 -100 -59 -365 -64 -854 -191 -919 -238 -9 -7
-20 -31 -23 -54 -7 -54 19 -97 99 -164 153 -128 356 -177 863 -210 99 -6 181
-13 183 -14 2 -1 -86 -32 -195 -69 -341 -113 -484 -179 -576 -265 -50 -47 -87
-106 -87 -140 0 -10 16 -33 35 -50 93 -81 299 -152 579 -200 65 -11 120 -22
122 -23 2 -2 -17 -32 -41 -67 -24 -35 -56 -95 -71 -134 l-27 -71 54 -50 c68
-62 133 -103 231 -145 94 -41 116 -63 127 -129 17 -110 110 -194 341 -309 85
-42 204 -110 264 -151 169 -115 268 -159 406 -182 126 -21 166 -33 254 -77 49
-25 144 -65 210 -90 67 -24 216 -91 331 -148 244 -120 268 -129 429 -157 67
-11 128 -24 137 -29 9 -4 50 -36 90 -70 107 -90 114 -92 320 -90 157 1 187 -1
282 -24 59 -14 150 -30 202 -34 76 -6 100 -12 118 -29 63 -60 144 -65 337 -22
74 16 147 30 161 30 15 0 86 -18 159 -41 177 -55 220 -53 381 19 114 51 117
52 213 52 l98 0 -119 -91 c-198 -154 -235 -190 -287 -281 -56 -99 -78 -177
-106 -387 -27 -206 -26 -243 4 -278 29 -34 42 -25 27 18 -13 37 -15 89 -3 89
4 0 20 -40 34 -88 34 -111 80 -181 131 -201 20 -7 40 -11 44 -8 3 4 -6 24 -20
44 -35 51 -45 82 -40 118 3 17 -7 65 -21 109 -18 54 -26 100 -26 148 0 74 17
158 31 158 5 0 9 -3 9 -7 0 -5 7 -56 15 -114 17 -132 37 -178 88 -203 21 -10
41 -16 43 -13 3 3 -6 25 -20 50 -19 32 -26 58 -26 97 0 30 -5 69 -12 87 -10
29 -10 36 2 44 23 15 83 2 103 -22 22 -27 23 -129 2 -189 -18 -51 -18 -50 -2
-50 22 0 65 53 76 95 18 65 13 100 -30 227 -22 66 -45 156 -52 199 -10 73 -9
83 8 115 31 57 178 186 350 307 74 51 303 173 310 165 2 -2 -30 -64 -72 -138
-228 -409 -810 -1581 -889 -1791 -23 -63 -28 -91 -29 -189 -2 -114 -2 -117
-75 -335 l-72 -220 6 -85 c6 -87 30 -175 62 -227 38 -61 66 -82 123 -93 115
-22 104 -12 97 -88 -4 -37 -2 -82 3 -101 24 -80 89 -137 187 -166 30 -8 58
-23 63 -33 5 -9 16 -51 24 -92 32 -157 86 -248 169 -291 21 -11 76 -24 120
-29 123 -14 122 -13 183 -267 l27 -113 -27 -137 c-59 -304 -48 -507 33 -596
43 -48 202 -104 328 -116 l77 -7 36 78 c19 43 38 78 41 78 3 0 27 -43 54 -96
26 -52 59 -102 71 -110 13 -8 47 -18 77 -21 51 -5 55 -4 114 40 91 69 145 133
196 232 100 194 118 299 93 525 -31 270 -31 283 5 393 l31 97 127 -6 c118 -6
130 -5 170 15 57 29 119 86 142 130 24 49 57 158 71 237 l11 66 60 -6 c71 -8
109 10 158 77 51 70 70 150 80 347 5 96 14 190 19 208 24 82 64 116 184 158
68 24 144 95 158 147 16 56 47 83 115 98 l57 13 -6 150 c-4 122 -11 174 -35
271 -46 181 -126 415 -265 770 -135 346 -204 530 -260 695 -35 100 -157 486
-157 494 0 6 88 -28 166 -64 83 -37 207 -123 249 -172 18 -21 35 -53 39 -70 9
-47 -11 -152 -54 -278 -43 -124 -50 -193 -26 -251 15 -36 62 -86 72 -77 3 3
-2 40 -10 82 -18 87 -13 152 15 166 10 6 39 10 64 10 l47 0 -7 -37 c-4 -21
-11 -63 -15 -93 -9 -60 -21 -92 -46 -127 -16 -22 -15 -23 3 -23 11 0 32 9 47
21 43 34 67 93 76 190 5 48 13 96 19 106 9 16 12 14 25 -19 24 -55 21 -179 -6
-248 -12 -32 -21 -81 -22 -115 -1 -50 -7 -69 -35 -113 -18 -29 -31 -55 -28
-59 12 -11 67 20 99 55 41 48 80 135 86 194 2 26 8 48 12 48 16 0 20 -33 9
-76 -7 -25 -9 -47 -6 -51 12 -11 36 18 53 63 17 45 17 54 -10 179 -8 39 -22
123 -30 188 -15 120 -26 150 -96 277 -16 30 -55 78 -86 106 l-56 51 45 6 c25
4 84 25 131 49 l85 42 123 -12 c68 -7 150 -19 183 -28 33 -8 69 -17 80 -20 13
-4 38 7 70 28 l49 34 92 -27 c194 -58 307 -61 469 -12 l90 28 337 0 338 0 52
61 53 62 105 6 c176 10 273 23 322 45 89 38 177 141 178 208 0 12 5 23 11 25
6 2 56 -2 112 -9 167 -22 230 -2 380 117 97 77 116 85 179 76 168 -23 160 -24
328 44 263 106 312 139 373 255 l32 60 110 6 c83 5 126 13 177 32 173 66 278
177 278 295 0 27 3 32 18 28 101 -29 208 -10 307 54 61 40 155 129 155 148 0
14 -51 79 -129 166 -39 43 -69 81 -67 84 3 2 26 -3 52 -12 26 -9 69 -16 95
-16 126 0 421 83 584 165 l80 40 0 57 c0 53 -3 61 -39 97 -44 45 -175 113
-371 191 -180 72 -406 172 -401 178 3 2 68 -1 146 -8 169 -15 436 -9 600 15
119 17 251 56 403 120 131 56 150 71 160 130 8 48 7 51 -23 77 -39 32 -235
139 -310 168 -45 18 -271 69 -667 152 -29 6 -53 14 -53 18 0 3 62 14 138 24
263 34 622 117 736 171 112 53 297 191 357 266 27 35 30 44 21 64 -35 76 -338
151 -662 163 l-165 7 125 44 c346 123 451 195 540 374 50 98 51 120 8 140
-128 59 -261 80 -513 81 -115 1 -239 -3 -275 -7 l-65 -8 95 59 c115 73 204
151 230 203 26 50 36 167 21 240 -19 91 -18 91 -151 78 -123 -11 -385 -48
-730 -103 -118 -19 -216 -33 -218 -31 -2 1 34 25 78 51 45 27 95 65 111 86 50
62 93 166 97 234 5 72 20 61 -145 98 l-112 25 -428 -150 c-235 -83 -462 -160
-505 -171 -76 -21 -79 -21 -137 -3 -139 42 -187 21 -731 -320 -391 -245 -533
-323 -730 -405 -69 -29 -249 -112 -402 -186 -303 -147 -379 -175 -603 -228
-387 -90 -1114 -239 -1245 -255 -146 -19 -198 4 -307 131 -110 128 -140 205
-263 673 -88 333 -112 410 -160 505 -64 129 -137 227 -223 299 -198 164 -258
267 -383 644 -52 157 -74 205 -74 165z"/>
</g>
</svg>
