<?xml version="1.0" standalone="no"?>
<!DOCTYPE svg PUBLIC "-//W3C//DTD SVG 20010904//EN"
 "http://www.w3.org/TR/2001/REC-SVG-20010904/DTD/svg10.dtd">
<svg version="1.0" xmlns="http://www.w3.org/2000/svg"
 width="1286.000000pt" height="1536.000000pt" viewBox="0 0 1286.000000 1536.000000"
 preserveAspectRatio="xMidYMid meet">
<metadata>
Created by potrace 1.16, written by Peter Selinger 2001-2019
</metadata>
<g transform="translate(0.000000,1536.000000) scale(0.100000,-0.100000)"
fill="#FFFFFF" stroke="none">
<path d="M551 15341 c-27 -27 -28 -88 -1 -173 26 -84 25 -93 -12 -121 -47 -34
-62 -39 -162 -47 -86 -6 -91 -8 -118 -40 -28 -34 -61 -121 -73 -195 -9 -54
-28 -72 -91 -85 -79 -17 -98 -44 -90 -135 7 -87 52 -241 110 -377 58 -135 181
-394 476 -1003 480 -990 592 -1240 620 -1380 31 -155 43 -282 37 -389 -7 -110
-16 -152 -70 -326 -71 -233 -103 -522 -94 -869 6 -271 27 -414 118 -844 l41
-189 -23 -24 c-38 -41 -170 -100 -273 -124 -116 -26 -141 -49 -180 -168 -31
-91 -65 -144 -126 -193 -132 -106 -178 -172 -220 -319 -27 -94 -38 -298 -20
-383 10 -50 17 -61 48 -82 83 -54 297 -106 892 -215 421 -78 537 -103 590
-130 35 -18 101 -84 310 -309 148 -160 232 -231 366 -310 187 -109 267 -164
329 -226 108 -108 174 -232 212 -397 27 -121 22 -355 -13 -563 -39 -236 -40
-401 -2 -535 30 -105 104 -303 145 -389 17 -36 130 -478 317 -1241 l292 -1185
-52 -3 c-69 -4 -227 29 -297 62 -31 15 -79 49 -107 76 -33 32 -66 54 -93 61
-115 31 -311 -35 -380 -129 -14 -18 -42 -45 -64 -60 -128 -87 -245 -320 -242
-478 1 -33 4 -48 6 -34 10 59 27 91 71 132 62 58 124 93 197 113 69 18 99 13
170 -24 44 -23 61 -26 140 -25 55 1 106 7 132 17 l42 16 153 -72 c84 -40 213
-97 287 -127 172 -71 206 -100 215 -185 15 -137 17 -146 60 -208 26 -38 89
-103 163 -167 118 -103 308 -310 424 -463 56 -74 58 -80 53 -121 -13 -92 84
-168 157 -124 17 11 22 10 40 -12 40 -51 99 -189 132 -309 19 -68 37 -119 40
-114 19 31 37 139 37 224 0 123 -33 259 -94 383 -24 50 -43 92 -42 93 2 3 273
-205 407 -313 63 -51 141 -122 173 -158 79 -91 143 -121 253 -121 72 0 84 3
106 24 24 21 28 22 64 10 51 -16 152 -120 233 -239 71 -105 80 -104 60 8 -25
148 -106 259 -334 462 -116 103 -156 129 -198 130 -36 0 -322 224 -443 346
-49 50 -142 131 -205 179 -183 140 -220 183 -329 379 l-33 59 47 -7 c167 -25
403 -101 485 -156 57 -38 113 -39 204 -5 98 37 154 34 252 -14 43 -21 102 -57
131 -80 29 -22 55 -41 58 -41 3 0 5 15 5 33 0 90 -50 163 -149 219 -31 17 -79
55 -108 84 -68 69 -116 83 -321 94 -143 7 -170 12 -297 49 -174 52 -308 105
-360 142 -22 16 -68 47 -103 70 -78 51 -106 98 -132 218 -24 113 -75 213 -147
292 l-53 57 -195 853 c-107 470 -210 924 -230 1009 -21 90 -34 167 -31 184 3
15 35 76 71 135 102 167 123 280 134 713 l6 267 28 29 c43 45 103 58 201 44
209 -30 353 -25 789 28 305 38 290 43 301 -110 11 -160 80 -487 131 -630 66
-182 148 -243 329 -246 l99 -2 657 -872 657 -872 11 -88 c18 -129 16 -193 -7
-221 l-18 -23 -334 12 c-184 7 -384 15 -445 19 l-112 6 -49 -46 c-40 -38 -52
-44 -67 -35 -86 48 -311 -73 -367 -197 -18 -40 -24 -86 -13 -97 3 -4 21 4 41
18 47 32 96 39 170 27 83 -15 158 -51 221 -107 49 -43 56 -46 108 -46 39 0 79
9 131 30 70 28 78 29 117 18 30 -10 159 -13 498 -13 l456 0 27 -25 c15 -14 54
-80 86 -147 33 -68 69 -132 81 -143 12 -11 53 -32 92 -46 115 -44 118 -47 140
-139 12 -48 13 -50 45 -47 41 3 59 -11 82 -63 20 -43 25 -156 10 -232 -5 -24
-4 -43 0 -43 15 0 74 100 102 172 23 55 86 261 98 319 3 12 56 -33 178 -148
95 -90 201 -182 235 -205 33 -23 93 -74 131 -114 85 -89 120 -102 159 -59 l26
28 113 -114 c121 -121 224 -253 300 -383 45 -77 46 -78 54 -50 4 16 7 70 6
119 -2 149 -48 276 -190 527 -51 90 -59 99 -108 123 -30 14 -57 25 -61 25 -19
0 -76 55 -94 90 -24 46 -65 70 -171 100 -41 11 -80 28 -87 37 -54 77 -174 232
-229 298 -38 43 -61 75 -53 70 8 -5 52 -33 98 -62 130 -83 175 -103 250 -109
37 -4 96 -15 132 -26 55 -16 71 -17 108 -7 59 16 121 -2 170 -51 21 -21 64
-87 96 -146 32 -60 79 -138 105 -174 44 -62 46 -64 49 -36 8 67 -74 338 -148
487 -69 139 -96 165 -144 134 -13 -9 -26 -12 -28 -6 -9 27 -378 160 -658 236
-94 26 -256 92 -298 121 -32 22 -84 96 -207 294 -149 239 -199 286 -349 324
-32 9 -60 17 -61 18 -1 2 -110 154 -242 338 -416 582 -733 1020 -839 1163 -57
76 -109 148 -116 160 -8 13 -15 85 -19 182 -7 171 -14 203 -90 449 -83 263
-65 323 139 476 130 98 222 138 635 280 648 223 921 327 1119 426 681 341
1724 1159 1995 1566 78 118 197 351 283 553 191 454 425 1148 572 1700 28 106
62 210 76 235 38 65 139 163 199 194 92 46 132 41 696 -83 345 -76 756 -156
764 -147 9 9 -110 103 -193 152 -219 129 -511 238 -1029 385 -601 170 -635
184 -668 258 -25 57 -18 133 22 236 35 92 116 232 145 250 44 29 601 120 916
150 188 18 543 24 704 12 l110 -9 -26 34 c-32 42 -145 128 -218 167 -76 41
-244 95 -360 117 -78 15 -152 18 -420 19 -279 1 -336 4 -400 19 -102 25 -118
35 -232 137 -303 271 -647 523 -880 642 -321 165 -694 216 -1483 204 -366 -6
-449 -15 -664 -73 -280 -77 -513 -176 -1108 -472 -499 -249 -693 -388 -1083
-782 -165 -166 -217 -212 -262 -233 -32 -15 -196 -66 -365 -113 -493 -136
-509 -141 -693 -220 -273 -116 -457 -222 -890 -513 -135 -90 -290 -195 -346
-232 -121 -81 -140 -88 -177 -59 -41 33 -86 138 -196 463 -56 163 -126 354
-156 424 -114 264 -303 571 -566 919 -207 275 -271 383 -867 1491 -395 733
-441 813 -534 933 -119 153 -182 197 -298 207 -49 5 -60 3 -79 -16z"/>
</g>
</svg>
