<?xml version="1.0" standalone="no"?>
<!DOCTYPE svg PUBLIC "-//W3C//DTD SVG 20010904//EN"
 "http://www.w3.org/TR/2001/REC-SVG-20010904/DTD/svg10.dtd">
<svg version="1.0" xmlns="http://www.w3.org/2000/svg"
 width="1536.000000pt" height="1056.000000pt" viewBox="0 0 1536.000000 1056.000000"
 preserveAspectRatio="xMidYMid meet">
<metadata>
Created by potrace 1.16, written by Peter Selinger 2001-2019
</metadata>
<g transform="translate(0.000000,1056.000000) scale(0.100000,-0.100000)"
fill="#FFFFFF" stroke="none">
<path d="M13030 10549 c-300 -26 -562 -100 -845 -239 -411 -201 -778 -514
-1208 -1030 -67 -80 -157 -188 -200 -240 -227 -273 -546 -591 -877 -875 -255
-219 -460 -381 -893 -703 -220 -163 -724 -540 -1120 -837 -985 -737 -1287
-955 -1733 -1243 -786 -510 -1146 -672 -2049 -922 -263 -73 -382 -125 -460
-204 -89 -89 -125 -197 -90 -270 30 -64 147 -115 300 -131 50 -6 63 -10 51
-17 -76 -43 -962 -344 -1920 -654 -811 -262 -1121 -376 -1406 -518 -230 -115
-384 -218 -477 -320 -65 -71 -96 -135 -101 -209 -4 -54 -3 -59 14 -53 139 42
909 272 1064 316 536 154 968 246 1405 297 118 14 230 18 525 18 394 0 431 -2
1090 -62 l395 -36 810 -7 c859 -7 832 -6 1005 -56 77 -22 181 -72 276 -131
258 -162 436 -213 837 -238 335 -20 418 -38 536 -113 76 -47 149 -124 273
-284 195 -252 268 -374 268 -448 0 -42 -4 -52 -34 -78 -42 -36 -115 -65 -262
-103 -210 -53 -302 -61 -789 -69 -470 -9 -512 -12 -634 -59 -200 -76 -292
-219 -292 -456 0 -228 101 -420 264 -500 123 -60 187 -70 477 -69 205 1 320 7
585 32 182 17 463 38 625 47 162 8 484 26 715 40 580 34 751 43 1040 55 681
27 1539 45 2635 56 723 7 771 5 1095 -42 214 -32 441 -36 555 -9 173 40 278
123 333 262 27 70 40 211 28 311 -27 221 -96 376 -226 507 -124 124 -253 168
-500 168 -157 0 -221 -8 -514 -64 -332 -64 -389 -71 -596 -71 -365 0 -715 66
-1125 213 -197 70 -266 89 -556 154 -373 84 -541 137 -692 221 -62 35 -72 54
-27 54 13 0 86 11 162 25 594 110 1082 324 1508 661 64 51 245 222 435 413
179 180 390 385 470 458 278 251 415 430 555 718 208 432 367 910 471 1420 14
66 47 278 74 470 73 511 125 755 241 1138 93 306 99 347 109 677 9 292 14 336
49 435 56 159 146 244 396 374 243 127 310 209 274 338 -11 43 -38 74 -239
278 -260 266 -296 305 -455 515 -139 182 -308 356 -418 429 -325 217 -720 302
-1207 260z m-4562 -8575 c221 -75 438 -102 892 -114 466 -12 672 -38 1080
-136 128 -31 158 -43 255 -98 61 -34 174 -98 253 -141 78 -43 141 -83 139 -89
-9 -26 -94 -77 -168 -101 -164 -52 -426 -56 -911 -16 -128 11 -285 22 -348 26
-628 33 -847 141 -1233 611 -70 86 -78 101 -49 89 9 -3 50 -18 90 -31z"/>
</g>
</svg>
