<?xml version="1.0" standalone="no"?>
<!DOCTYPE svg PUBLIC "-//W3C//DTD SVG 20010904//EN"
 "http://www.w3.org/TR/2001/REC-SVG-20010904/DTD/svg10.dtd">
<svg version="1.0" xmlns="http://www.w3.org/2000/svg"
 width="1536.000000pt" height="1086.000000pt" viewBox="0 0 1536.000000 1086.000000"
 preserveAspectRatio="xMidYMid meet">
<metadata>
Created by potrace 1.16, written by Peter Selinger 2001-2019
</metadata>
<g transform="translate(0.000000,1086.000000) scale(0.100000,-0.100000)"
fill="#FFFFFF" stroke="none">
<path d="M12895 10854 c-118 -10 -300 -37 -435 -64 -390 -78 -677 -215 -872
-416 -85 -89 -261 -335 -321 -452 -84 -161 -197 -470 -197 -536 0 -39 -66
-159 -160 -291 -51 -71 -126 -179 -166 -240 -82 -125 -186 -249 -265 -316
-203 -174 -944 -555 -1424 -734 -408 -152 -1133 -350 -1530 -420 -178 -31
-339 5 -850 186 -422 149 -1637 535 -1825 579 -52 12 -124 31 -160 42 -221 69
-1190 459 -1570 633 -431 197 -1378 579 -1959 790 -181 65 -360 112 -472 122
-46 4 -64 1 -106 -20 -27 -14 -64 -37 -80 -51 -65 -55 -125 -69 -288 -71 -154
-2 -197 -11 -210 -44 -9 -24 25 -46 116 -76 109 -37 133 -59 134 -121 l0 -49
600 -300 c641 -321 1815 -898 2158 -1061 l209 -99 46 -70 c68 -103 241 -270
464 -448 109 -86 203 -167 209 -179 7 -13 164 -176 349 -363 185 -187 346
-353 358 -369 14 -18 22 -43 22 -67 0 -50 -20 -61 -135 -69 -128 -10 -195 -46
-195 -105 0 -61 33 -83 330 -223 58 -27 130 -68 160 -90 72 -54 156 -154 176
-212 47 -127 80 -197 105 -221 15 -14 77 -52 138 -84 134 -71 158 -93 140
-127 -26 -50 -219 -226 -301 -276 -98 -59 -461 -250 -541 -286 -106 -47 -131
-96 -80 -157 l28 -32 -135 6 c-151 8 -136 12 -249 -74 -33 -26 -108 -73 -168
-105 -115 -63 -213 -146 -213 -181 0 -24 32 -33 116 -33 30 0 54 -3 53 -7 0
-5 -46 -30 -100 -58 -131 -65 -219 -140 -192 -165 4 -4 67 3 138 15 372 66
755 101 1260 115 524 14 888 56 1797 207 199 33 171 39 418 -93 96 -51 229
-116 295 -145 66 -29 158 -74 205 -100 155 -88 452 -210 860 -354 l205 -72 3
-42 c5 -71 -16 -173 -51 -252 -42 -91 -62 -173 -77 -307 -20 -185 5 -251 212
-557 311 -461 368 -580 492 -1035 71 -258 98 -387 94 -446 -3 -48 -4 -49 -55
-74 -28 -14 -62 -35 -75 -46 -43 -40 -93 -55 -280 -89 l-96 -18 -37 23 c-28
17 -46 21 -81 17 -33 -3 -60 2 -107 21 -54 23 -76 26 -172 26 -93 -1 -122 -5
-190 -28 -131 -45 -222 -114 -290 -221 -19 -30 -35 -57 -35 -61 0 -4 20 12 44
34 49 46 136 92 211 113 76 21 266 17 334 -8 51 -18 79 -43 49 -43 -27 0 -137
-60 -179 -97 -42 -37 -78 -101 -79 -136 0 -15 6 -13 38 12 94 75 193 105 325
99 108 -5 162 -26 171 -67 3 -14 26 -48 50 -76 l45 -50 84 2 c128 3 278 37
372 83 88 43 156 59 375 90 l145 20 65 -67 c36 -38 88 -94 116 -126 71 -82 94
-89 339 -95 214 -5 443 9 520 32 25 8 57 26 70 40 22 24 30 26 112 26 118 0
159 -13 212 -66 l44 -44 -7 50 c-8 58 -13 55 98 39 103 -15 127 -4 142 71 15
75 29 99 69 116 84 35 299 -1 446 -74 l77 -38 -10 27 c-14 40 -71 102 -127
138 -57 37 -183 85 -294 111 -66 16 -85 25 -118 59 -78 78 -237 111 -437 90
-150 -15 -231 -9 -312 25 -136 58 -202 57 -320 -1 -52 -27 -62 -28 -195 -28
-114 0 -157 4 -230 23 -135 35 -166 55 -191 127 -26 76 -41 105 -101 186 -66
92 -694 1341 -700 1394 -3 27 2 51 15 75 10 19 37 69 59 110 50 92 57 132 44
251 -44 398 -29 532 74 632 54 52 106 80 262 141 76 30 195 79 264 110 140 62
289 102 524 142 406 68 706 186 1034 405 192 128 536 404 631 505 186 199 362
509 532 938 73 184 440 1285 474 1421 36 144 45 378 32 870 -16 632 -16 626
16 725 58 176 162 368 341 630 93 136 188 296 305 513 72 133 108 174 226 252
98 66 186 107 414 192 363 135 574 247 670 355 18 20 40 31 79 38 30 6 57 13
60 16 10 10 -50 53 -124 89 -114 57 -255 84 -430 85 -190 0 -490 -47 -701
-109 l-95 -28 -93 38 c-117 48 -287 93 -437 114 -110 16 -465 28 -574 19z
m-3171 -10339 c-9 -14 -31 -36 -48 -48 -29 -21 -42 -22 -226 -24 l-195 -2 55
25 c127 59 188 73 313 74 l117 0 -16 -25z m1981 -22 c22 -12 48 -30 59 -42 18
-20 18 -21 -8 -31 -46 -17 -222 -50 -269 -50 -61 0 -77 8 -77 36 0 13 -9 28
-20 34 -40 21 -20 39 72 65 73 20 191 15 243 -12z"/>
</g>
</svg>
