<?xml version="1.0" standalone="no"?>
<!DOCTYPE svg PUBLIC "-//W3C//DTD SVG 20010904//EN"
 "http://www.w3.org/TR/2001/REC-SVG-20010904/DTD/svg10.dtd">
<svg version="1.0" xmlns="http://www.w3.org/2000/svg"
 width="1536.000000pt" height="945.000000pt" viewBox="0 0 1536.000000 945.000000"
 preserveAspectRatio="xMidYMid meet">
<metadata>
Created by potrace 1.16, written by Peter Selinger 2001-2019
</metadata>
<g transform="translate(0.000000,945.000000) scale(0.100000,-0.100000)"
fill="#FFFFFF" stroke="none">
<path d="M2620 9434 c-202 -12 -344 -25 -433 -40 -34 -6 -38 -5 -35 12 2 16
-3 19 -34 17 -20 -1 -69 -14 -109 -28 -40 -14 -81 -25 -91 -25 -10 0 -71 -27
-136 -61 -94 -49 -120 -59 -134 -50 -15 9 -28 0 -83 -57 -36 -37 -78 -85 -93
-107 -33 -49 -41 -55 -70 -55 -15 0 -29 -10 -40 -30 -9 -16 -25 -30 -34 -30
-9 0 -26 -14 -38 -30 -22 -30 -86 -70 -113 -70 -8 0 -17 -9 -20 -21 -3 -11
-11 -19 -19 -18 -34 4 -40 -1 -34 -31 l6 -30 -61 0 c-54 0 -60 -2 -49 -15 10
-12 9 -15 -7 -15 -10 0 -29 -7 -41 -16 -13 -9 -111 -33 -218 -55 -213 -43
-429 -110 -539 -167 -79 -42 -144 -101 -174 -161 -28 -54 -27 -71 4 -71 14 0
46 -16 72 -37 119 -91 357 -161 673 -198 133 -16 159 -24 207 -67 13 -12 29
-18 40 -14 11 4 35 -6 63 -24 25 -16 55 -30 68 -30 18 0 22 -6 22 -30 0 -18
11 -42 30 -64 17 -18 51 -71 76 -116 50 -91 57 -123 78 -333 14 -136 26 -165
64 -153 11 4 22 16 25 26 6 24 25 26 34 4 8 -22 -16 -72 -26 -55 -6 10 -12 5
-23 -16 -13 -25 -12 -33 3 -68 10 -22 23 -40 30 -40 6 0 22 31 35 68 23 70 50
111 65 101 12 -7 12 -54 0 -54 -5 0 -12 -16 -15 -35 -4 -19 -19 -48 -33 -66
l-26 -31 17 -96 c10 -54 24 -109 31 -124 18 -38 63 -203 70 -260 4 -34 11 -48
22 -48 13 0 13 -3 3 -15 -10 -12 -10 -32 -2 -92 6 -43 14 -125 17 -183 11
-194 95 -769 141 -965 40 -168 82 -287 198 -558 58 -137 106 -253 106 -258 0
-18 72 -154 124 -234 29 -44 72 -116 96 -160 24 -44 54 -96 67 -115 13 -19 23
-47 23 -62 0 -21 5 -28 20 -28 12 0 45 -26 80 -62 139 -148 220 -241 220 -254
0 -7 9 -15 20 -19 11 -3 34 -22 52 -41 18 -19 47 -42 64 -50 17 -8 103 -72
190 -142 174 -139 343 -262 458 -332 40 -25 106 -75 147 -111 91 -82 145 -119
173 -119 12 0 32 -14 47 -33 15 -18 55 -48 90 -67 34 -18 78 -44 97 -57 19
-12 42 -23 52 -23 18 0 70 -50 70 -68 0 -16 -44 -26 -84 -19 -46 7 -66 -7
-135 -95 -67 -85 -142 -150 -211 -181 -34 -16 -64 -21 -125 -20 -68 1 -86 -2
-121 -22 -146 -85 -217 -291 -158 -457 14 -41 11 -63 -11 -72 -20 -7 -49 -66
-38 -77 6 -6 39 26 82 76 40 47 96 103 124 124 29 21 64 52 79 69 14 16 40 33
57 37 17 4 31 11 31 16 0 5 16 16 36 24 30 12 35 19 30 38 -3 14 1 33 11 47
15 21 17 21 28 6 11 -15 13 -15 18 5 4 14 11 20 21 16 10 -4 16 -1 16 9 0 9 7
14 18 12 12 -3 17 -13 17 -41 0 -26 4 -37 15 -37 24 0 86 55 146 131 30 38 61
69 68 69 7 0 33 18 57 41 62 58 149 97 244 109 55 7 85 16 100 30 12 11 27 20
33 20 22 0 113 -50 119 -65 3 -8 14 -15 24 -15 11 0 36 -9 56 -20 21 -11 44
-20 52 -20 8 0 22 -6 30 -14 9 -8 44 -21 78 -30 34 -8 141 -45 237 -80 97 -36
213 -72 258 -81 46 -9 150 -30 232 -46 81 -17 159 -28 171 -25 16 4 32 -1 52
-17 40 -33 48 -35 196 -47 191 -15 235 -25 243 -57 4 -15 0 -38 -9 -58 -55
-115 -621 -699 -887 -915 -41 -33 -107 -76 -147 -96 -54 -26 -88 -53 -139
-107 l-66 -72 -73 0 c-61 0 -79 4 -105 23 -25 19 -34 21 -45 12 -12 -10 -21
-7 -45 13 -39 34 -93 50 -136 43 -45 -9 -66 3 -149 89 -78 80 -129 103 -203
90 -52 -8 -171 -66 -196 -94 -11 -11 -27 -21 -37 -21 -12 0 -19 -11 -24 -40
-8 -45 -43 -80 -82 -80 -54 0 -343 -119 -343 -141 0 -13 3 -12 72 16 73 30 68
29 68 10 0 -8 -42 -57 -93 -108 -62 -62 -103 -112 -121 -149 -15 -31 -32 -58
-37 -60 -16 -5 -22 -110 -9 -143 l12 -30 18 25 c11 14 28 37 40 52 11 14 20
33 20 42 0 22 17 20 30 -4 7 -14 18 -19 33 -16 12 3 66 8 119 11 81 6 104 11
134 32 51 34 76 26 93 -32 7 -24 11 -51 8 -59 -9 -22 19 -53 36 -41 8 6 26 19
41 29 15 10 62 25 104 31 114 19 158 33 192 62 28 23 37 25 93 20 43 -4 72 -1
97 9 39 17 178 39 310 50 47 3 95 10 108 15 13 5 54 15 92 23 40 9 107 34 157
60 78 42 93 46 155 46 63 0 69 2 85 28 30 49 34 49 143 28 l102 -20 222 22
c417 42 507 61 556 121 25 30 32 33 62 27 18 -4 67 -10 108 -13 41 -3 80 -9
87 -15 7 -6 19 -5 32 4 18 11 22 10 34 -6 23 -32 111 -17 227 38 48 22 30 99
-42 181 -92 105 -346 147 -543 90 -103 -30 -144 -50 -249 -121 -43 -30 -102
-61 -130 -70 -62 -19 -200 -33 -318 -34 -77 0 -88 2 -88 18 0 21 46 79 159
202 48 52 132 147 186 210 54 63 151 171 215 240 233 251 539 589 555 614 12
18 26 26 45 26 15 0 33 7 41 16 26 32 93 58 157 60 50 2 66 7 80 24 12 15 33
24 65 27 25 3 44 9 42 13 -6 10 20 20 54 20 38 0 44 9 26 37 l-15 23 58 0 c68
0 121 23 277 119 54 33 104 61 111 61 7 0 14 7 18 15 3 8 21 22 40 31 32 16
36 16 51 1 15 -16 45 -13 45 4 0 5 15 9 34 9 50 0 69 9 55 26 -9 12 -6 13 19
8 22 -4 42 1 74 20 25 14 52 26 60 26 9 0 21 7 28 15 7 8 28 15 46 15 21 0 34
5 34 13 0 7 23 17 58 23 70 14 204 68 240 99 15 12 49 27 77 34 27 7 56 17 63
24 7 6 34 10 58 8 25 -1 54 1 65 4 17 6 18 9 7 22 -12 15 -8 15 37 10 42 -6
53 -4 67 12 19 23 94 40 343 81 99 16 216 36 259 46 67 14 92 15 157 6 89 -13
408 -127 649 -232 85 -38 169 -71 186 -75 17 -3 86 -30 153 -60 66 -30 160
-68 208 -85 144 -51 175 -30 104 71 -46 66 -53 94 -20 84 12 -4 78 -33 148
-65 69 -32 182 -81 251 -108 142 -57 236 -99 609 -271 145 -67 284 -131 310
-141 25 -10 163 -73 306 -140 143 -68 296 -138 340 -157 44 -19 87 -40 95 -47
8 -7 49 -25 90 -41 41 -16 185 -80 320 -143 135 -62 270 -123 300 -135 30 -11
57 -24 60 -28 3 -4 19 -11 35 -15 17 -4 91 -33 165 -64 306 -130 450 -190 456
-190 4 0 75 -30 158 -66 117 -52 195 -78 346 -116 176 -45 202 -49 270 -44
119 9 123 11 116 60 -3 23 -9 52 -12 65 -6 21 -5 23 14 18 77 -24 80 -27 -62
96 -31 27 -56 54 -56 61 0 7 -10 18 -22 23 -13 6 -70 48 -128 94 -217 173
-407 289 -880 539 -434 229 -632 331 -1000 514 -375 187 -464 229 -930 441
-273 124 -1414 658 -1765 826 -240 114 -498 286 -651 431 -216 207 -636 523
-1014 764 -69 44 -182 121 -251 170 -151 109 -335 226 -460 294 -50 27 -133
83 -184 124 -51 42 -134 102 -185 135 -88 58 -121 76 -295 156 -167 76 -281
154 -419 283 -198 187 -479 419 -604 500 -31 20 -84 58 -117 83 -88 67 -199
140 -290 189 -44 24 -92 54 -107 66 -15 12 -81 51 -145 85 -65 34 -242 127
-393 207 -435 229 -452 242 -521 363 -19 33 -49 86 -67 117 -19 31 -56 112
-83 180 -27 68 -62 149 -78 180 -16 31 -32 68 -36 82 -4 14 -25 55 -46 92 -22
37 -42 82 -46 100 -3 18 -21 54 -40 79 -18 25 -40 64 -49 85 -9 21 -29 59 -44
84 -16 25 -56 127 -89 228 -33 101 -81 222 -106 270 -59 111 -134 223 -160
236 -11 6 -37 25 -57 43 -126 109 -492 222 -868 268 -141 17 -137 17 -430 -1z
m-1278 -526 c-15 -15 -26 -4 -18 18 5 13 9 15 18 6 9 -9 9 -15 0 -24z m2178
-7042 c0 -13 -49 -56 -64 -56 -11 0 -6 25 10 48 17 25 54 30 54 8z m3217
-1171 c28 -8 62 -24 75 -35 l23 -19 -28 -1 c-15 0 -43 -7 -63 -15 -37 -15
-113 -30 -210 -40 -50 -5 -65 -3 -78 11 -16 15 -16 18 1 36 35 38 129 76 194
77 19 1 58 -6 86 -14z m-2477 -164 c139 -7 164 -11 245 -40 124 -45 183 -61
227 -61 50 0 56 -15 16 -40 -29 -19 -42 -20 -113 -14 -44 4 -89 6 -99 6 -11
-1 -36 12 -56 28 -20 16 -47 31 -61 35 -39 10 -159 -13 -217 -42 -28 -14 -59
-26 -67 -26 -8 0 -15 -9 -15 -19 0 -26 -30 -23 -71 7 -19 14 -48 31 -65 39
-17 8 -36 22 -44 30 -7 9 -27 16 -44 16 -18 0 -41 6 -52 14 -18 14 -18 15 11
21 17 3 64 19 105 35 51 19 86 27 110 24 19 -3 105 -8 190 -13z m-560 -290 c0
-11 -31 -24 -39 -16 -3 3 1 10 9 15 19 12 30 12 30 1z m520 -25 c0 -15 -55
-66 -70 -66 -5 0 -17 -3 -27 -6 -10 -3 4 15 32 40 52 49 65 55 65 32z"/>
<path d="M3237 1590 c-15 -12 -40 -20 -65 -20 -45 0 -76 -25 -51 -41 21 -13
39 -11 89 12 52 23 82 48 74 60 -8 14 -19 11 -47 -11z"/>
</g>
</svg>
