<?xml version="1.0" standalone="no"?>
<!DOCTYPE svg PUBLIC "-//W3C//DTD SVG 20010904//EN"
 "http://www.w3.org/TR/2001/REC-SVG-20010904/DTD/svg10.dtd">
<svg version="1.0" xmlns="http://www.w3.org/2000/svg"
 width="929.000000pt" height="1536.000000pt" viewBox="0 0 929.000000 1536.000000"
 preserveAspectRatio="xMidYMid meet">
<metadata>
Created by potrace 1.16, written by Peter Selinger 2001-2019
</metadata>
<g transform="translate(0.000000,1536.000000) scale(0.100000,-0.100000)"
fill="#FFFFFF" stroke="none">
<path d="M3207 15350 c-302 -29 -754 -140 -1007 -247 -106 -45 -139 -64 -217
-130 -34 -29 -67 -53 -72 -53 -14 0 -307 -280 -367 -351 -29 -33 -77 -110
-109 -170 -31 -60 -71 -129 -89 -152 -18 -24 -44 -63 -59 -87 -37 -65 -96
-241 -90 -272 3 -15 0 -27 -9 -31 -300 -122 -692 -309 -868 -416 -57 -34 -300
-199 -318 -216 -2 -2 3 -19 11 -38 l15 -35 63 12 c62 12 66 11 136 -21 40 -17
101 -50 137 -73 36 -23 111 -59 167 -81 107 -41 188 -82 424 -214 219 -122
267 -150 316 -190 l45 -37 -13 -51 c-7 -28 -23 -62 -36 -76 -12 -14 -56 -62
-98 -106 -170 -182 -280 -322 -445 -570 -127 -189 -174 -267 -174 -289 0 -17
-25 -75 -57 -135 -56 -105 -68 -138 -143 -406 -39 -141 -68 -285 -69 -340 0
-16 -19 -120 -42 -230 -58 -281 -60 -315 -49 -588 11 -237 15 -284 65 -682 15
-115 24 -223 21 -238 -5 -22 -2 -30 12 -34 16 -4 20 -24 31 -151 34 -410 96
-882 151 -1152 35 -169 62 -264 119 -412 27 -71 46 -140 55 -210 19 -129 46
-218 80 -258 14 -18 28 -41 30 -53 23 -118 36 -154 100 -281 40 -77 116 -214
169 -304 54 -89 106 -182 118 -205 12 -23 30 -52 41 -64 18 -19 19 -26 9 -54
-14 -40 -14 -39 2 -39 31 0 137 -151 137 -195 0 -11 23 -48 50 -80 28 -33 72
-96 97 -140 74 -130 131 -203 172 -224 29 -15 45 -34 70 -85 26 -54 50 -81
139 -159 59 -51 188 -171 287 -265 99 -95 187 -172 196 -172 9 0 20 -10 26
-22 15 -32 155 -188 195 -217 18 -14 27 -17 19 -8 -17 21 -7 21 53 1 26 -9 49
-14 51 -12 3 2 -31 43 -75 90 -74 80 -93 108 -71 108 4 0 23 -11 42 -24 19
-14 60 -42 92 -63 31 -21 88 -62 124 -91 37 -29 81 -56 98 -59 20 -4 52 -29
95 -73 53 -55 69 -66 85 -59 40 16 52 10 64 -32 l13 -42 -88 -88 -89 -89 -82
0 c-81 0 -85 -1 -148 -42 l-65 -43 0 -70 0 -70 -90 -70 -89 -70 -1 -52 c0 -50
-1 -52 -45 -77 l-45 -27 0 -137 0 -136 -47 -48 -47 -48 -30 28 c-16 15 -27 23
-24 17 3 -5 47 -140 98 -299 104 -326 172 -517 196 -554 l17 -25 19 26 c22 30
226 186 275 211 l33 17 20 -33 c11 -18 26 -48 32 -66 13 -34 19 -37 48 -22 16
9 22 3 45 -48 27 -59 60 -102 79 -102 6 0 52 -36 101 -80 106 -95 136 -113
170 -104 22 5 25 3 25 -20 0 -14 3 -26 6 -26 3 0 44 30 91 67 l85 66 92 -16
91 -16 70 69 70 70 26 258 25 257 -27 72 c-37 94 -77 173 -89 173 -15 0 -60
96 -60 129 0 33 36 62 257 209 67 45 137 95 155 110 44 38 169 121 241 161 86
47 260 161 277 181 8 10 33 20 54 23 35 6 50 16 58 39 2 5 54 16 117 25 l113
17 57 -29 c39 -20 94 -67 181 -155 l125 -126 155 -17 155 -17 89 -93 c49 -50
128 -136 175 -189 123 -138 366 -349 497 -433 77 -49 423 -382 431 -414 10
-42 57 -143 95 -202 24 -37 37 -71 41 -108 4 -38 17 -70 41 -106 18 -28 43
-69 54 -92 48 -93 136 -383 297 -977 25 -93 59 -197 75 -230 33 -66 115 -180
193 -266 57 -64 102 -78 278 -87 l115 -6 67 64 c65 63 67 66 67 115 0 66 17
114 48 140 15 12 33 43 42 70 16 46 19 49 54 52 33 3 44 -3 97 -53 34 -31 93
-72 132 -92 40 -19 104 -55 144 -79 40 -24 112 -60 160 -80 l87 -36 98 9 c158
16 174 36 163 210 l-6 113 -71 147 c-71 152 -131 250 -252 421 -111 156 -188
278 -276 438 -46 82 -93 163 -106 180 -12 17 -50 105 -85 195 -34 90 -97 247
-140 349 -43 102 -96 245 -118 317 -21 73 -48 145 -59 161 l-20 27 54 63 c49
58 54 68 54 112 0 27 14 109 30 182 17 73 41 216 55 318 118 888 113 839 130
1220 8 188 22 369 34 450 48 322 53 579 13 661 -12 25 -22 50 -22 57 0 6 57
41 127 78 142 74 265 147 281 167 8 9 2 100 -19 322 -37 384 -55 544 -62 551
-8 8 -97 -35 -97 -46 0 -14 -61 -30 -116 -30 -50 0 -55 -2 -69 -31 -25 -47
-121 -89 -207 -89 -112 0 -111 -1 -132 136 -10 66 -22 180 -27 254 -13 182
-66 736 -85 885 -17 140 -112 617 -149 755 -14 52 -30 125 -36 161 -5 37 -25
120 -44 184 -19 64 -37 147 -41 184 -12 128 -166 749 -243 981 -58 172 -157
421 -259 646 -50 110 -148 344 -217 520 -188 475 -335 763 -522 1026 -49 68
-82 130 -123 233 -251 615 -621 1253 -1004 1730 -108 134 -329 359 -447 455
-354 286 -771 470 -1210 535 -122 19 -466 27 -592 15z m543 -11527 c0 -6 -17
-26 -37 -43 l-38 -31 -3 25 c-2 13 7 44 19 67 l21 43 19 -25 c10 -13 19 -29
19 -36z m-211 -1385 l-16 -153 30 -35 c50 -57 110 -100 150 -106 20 -4 39 -9
41 -13 2 -3 7 -29 11 -57 6 -49 5 -52 -19 -58 -23 -6 -25 -11 -28 -69 l-3 -62
-75 0 c-68 0 -75 2 -86 23 l-11 23 -7 -23 c-3 -13 -6 -33 -6 -44 0 -32 -24
-48 -49 -34 -46 24 -139 110 -155 143 -9 21 -35 48 -61 64 -24 15 -44 33 -44
38 0 6 10 28 24 49 l24 39 -50 98 -49 98 43 35 c23 19 55 40 70 45 15 6 61 34
103 62 73 49 148 88 169 89 7 0 5 -51 -6 -152z"/>
</g>
</svg>
