<?xml version="1.0" standalone="no"?>
<!DOCTYPE svg PUBLIC "-//W3C//DTD SVG 20010904//EN"
 "http://www.w3.org/TR/2001/REC-SVG-20010904/DTD/svg10.dtd">
<svg version="1.0" xmlns="http://www.w3.org/2000/svg"
 width="1254.000000pt" height="1536.000000pt" viewBox="0 0 1254.000000 1536.000000"
 preserveAspectRatio="xMidYMid meet">
<metadata>
Created by potrace 1.16, written by Peter Selinger 2001-2019
</metadata>
<g transform="translate(0.000000,1536.000000) scale(0.100000,-0.100000)"
fill="#FFFFFF" stroke="none">
<path d="M2980 15350 c-386 -38 -1035 -298 -1366 -547 -145 -108 -240 -230
-370 -475 -41 -79 -87 -155 -102 -170 -40 -43 -99 -60 -507 -143 -209 -43
-403 -84 -432 -91 -65 -18 -128 -65 -171 -129 -37 -55 -35 -59 38 -68 25 -3
88 -26 140 -51 128 -60 280 -111 628 -212 412 -119 450 -139 467 -248 4 -23
47 -196 96 -386 94 -367 173 -713 211 -925 19 -110 23 -165 23 -355 l0 -225
-222 -440 c-249 -495 -265 -530 -287 -635 -35 -174 -41 -262 -40 -650 0 -370
16 -694 45 -912 13 -104 59 -286 109 -438 90 -272 339 -888 407 -1005 156
-272 750 -1052 963 -1265 301 -302 902 -755 1657 -1250 l221 -145 -577 -580
c-317 -319 -701 -706 -853 -860 -152 -154 -286 -286 -299 -292 -13 -6 -62 -29
-109 -51 -103 -47 -214 -137 -290 -236 -30 -39 -84 -100 -119 -136 -35 -36
-81 -90 -101 -121 -21 -30 -55 -70 -75 -87 -32 -28 -42 -32 -97 -32 -53 0 -64
-4 -96 -31 -33 -29 -38 -31 -91 -23 -101 13 -103 12 -174 -75 -14 -17 -24 -21
-40 -16 -40 13 -284 17 -385 6 -82 -9 -105 -8 -128 3 -87 43 -473 57 -574 21
-97 -34 -190 -123 -190 -180 0 -17 1 -17 19 -1 34 31 93 45 191 46 74 0 103
-4 130 -19 19 -10 52 -21 73 -25 l38 -7 -28 -22 c-47 -37 -72 -69 -108 -142
-42 -84 -63 -162 -71 -265 -7 -82 8 -120 21 -53 12 63 114 246 143 258 7 3 28
-10 45 -28 97 -102 159 -111 337 -47 l114 41 120 -6 c128 -7 176 1 511 79 133
31 308 51 359 42 l38 -7 -6 -87 c-8 -112 3 -137 60 -136 39 0 41 -1 129 -117
50 -64 91 -116 93 -114 2 2 -4 61 -12 132 -19 152 -20 229 -5 239 6 3 20 27
32 53 15 35 95 169 112 189 1 1 76 -9 166 -24 200 -31 475 -43 600 -25 146 21
301 65 434 123 62 27 76 30 140 25 76 -6 221 -49 305 -92 27 -14 50 -23 50
-20 0 15 -42 85 -75 122 -50 58 -168 135 -267 173 -73 29 -93 33 -170 31 -54
-1 -107 4 -138 13 -59 18 -108 11 -234 -30 -77 -26 -79 -26 -150 -11 -39 9
-105 18 -146 22 -41 3 -78 9 -83 14 -5 5 -13 41 -18 81 -6 53 -17 86 -39 120
-37 58 -38 86 -1 137 84 116 1519 1549 1969 1967 50 46 67 57 86 52 55 -14
176 -26 396 -41 129 -8 249 -18 265 -21 17 -4 86 -35 155 -69 327 -163 642
-261 967 -301 174 -21 522 -30 592 -15 30 6 55 10 56 9 2 -3 -320 -1734 -391
-2103 -52 -274 -106 -417 -172 -459 -49 -31 -93 -81 -158 -181 -63 -98 -102
-173 -120 -236 -19 -62 -92 -129 -203 -186 -70 -37 -92 -43 -142 -43 -33 0
-76 -7 -96 -15 -28 -12 -48 -13 -97 -5 -169 27 -360 50 -410 50 -65 0 -113
-21 -126 -54 -7 -20 -17 -24 -77 -28 -128 -9 -263 -95 -263 -166 0 -43 9 -44
55 -7 66 55 130 79 208 80 58 0 70 -3 79 -20 6 -11 32 -41 57 -66 60 -61 98
-68 216 -40 104 25 123 26 163 6 24 -12 74 -16 231 -18 222 -2 241 -7 194 -51
-21 -20 -38 -26 -72 -26 -35 0 -58 -9 -106 -40 -34 -22 -88 -47 -120 -55 -183
-48 -365 -257 -365 -419 l0 -41 31 60 c81 161 247 242 409 201 59 -15 65 -15
129 5 41 12 89 20 126 18 33 -1 70 -1 82 0 29 1 74 41 139 123 30 37 60 68 67
68 6 0 60 23 119 51 60 28 122 52 140 53 35 1 31 8 174 -258 38 -71 84 -145
101 -164 32 -34 34 -35 90 -29 32 4 71 10 86 13 26 6 35 0 84 -52 l55 -59 -7
39 c-8 49 -46 125 -74 150 -16 14 -21 31 -21 65 0 53 -29 120 -125 286 -60
106 -63 113 -70 200 -5 50 -8 101 -9 115 l-1 25 115 3 c94 2 133 -2 215 -22
l100 -24 -49 44 c-26 24 -90 65 -142 91 -97 48 -151 58 -221 40 l-33 -9 0 99
0 99 50 79 c27 43 53 93 56 111 8 41 -10 125 -40 190 -23 49 -23 54 -10 120 7
38 43 224 79 414 194 1010 371 1847 431 2031 14 43 20 49 87 82 149 75 393
279 784 659 138 133 308 302 377 375 70 72 161 163 204 201 l77 70 130 -114
c71 -62 156 -144 188 -181 68 -78 378 -489 482 -640 46 -66 84 -109 110 -126
22 -13 168 -108 325 -212 374 -245 361 -239 475 -232 49 3 152 19 227 36 190
43 235 42 320 -8 153 -89 287 -126 429 -118 l96 6 58 -59 c68 -69 118 -90 212
-90 107 0 134 47 97 170 -20 66 -194 420 -231 469 -101 133 -664 714 -1098
1134 -176 170 -323 315 -327 321 -4 7 0 39 8 72 20 76 14 113 -31 174 -20 27
-43 72 -51 101 -9 30 -51 123 -94 209 -88 176 -110 239 -110 319 0 127 -121
624 -234 966 -100 299 -169 442 -369 765 -192 311 -537 805 -718 1031 -77 96
-113 152 -161 249 -360 739 -411 827 -637 1094 -199 236 -803 816 -1071 1029
-113 89 -122 103 -170 257 -32 106 -75 200 -114 253 -11 16 -74 71 -138 123
-77 61 -124 107 -136 132 -28 54 -54 138 -122 392 -33 124 -74 252 -90 285
-26 54 -194 287 -297 413 -276 336 -250 310 -492 496 -457 350 -673 496 -990
665 -426 228 -724 326 -1141 376 -155 19 -602 28 -730 15z"/>
</g>
</svg>
