<?xml version="1.0" standalone="no"?>
<!DOCTYPE svg PUBLIC "-//W3C//DTD SVG 20010904//EN"
 "http://www.w3.org/TR/2001/REC-SVG-20010904/DTD/svg10.dtd">
<svg version="1.0" xmlns="http://www.w3.org/2000/svg"
 width="1536.000000pt" height="1235.000000pt" viewBox="0 0 1536.000000 1235.000000"
 preserveAspectRatio="xMidYMid meet">
<metadata>
Created by potrace 1.16, written by Peter Selinger 2001-2019
</metadata>
<g transform="translate(0.000000,1235.000000) scale(0.100000,-0.100000)"
fill="#FFFFFF" stroke="none">
<path d="M12375 12343 c-11 -3 -32 -14 -47 -25 -15 -10 -56 -24 -90 -29 -106
-17 -145 -28 -266 -74 -143 -55 -214 -90 -244 -120 -13 -12 -42 -32 -65 -44
-23 -11 -58 -35 -77 -51 -26 -24 -55 -35 -128 -50 -51 -11 -107 -25 -125 -31
-40 -13 -99 -77 -108 -118 -4 -18 -20 -42 -38 -56 -42 -33 -227 -168 -310
-227 -69 -49 -140 -134 -184 -223 -16 -31 -57 -79 -105 -124 -44 -41 -102
-104 -129 -139 -53 -70 -154 -261 -188 -357 l-22 -60 -167 -85 c-179 -91 -430
-238 -601 -353 -206 -138 -885 -662 -1086 -838 -366 -320 -800 -760 -1090
-1104 -60 -71 -157 -186 -216 -255 -58 -69 -132 -160 -163 -204 -71 -99 -197
-321 -238 -417 -53 -128 -103 -185 -398 -460 -236 -219 -376 -364 -533 -549
-171 -202 -271 -313 -488 -545 -221 -237 -260 -283 -475 -569 -95 -127 -203
-269 -239 -316 -75 -98 -182 -256 -213 -315 -21 -41 -58 -79 -177 -181 -153
-130 -331 -302 -372 -358 -25 -33 -72 -81 -106 -106 -266 -199 -578 -431 -607
-450 -19 -14 -210 -155 -425 -314 -214 -159 -482 -353 -595 -429 -257 -175
-535 -384 -807 -608 -145 -119 -172 -140 -443 -341 -327 -243 -468 -371 -532
-484 -41 -74 -108 -146 -197 -213 -81 -60 -90 -75 -68 -106 13 -17 19 -18 53
-7 68 20 391 200 1534 852 234 134 580 331 769 438 l344 196 161 13 c88 7 173
10 188 7 28 -6 28 -6 -51 -92 -88 -96 -191 -223 -191 -235 0 -19 32 -16 77 7
28 13 145 88 261 165 115 78 221 145 235 150 14 5 108 19 208 30 530 60 1164
196 1894 406 121 35 276 78 345 95 l125 32 115 -17 c152 -22 724 -38 1080 -31
151 3 327 7 390 7 l115 2 22 -133 c25 -145 29 -153 128 -262 66 -74 274 -241
357 -287 29 -16 117 -57 196 -90 321 -137 591 -295 797 -466 174 -145 434
-397 455 -441 24 -48 24 -44 -26 -195 -20 -61 -20 -123 -1 -153 9 -13 42 -39
74 -57 32 -18 92 -56 135 -85 204 -139 392 -211 604 -232 l69 -7 1 -70 c0 -38
4 -84 8 -101 7 -28 4 -34 -30 -62 -62 -51 -91 -61 -161 -55 -34 3 -69 3 -78 0
-14 -6 -14 -9 0 -37 9 -17 30 -39 47 -50 40 -24 155 -44 226 -38 53 5 57 8
123 75 37 38 70 80 72 94 3 13 11 50 18 81 15 71 7 274 -14 341 -13 42 -14 47
-1 36 21 -17 63 -91 74 -129 5 -18 14 -89 21 -159 12 -137 32 -191 91 -248 25
-24 37 -28 84 -27 63 2 66 -5 33 -74 -25 -50 -79 -90 -147 -107 -53 -14 -66
-39 -33 -69 51 -46 160 -25 237 46 63 58 89 124 89 228 0 100 -22 178 -98 350
-89 201 -140 276 -317 470 -169 184 -340 398 -340 424 0 11 93 6 194 -10 71
-12 132 -15 206 -11 90 5 111 3 148 -13 45 -20 62 -44 43 -63 -18 -18 -13 -62
9 -82 42 -38 161 -5 205 57 25 36 19 114 -13 183 -16 33 -32 78 -36 100 -10
49 -69 109 -123 124 -49 14 -335 14 -483 0 -63 -5 -181 -23 -261 -39 -80 -17
-163 -30 -185 -30 -48 0 -201 47 -339 103 -265 107 -856 498 -1099 725 l-76
70 0 250 0 250 66 11 c86 15 142 41 304 141 74 46 159 98 189 116 104 64 419
167 654 214 169 34 548 90 560 83 4 -2 7 -21 7 -41 0 -36 16 -68 73 -150 l29
-41 -32 -168 c-18 -92 -37 -178 -41 -190 -11 -31 -46 -30 -94 3 -21 14 -44 23
-51 20 -35 -14 3 -88 65 -126 l40 -25 1 -97 c0 -111 7 -133 61 -206 l40 -53
-37 -15 c-69 -29 -95 -28 -158 5 -32 17 -60 31 -62 31 -2 0 -4 -9 -4 -21 0
-29 105 -136 148 -150 22 -7 66 -10 119 -6 l83 6 39 -57 c58 -86 131 -148 227
-194 76 -37 94 -41 157 -41 112 0 239 45 343 121 44 32 101 99 92 108 -3 2
-45 -7 -94 -22 -77 -24 -107 -28 -224 -28 -122 -1 -140 1 -188 23 -32 14 -70
44 -98 75 -50 55 -104 130 -104 143 0 4 22 22 48 40 75 51 190 161 217 208 32
54 68 146 84 212 11 46 21 58 92 118 88 75 131 124 147 173 17 49 35 275 31
383 -4 88 -7 100 -49 184 -91 185 -188 244 -382 232 -51 -2 -156 -19 -233 -37
-141 -32 -424 -74 -433 -65 -15 14 52 57 223 141 149 73 224 118 347 206 147
106 216 160 522 413 314 259 576 557 854 972 148 220 371 680 544 1123 166
421 268 736 462 1420 142 499 243 787 305 869 20 26 90 97 156 157 66 60 176
163 245 229 193 185 177 174 263 190 153 29 423 46 819 52 434 6 435 7 407 60
-8 14 -53 62 -101 107 -104 99 -209 181 -708 554 -69 51 -151 119 -183 150
-71 69 -162 205 -262 393 -120 225 -214 348 -463 604 -145 149 -282 262 -462
381 -228 150 -390 224 -489 224 -27 0 -85 7 -128 15 -77 15 -139 17 -178 8z
m-1452 -8700 c22 -24 31 -44 35 -81 l4 -50 -83 -51 c-113 -69 -117 -60 -57
149 17 58 33 109 36 114 3 5 12 -4 20 -20 8 -16 28 -43 45 -61z m-824 -2467
c119 -87 292 -296 330 -398 10 -26 9 -28 -17 -28 -34 0 -132 23 -238 55 l-81
25 8 42 c4 24 8 75 9 115 0 63 -4 79 -35 137 -52 98 -48 105 24 52z"/>
</g>
</svg>
