<?xml version="1.0" standalone="no"?>
<!DOCTYPE svg PUBLIC "-//W3C//DTD SVG 20010904//EN"
 "http://www.w3.org/TR/2001/REC-SVG-20010904/DTD/svg10.dtd">
<svg version="1.0" xmlns="http://www.w3.org/2000/svg"
 width="1536.000000pt" height="1267.000000pt" viewBox="0 0 1536.000000 1267.000000"
 preserveAspectRatio="xMidYMid meet">
<metadata>
Created by potrace 1.16, written by Peter Selinger 2001-2019
</metadata>
<g transform="translate(0.000000,1267.000000) scale(0.100000,-0.100000)"
fill="#FFFFFF" stroke="none">
<path d="M13602 12635 c-43 -49 -97 -131 -182 -275 -98 -168 -136 -224 -248
-365 -166 -209 -570 -595 -624 -595 -4 0 26 51 68 113 169 251 271 526 245
663 -13 68 -26 99 -63 151 -35 48 -84 83 -117 83 -29 0 -74 -102 -112 -254
-17 -66 -46 -162 -65 -215 -47 -124 -183 -396 -275 -547 -40 -66 -86 -143
-103 -172 -88 -149 -109 -174 -177 -213 l-67 -37 29 62 c65 140 98 362 79 537
-33 297 -167 469 -367 469 -53 0 -53 6 -16 -202 24 -135 28 -178 28 -373 0
-201 -2 -233 -29 -370 -15 -82 -30 -160 -32 -173 -4 -19 -43 -42 -218 -127
-370 -181 -579 -252 -1091 -374 -308 -73 -375 -86 -645 -126 -380 -56 -586
-106 -747 -180 -101 -47 -144 -78 -284 -211 -187 -177 -236 -204 -483 -270
-71 -19 -179 -56 -240 -84 -139 -61 -214 -75 -371 -67 -137 7 -233 24 -390 68
-135 38 -196 66 -361 161 -234 136 -318 171 -534 222 -160 38 -438 76 -605 83
-258 10 -434 -21 -688 -123 -143 -57 -201 -90 -246 -138 -32 -34 -45 -33 -27
2 8 15 18 45 21 66 l8 38 -65 -51 c-36 -28 -78 -68 -93 -88 -16 -21 -30 -40
-33 -43 -2 -3 -10 3 -17 13 -12 17 -17 12 -50 -51 -20 -38 -49 -82 -66 -98
l-29 -28 -213 -12 c-365 -22 -443 -31 -557 -65 -110 -33 -180 -63 -180 -78 0
-24 353 -126 624 -181 54 -11 117 -29 141 -39 107 -47 262 -178 375 -316 66
-81 379 -517 416 -580 13 -24 35 -89 48 -146 13 -57 38 -158 56 -224 53 -204
44 -364 -32 -540 -24 -57 -32 -91 -38 -180 -4 -60 -6 -139 -3 -175 10 -126
-29 -167 -245 -258 -193 -81 -237 -97 -419 -152 -92 -29 -190 -63 -216 -78
-106 -57 -182 -183 -158 -262 6 -20 11 -45 11 -53 0 -9 -99 -115 -219 -234
-142 -141 -222 -228 -226 -245 -14 -57 13 -106 65 -117 68 -14 47 -79 -87
-265 -185 -258 -348 -442 -473 -537 -85 -65 -245 -144 -342 -168 -42 -11 -179
-32 -305 -47 -216 -25 -243 -26 -523 -20 -162 4 -356 11 -430 16 -74 5 -209
14 -300 20 -91 6 -230 19 -310 29 -145 18 -180 16 -180 -14 0 -26 101 -165
158 -215 166 -148 473 -234 842 -235 162 0 202 3 320 27 74 15 186 32 249 38
63 6 118 13 123 16 4 3 8 -1 8 -9 0 -29 -142 -132 -273 -198 -104 -53 -355
-158 -467 -195 -147 -50 -466 -120 -650 -145 -85 -11 -240 -31 -345 -45 -104
-13 -204 -24 -221 -24 -33 0 -119 -24 -144 -40 -36 -23 84 -171 178 -219 99
-50 185 -66 372 -66 180 0 271 11 390 47 101 31 455 175 530 216 38 20 71 34
75 30 30 -30 -106 -182 -277 -309 -135 -101 -270 -179 -553 -320 -175 -87
-264 -123 -435 -181 -211 -70 -356 -117 -434 -141 -22 -7 -41 -18 -44 -24 -5
-18 110 -89 171 -107 180 -50 263 -50 516 4 238 51 316 75 496 152 192 83 268
111 259 96 -68 -114 -481 -526 -694 -693 -215 -167 -419 -336 -435 -358 -40
-57 1 -77 160 -77 101 0 333 40 442 76 163 53 498 264 657 413 36 33 38 34 31
11 -18 -63 -162 -293 -284 -455 -86 -113 -221 -313 -221 -326 0 -5 15 -12 32
-17 l33 -9 0 -89 c0 -88 0 -89 25 -92 55 -6 477 83 554 117 23 10 66 38 96 62
96 78 120 93 120 74 0 -8 -15 -55 -34 -103 -51 -132 -70 -229 -71 -367 0 -101
3 -125 19 -152 39 -64 152 -98 244 -74 24 7 93 45 153 86 l109 74 16 -57 c43
-157 76 -219 144 -274 51 -40 138 -68 214 -68 95 0 165 29 231 96 29 30 55 54
57 54 3 0 17 -28 33 -62 30 -66 136 -181 183 -199 30 -12 135 -11 241 1 110
12 148 37 190 121 17 35 34 80 37 101 4 21 9 38 13 38 3 0 21 -23 39 -51 40
-60 79 -86 146 -94 28 -3 102 -13 165 -22 146 -20 174 -13 231 60 49 61 90
137 90 167 0 18 9 14 58 -30 110 -98 266 -152 395 -136 37 5 86 22 130 44 59
31 80 49 119 102 26 36 63 82 82 104 l35 38 58 -8 c32 -5 101 -9 153 -9 93 0
97 1 190 48 138 69 130 59 143 182 l11 107 30 -6 c17 -3 103 -9 191 -12 130
-5 177 -3 245 10 189 38 298 128 316 260 l7 45 37 -25 c78 -52 182 -40 288 33
57 39 130 140 205 283 38 74 44 80 76 85 161 24 292 77 371 151 72 67 94 113
95 195 0 57 -5 76 -37 138 -35 68 -35 71 -15 71 12 0 54 -9 92 -20 135 -39
201 -20 319 91 89 83 130 165 134 269 3 59 -1 87 -17 129 -21 51 -21 55 -5 73
10 10 34 28 53 40 68 42 178 127 205 158 34 41 40 68 32 143 -11 111 -61 194
-197 328 -109 107 -189 195 -189 210 0 4 12 10 26 13 65 17 104 69 104 139 0
18 6 41 13 51 13 18 16 17 58 -9 24 -15 94 -74 154 -130 143 -132 342 -282
436 -329 93 -45 242 -84 379 -97 214 -20 291 -63 399 -218 41 -59 81 -105 110
-125 90 -62 130 -107 170 -190 240 -498 279 -591 410 -977 49 -145 137 -403
196 -574 133 -389 207 -629 235 -770 40 -203 77 -340 109 -403 17 -34 35 -62
39 -62 4 0 23 20 42 45 19 24 38 44 42 45 10 0 54 -78 68 -122 6 -21 14 -38
16 -38 31 0 182 106 199 140 9 17 24 30 34 30 10 0 56 -25 101 -55 45 -30 90
-55 99 -55 9 0 30 7 46 16 79 43 78 43 127 32 l48 -11 34 39 34 39 120 -3
c113 -3 121 -2 145 20 14 13 40 59 58 103 29 70 44 91 118 165 48 47 101 107
118 134 73 111 100 255 57 313 -53 72 -35 86 61 47 87 -34 174 -42 247 -20 72
21 86 37 69 79 -26 64 -26 63 31 79 49 13 55 19 84 70 18 31 55 84 83 118 64
77 80 108 125 247 43 134 45 183 11 287 -22 67 -35 186 -20 186 2 0 30 -12 62
-26 76 -34 101 -41 203 -59 141 -26 316 -36 403 -25 93 11 127 26 143 60 18
37 57 227 50 245 -4 11 2 15 22 15 46 1 236 36 259 48 12 7 27 28 33 48 11 33
10 38 -14 63 -15 15 -29 44 -33 64 l-6 37 71 0 c79 0 84 3 116 70 l21 45 60 3
c32 2 65 8 71 13 21 17 84 160 105 237 13 45 18 84 14 103 -4 16 -31 58 -62
92 -69 78 -101 136 -81 148 7 5 62 37 122 71 137 79 225 158 265 240 27 53 31
72 30 137 0 42 -4 84 -7 94 -4 10 -43 38 -87 64 -44 25 -114 66 -155 90 -41
24 -100 51 -130 60 -30 9 -58 20 -63 23 -14 12 86 57 196 89 156 45 237 87
378 196 136 105 306 273 316 313 12 51 -48 125 -137 166 -43 20 -57 21 -275
16 -606 -12 -740 -4 -1185 71 -405 69 -585 110 -1004 230 -223 64 -395 123
-559 193 -56 24 -149 63 -207 87 -251 103 -337 193 -375 390 -8 41 -23 120
-33 176 -25 129 -48 178 -165 355 -85 129 -127 199 -127 211 0 3 20 8 45 11
24 4 77 23 117 43 75 38 185 134 174 152 -4 6 15 -1 42 -15 124 -64 278 -52
457 36 134 66 154 84 166 145 5 28 7 67 3 87 l-6 38 48 -21 c41 -19 61 -21
163 -17 136 5 249 39 344 102 92 61 123 131 92 207 -5 14 11 17 112 27 235 22
380 96 413 213 16 55 1 95 -76 211 -41 60 -74 114 -74 119 0 5 17 2 38 -7 121
-53 306 -114 344 -114 118 0 198 150 198 373 0 70 -15 120 -50 164 -11 14 -19
28 -16 30 2 2 56 -5 121 -17 150 -26 245 -27 275 -2 33 26 51 111 57 262 4
121 3 139 -15 172 l-20 38 37 6 c104 19 232 116 271 205 15 37 22 72 22 121 0
66 -3 74 -50 151 -79 130 -103 183 -89 195 7 5 67 37 134 71 173 88 260 173
278 272 12 66 -43 215 -93 251 -38 27 -33 36 51 92 118 77 217 193 217 253 0
33 -30 63 -99 97 -37 19 -86 54 -110 77 l-43 44 53 16 c107 32 177 77 207 134
18 36 43 127 37 134 -3 2 -75 19 -161 37 -176 37 -264 61 -263 72 0 4 32 27
71 52 126 81 218 176 218 225 0 29 -60 74 -125 94 -61 19 -109 25 -402 52
l-132 11 53 37 c290 195 305 211 327 352 11 72 9 192 -4 205 -9 10 -126 -40
-273 -116 -138 -72 -225 -103 -271 -98 -25 3 -28 6 -25 38 5 50 22 76 107 170
134 148 221 285 249 394 13 48 14 72 5 121 -13 77 -21 89 -48 80 -12 -3 -101
-86 -199 -182 -177 -177 -261 -247 -577 -489 -185 -141 -264 -198 -270 -192
-14 13 73 194 178 373 130 220 186 385 171 510 -7 67 -27 115 -48 115 -8 0
-28 -16 -44 -35z"/>
</g>
</svg>
