<?xml version="1.0" standalone="no"?>
<!DOCTYPE svg PUBLIC "-//W3C//DTD SVG 20010904//EN"
 "http://www.w3.org/TR/2001/REC-SVG-20010904/DTD/svg10.dtd">
<svg version="1.0" xmlns="http://www.w3.org/2000/svg"
 width="1536.000000pt" height="1123.000000pt" viewBox="0 0 1536.000000 1123.000000"
 preserveAspectRatio="xMidYMid meet">
<metadata>
Created by potrace 1.16, written by Peter Selinger 2001-2019
</metadata>
<g transform="translate(0.000000,1123.000000) scale(0.100000,-0.100000)"
fill="#FFFFFF" stroke="none">
<path d="M12345 11219 c-667 -68 -1395 -381 -1860 -798 -114 -102 -172 -173
-303 -371 -140 -213 -219 -316 -303 -395 -183 -174 -345 -279 -848 -549 -403
-217 -799 -479 -1161 -769 -172 -138 -295 -245 -575 -501 -132 -121 -285 -261
-340 -311 -640 -584 -1155 -996 -1983 -1588 -412 -294 -609 -415 -977 -600
-188 -94 -258 -141 -358 -241 -164 -164 -171 -289 -21 -345 103 -39 193 -30
439 43 183 55 280 44 375 -41 27 -25 50 -48 50 -53 0 -4 -96 -68 -212 -141
-462 -290 -776 -510 -1114 -778 -492 -390 -734 -577 -1379 -1061 -689 -517
-947 -716 -1145 -886 -58 -49 -164 -138 -236 -196 -239 -195 -345 -331 -346
-445 0 -63 8 -89 39 -131 34 -45 72 -62 141 -62 77 0 146 21 262 81 121 62
212 123 490 328 409 301 706 530 1495 1151 759 597 1290 1002 1649 1259 304
217 747 512 819 547 80 38 179 61 220 50 43 -10 80 -50 130 -139 88 -156 217
-287 344 -348 155 -74 330 -94 683 -78 135 6 385 9 560 6 436 -7 607 -35 790
-127 155 -79 219 -133 620 -525 255 -249 592 -556 1116 -1016 71 -63 224 -191
340 -286 248 -203 377 -322 477 -442 149 -177 216 -315 224 -462 7 -108 -4
-153 -79 -343 -67 -170 -88 -246 -88 -332 0 -222 177 -377 348 -304 53 23 109
75 136 128 l15 29 -67 -14 c-119 -25 -162 2 -149 97 12 95 138 289 286 442
142 148 239 200 374 199 68 0 86 -5 130 -29 29 -16 118 -65 198 -109 171 -94
236 -136 243 -161 16 -48 -70 -189 -143 -237 -108 -72 -268 -23 -433 133 l-68
64 0 -54 c0 -215 167 -362 426 -375 261 -14 461 93 564 300 40 80 44 97 48
175 3 69 0 99 -16 143 -63 180 -265 334 -521 400 -42 11 -132 24 -200 30 -68
5 -185 21 -260 35 -219 41 -242 44 -331 44 -69 0 -95 5 -137 25 -78 36 -214
173 -388 390 -217 272 -333 395 -935 998 -296 295 -536 537 -535 537 2 0 34
-19 71 -42 121 -73 383 -204 564 -281 217 -93 419 -168 905 -337 864 -300
1096 -384 1225 -440 74 -32 161 -66 193 -75 31 -9 57 -21 57 -26 0 -6 -6 -7
-12 -3 -7 4 -6 0 2 -9 26 -28 272 -177 360 -219 47 -22 96 -45 109 -51 17 -9
31 -33 50 -87 34 -96 60 -139 122 -194 45 -40 53 -65 16 -51 -8 4 -33 -10 -56
-29 -49 -41 -99 -54 -142 -36 -16 7 -58 47 -92 88 l-62 75 -3 -76 c-3 -91 7
-136 47 -198 113 -179 472 -87 752 193 160 160 231 327 194 455 -30 104 -162
206 -348 269 -104 35 -162 40 -247 19 -187 -46 -484 38 -1110 315 -207 91
-295 129 -890 372 -228 93 -420 173 -428 177 -9 5 13 11 57 15 167 17 435 98
698 212 177 77 906 429 1078 521 442 238 699 426 1000 734 651 666 1087 1587
1234 2604 52 358 73 853 53 1250 -13 244 -5 338 34 425 62 139 259 274 659
450 206 91 294 139 348 191 35 34 47 53 47 75 0 16 3 45 6 65 l6 35 -139 32
c-76 18 -228 50 -338 72 -110 21 -225 47 -255 57 -72 24 -86 51 -99 203 -18
216 -95 355 -315 576 -382 382 -782 591 -1281 669 -121 19 -465 27 -590 14z"/>
</g>
</svg>
