<?xml version="1.0" standalone="no"?>
<!DOCTYPE svg PUBLIC "-//W3C//DTD SVG 20010904//EN"
 "http://www.w3.org/TR/2001/REC-SVG-20010904/DTD/svg10.dtd">
<svg version="1.0" xmlns="http://www.w3.org/2000/svg"
 width="769.000000pt" height="1536.000000pt" viewBox="0 0 769.000000 1536.000000"
 preserveAspectRatio="xMidYMid meet">
<metadata>
Created by potrace 1.16, written by Peter Selinger 2001-2019
</metadata>
<g transform="translate(0.000000,1536.000000) scale(0.100000,-0.100000)"
fill="#FFFFFF" stroke="none">
<path d="M3006 15334 c-121 -52 -170 -57 -537 -50 -226 5 -358 3 -405 -4 -235
-37 -703 -265 -890 -434 -48 -42 -57 -58 -120 -204 -39 -90 -115 -151 -444
-352 -353 -216 -481 -328 -562 -489 -30 -60 -33 -76 -36 -173 l-4 -106 474
-156 c513 -169 754 -261 943 -360 229 -119 378 -229 540 -398 166 -172 303
-388 405 -634 l51 -124 -59 -78 c-181 -237 -259 -439 -296 -770 -8 -68 -17
-126 -20 -129 -3 -3 -18 -1 -35 5 -35 12 -41 3 -41 -61 0 -23 -10 -98 -21
-167 -12 -69 -23 -180 -25 -248 -3 -140 5 -124 -123 -266 -39 -44 -73 -89 -76
-100 -2 -12 -9 -64 -15 -116 -18 -144 -55 -327 -126 -624 -116 -480 -144 -650
-144 -869 0 -147 9 -194 73 -392 38 -117 42 -140 42 -230 0 -85 -5 -118 -35
-220 -31 -107 -35 -132 -34 -230 2 -224 57 -413 272 -927 143 -340 170 -450
179 -728 10 -302 -41 -690 -148 -1112 -27 -109 -29 -129 -23 -217 8 -121 -1
-146 -50 -137 l-33 6 -18 -62 c-111 -403 -286 -824 -685 -1648 -623 -1286
-781 -1718 -845 -2311 -7 -68 0 -76 80 -89 68 -11 85 -23 85 -61 0 -56 46 -42
348 111 305 153 434 206 616 251 122 30 349 64 370 56 6 -3 17 -22 25 -43 19
-55 66 -136 113 -196 l41 -51 146 6 c210 10 290 28 579 136 60 22 84 28 86 19
2 -7 9 -32 15 -55 18 -64 57 -87 156 -91 256 -11 446 143 529 431 51 177 69
340 86 787 12 295 22 422 46 539 15 71 44 161 63 190 17 27 91 24 219 -8 144
-37 219 -46 295 -37 54 7 56 8 116 84 90 114 105 150 106 252 0 78 -2 85 -21
88 -13 2 -45 -18 -90 -54 -38 -31 -87 -65 -109 -75 -44 -20 -119 -25 -159 -9
-23 8 -25 15 -24 54 3 50 -9 67 -67 104 -22 14 -45 32 -52 41 -21 27 -16 81
10 106 12 13 30 34 39 48 l17 24 55 -27 c75 -38 216 -62 341 -58 l100 3 25 50
c21 43 25 67 28 167 11 357 -184 708 -438 785 -30 9 -56 18 -58 19 -2 1 19 69
46 150 28 82 56 174 62 205 l12 55 58 12 c74 16 162 60 225 114 102 87 164
170 385 519 83 131 193 246 275 284 50 24 74 29 140 29 44 1 91 -2 106 -6 23
-7 25 -12 25 -64 l-1 -57 70 -64 c64 -58 142 -116 478 -353 140 -99 198 -159
334 -346 55 -77 134 -171 174 -209 185 -176 249 -254 271 -329 8 -24 12 -94
12 -166 -1 -134 -18 -215 -71 -358 -32 -82 -47 -88 -78 -29 -11 20 -23 37 -27
37 -23 0 -29 -243 -9 -360 17 -94 121 -552 130 -570 12 -22 127 -78 201 -96
45 -12 89 -15 145 -11 205 13 337 124 379 319 l6 28 100 0 99 0 86 122 c141
200 165 261 165 426 0 117 5 105 -124 277 -217 290 -475 541 -1066 1035 -448
375 -640 549 -795 720 -78 86 -105 110 -125 110 -29 0 -117 50 -198 112 -62
48 -69 57 -51 69 10 6 16 38 19 104 5 80 9 99 27 117 l22 22 10 -27 c15 -38
33 -34 69 18 37 52 52 51 52 -5 0 -44 8 -70 21 -70 14 0 200 196 231 244 l28
41 6 -33 c8 -39 13 -40 44 -7 24 25 73 34 85 15 14 -23 22 -7 17 39 -2 27 1
73 8 102 22 91 120 169 214 169 22 0 26 4 26 28 0 35 38 92 129 197 39 44 71
83 71 88 0 19 20 4 20 -17 0 -64 46 -136 88 -136 23 0 24 3 17 38 -3 20 -21
75 -40 121 l-33 84 53 49 c119 109 250 316 354 562 34 78 108 271 165 429 183
498 242 623 361 755 43 48 43 48 34 97 -11 56 -7 87 28 233 13 57 26 138 27
180 2 64 8 88 35 141 46 90 97 252 123 389 19 99 22 152 23 352 0 408 -46 648
-288 1495 -63 220 -120 423 -126 452 -11 43 -18 53 -44 64 -49 20 -96 68 -145
144 -59 92 -78 112 -137 142 -38 20 -70 27 -137 31 -83 5 -87 6 -93 31 -11 45
-55 99 -142 172 -46 39 -93 80 -104 92 -26 28 -120 213 -366 727 -344 718
-530 1038 -791 1364 -511 638 -1185 965 -2062 1000 -118 5 -129 4 -184 -20z"/>
</g>
</svg>
