<?xml version="1.0" standalone="no"?>
<!DOCTYPE svg PUBLIC "-//W3C//DTD SVG 20010904//EN"
 "http://www.w3.org/TR/2001/REC-SVG-20010904/DTD/svg10.dtd">
<svg version="1.0" xmlns="http://www.w3.org/2000/svg"
 width="1536.000000pt" height="1062.000000pt" viewBox="0 0 1536.000000 1062.000000"
 preserveAspectRatio="xMidYMid meet">
<metadata>
Created by potrace 1.16, written by Peter Selinger 2001-2019
</metadata>
<g transform="translate(0.000000,1062.000000) scale(0.100000,-0.100000)"
fill="#FFFFFF" stroke="none">
<path d="M12104 10590 c-321 -34 -661 -179 -918 -392 -102 -85 -466 -465 -582
-610 -102 -125 -228 -294 -301 -404 -107 -159 -354 -335 -818 -584 -273 -146
-425 -239 -561 -340 -107 -80 -235 -159 -789 -488 -203 -121 -425 -270 -539
-363 -125 -101 -261 -181 -678 -397 -436 -227 -525 -278 -602 -350 -170 -156
-320 -249 -776 -482 -190 -97 -392 -205 -450 -241 -58 -37 -148 -87 -200 -112
-191 -93 -354 -213 -542 -400 -62 -62 -221 -209 -353 -328 -132 -119 -274
-256 -315 -304 -69 -79 -180 -230 -180 -245 0 -8 56 -40 93 -52 18 -6 122 -14
232 -18 177 -6 206 -9 252 -29 74 -33 83 -47 34 -55 -21 -3 -66 -24 -100 -47
-59 -39 -69 -52 -211 -249 -25 -35 -66 -80 -92 -101 -26 -20 -72 -66 -101
-101 -93 -109 -170 -170 -457 -363 -221 -148 -363 -261 -389 -308 -95 -175
-215 -295 -412 -415 -36 -22 -146 -83 -245 -137 -274 -149 -349 -201 -413
-286 -96 -126 -206 -210 -520 -399 -224 -136 -331 -211 -431 -305 -36 -34
-154 -127 -261 -207 -287 -215 -394 -337 -444 -512 -14 -49 -15 -60 -4 -68 21
-13 81 -2 202 38 59 20 113 34 119 32 7 -3 -13 -24 -45 -49 -31 -24 -57 -52
-57 -61 0 -25 48 -58 84 -58 17 0 62 11 100 25 85 30 349 176 471 260 96 67
210 127 365 193 52 22 122 52 155 66 l60 26 -37 -33 c-20 -18 -96 -68 -170
-111 -73 -43 -171 -102 -217 -130 -186 -112 -320 -299 -268 -370 32 -43 91
-16 213 98 81 74 99 82 89 36 -4 -18 -3 -30 3 -30 17 0 102 68 182 144 119
115 171 156 196 156 21 0 24 -5 24 -34 0 -39 15 -49 60 -36 51 15 92 45 221
165 141 131 218 191 204 159 -4 -10 -10 -31 -13 -47 -4 -24 -1 -27 25 -27 36
0 108 45 177 109 50 47 53 49 122 53 95 5 166 42 322 166 160 129 247 171 354
172 34 0 272 105 983 436 87 41 162 74 165 74 3 0 5 -48 5 -108 0 -118 13
-155 68 -196 63 -46 186 -15 327 84 47 33 132 83 190 111 85 42 706 329 746
345 6 3 10 -13 10 -43 -1 -47 0 -48 31 -51 20 -2 54 8 95 29 86 43 240 151
286 201 54 58 127 98 182 98 28 0 98 -18 182 -47 l137 -47 78 27 c43 15 89 27
102 27 23 0 23 -1 16 -64 -6 -59 -5 -65 17 -80 14 -10 43 -16 77 -16 71 0 125
-34 229 -145 81 -86 143 -135 172 -135 10 0 50 29 90 65 153 138 291 182 431
138 36 -11 79 -16 129 -14 50 2 119 -6 208 -23 142 -28 215 -32 274 -15 74 20
116 -41 147 -215 23 -125 48 -183 100 -228 21 -18 51 -53 68 -78 33 -49 99
-113 209 -203 85 -70 128 -125 181 -232 22 -44 88 -159 148 -255 258 -415 382
-636 410 -728 10 -33 -57 -95 -118 -111 -63 -15 -99 -14 -250 10 -186 29 -285
27 -352 -5 -56 -28 -126 -102 -150 -160 -33 -78 -3 -191 57 -222 63 -33 106
20 115 142 l6 74 41 0 c53 -1 112 -28 196 -90 93 -69 143 -90 215 -90 63 0
127 24 200 73 l36 25 75 -24 c127 -41 239 -48 504 -35 129 7 291 19 360 27 92
10 253 14 609 14 l484 0 72 69 c110 104 202 126 273 66 41 -34 55 -75 50 -141
l-5 -56 29 6 c136 27 169 220 63 359 -40 53 -139 105 -216 114 -71 8 -126 -9
-313 -100 -156 -75 -176 -82 -241 -85 -82 -5 -128 13 -180 68 -16 18 -77 73
-135 123 -153 132 -257 234 -299 297 -43 63 -409 666 -492 810 l-54 95 -5 121
c-6 119 -7 124 -49 209 -34 70 -60 105 -127 171 -46 46 -90 84 -98 84 -7 0
-25 9 -40 21 -54 43 -20 129 90 227 58 52 140 100 151 88 3 -3 0 -24 -7 -46
-15 -44 -6 -90 18 -98 8 -2 67 52 135 122 92 95 130 127 154 132 26 5 63 40
180 168 145 158 577 595 802 812 65 63 149 158 199 224 118 160 223 292 547
691 467 574 685 878 878 1224 52 94 108 193 125 221 79 135 159 353 216 594
74 311 124 598 136 775 20 313 67 603 103 642 16 18 21 40 25 118 3 52 8 98
13 100 4 3 15 -3 25 -12 16 -17 17 -15 11 39 -10 81 -1 114 39 137 24 15 35
29 40 57 l7 37 12 -29 12 -29 6 25 c3 14 10 77 16 140 7 84 14 117 25 126 9 6
16 18 16 26 0 19 20 38 42 38 13 0 19 11 24 40 5 29 21 56 62 100 114 127 247
164 712 200 375 29 498 49 647 101 45 16 95 29 113 29 18 0 33 6 37 15 16 43
-71 182 -184 292 -46 46 -90 76 -160 112 -205 102 -443 183 -579 197 -48 5
-62 11 -70 28 -24 56 -112 69 -479 71 -263 1 -319 4 -370 19 -90 27 -181 78
-275 156 -256 212 -733 340 -1116 300z m-2794 -8668 c34 -37 103 -128 154
-202 82 -120 106 -146 209 -233 222 -188 391 -409 605 -796 89 -159 91 -164
77 -192 -37 -70 -105 -78 -216 -22 -52 26 -92 56 -140 106 -91 95 -92 96 -195
195 -142 136 -228 261 -399 582 -48 91 -122 223 -164 295 l-76 130 0 90 c0 54
5 103 14 122 l13 33 29 -20 c15 -11 55 -51 89 -88z"/>
</g>
</svg>
