<?xml version="1.0" standalone="no"?>
<!DOCTYPE svg PUBLIC "-//W3C//DTD SVG 20010904//EN"
 "http://www.w3.org/TR/2001/REC-SVG-20010904/DTD/svg10.dtd">
<svg version="1.0" xmlns="http://www.w3.org/2000/svg"
 width="1289.000000pt" height="1367.000000pt" viewBox="0 0 1289.000000 1367.000000"
 preserveAspectRatio="xMidYMid meet">
<metadata>
Created by potrace 1.16, written by Peter Selinger 2001-2019
</metadata>
<g transform="translate(0.000000,1367.000000) scale(0.100000,-0.100000)"
fill="#FFFFFF" stroke="none">
<path d="M9585 13639 c-112 -10 -295 -40 -430 -71 -259 -59 -699 -296 -1034
-556 -83 -65 -317 -319 -390 -424 -20 -28 -57 -81 -83 -117 -45 -64 -128 -197
-180 -291 -14 -25 -45 -88 -68 -140 -22 -52 -58 -129 -79 -170 -21 -41 -42
-91 -45 -110 -4 -19 -23 -100 -42 -180 -18 -80 -36 -162 -39 -182 -6 -41 24
-12 -400 -374 -121 -103 -271 -236 -334 -296 -62 -59 -116 -108 -120 -108 -10
0 -521 -538 -560 -590 -19 -25 -61 -76 -93 -113 -91 -107 -300 -428 -371 -572
-75 -153 -163 -357 -172 -402 -5 -24 -37 -61 -132 -150 -69 -65 -153 -147
-187 -182 -34 -35 -118 -124 -188 -197 -70 -74 -168 -191 -219 -261 -51 -71
-112 -152 -136 -182 -24 -30 -96 -131 -159 -225 -64 -94 -173 -254 -244 -356
-228 -328 -257 -373 -326 -500 -37 -69 -88 -161 -115 -206 -27 -44 -71 -134
-99 -200 -28 -65 -64 -139 -80 -164 -38 -59 -80 -150 -80 -173 0 -19 -14 -38
-150 -200 -200 -238 -304 -392 -423 -627 -80 -160 -164 -353 -168 -390 -7 -66
25 -51 142 62 57 57 149 146 203 198 54 52 141 146 194 209 227 269 226 268
372 381 61 47 188 120 209 120 15 0 -61 -278 -147 -539 -54 -166 -53 -164
-274 -340 -131 -105 -167 -142 -192 -202 -21 -50 -56 -245 -56 -311 l0 -57 42
-12 c40 -10 66 -7 127 18 10 4 11 -1 6 -18 -9 -32 -146 -331 -205 -449 -51
-102 -207 -368 -270 -459 -21 -31 -86 -128 -144 -216 -59 -88 -143 -213 -189
-277 -45 -65 -108 -155 -140 -200 -32 -46 -126 -182 -209 -303 -83 -121 -173
-247 -200 -280 -27 -33 -91 -114 -141 -180 -94 -124 -261 -327 -370 -451 -34
-39 -84 -100 -112 -135 -42 -54 -174 -209 -433 -512 -46 -53 -183 -232 -232
-303 -8 -12 -43 -58 -78 -103 -35 -45 -84 -118 -111 -164 -26 -45 -77 -127
-113 -182 -77 -118 -83 -130 -91 -172 -6 -32 -6 -33 28 -33 19 0 95 20 168 44
74 24 150 47 168 51 19 4 47 14 63 22 16 8 65 26 110 40 45 13 88 26 96 29 12
4 16 -5 18 -42 1 -26 8 -56 15 -68 19 -28 118 -62 142 -49 23 13 160 140 242
226 36 37 71 67 79 67 7 0 36 29 64 65 28 36 56 65 60 65 5 0 30 28 56 63 63
82 158 192 265 302 47 50 103 113 123 140 21 28 117 133 214 234 170 178 211
224 419 484 52 65 117 143 144 173 27 30 74 94 105 142 62 96 190 261 300 386
39 45 110 128 158 186 180 216 445 509 571 632 133 129 229 194 315 213 19 4
84 27 145 51 267 105 374 152 430 190 33 23 94 57 136 76 41 19 116 62 166 96
49 33 119 74 155 90 36 16 90 48 119 70 30 22 104 70 164 107 103 62 166 105
409 278 52 37 117 80 143 95 26 14 82 53 125 87 42 33 107 79 145 101 l69 41
159 7 160 7 82 -68 c46 -37 109 -85 140 -106 139 -90 679 -578 808 -729 22
-26 84 -95 138 -154 132 -144 132 -143 113 -188 -8 -20 -29 -48 -46 -62 -35
-30 -118 -74 -140 -74 -8 0 -28 -7 -44 -15 -15 -8 -41 -15 -56 -15 -29 0 -43
-18 -31 -38 10 -17 109 -34 153 -27 39 7 152 50 205 78 34 18 113 130 113 161
0 15 5 17 28 13 15 -4 57 -13 93 -20 115 -25 344 14 374 63 4 6 31 22 62 35
30 14 75 43 100 65 51 44 56 46 72 27 17 -21 164 -87 207 -94 24 -4 54 -19 76
-39 33 -29 41 -32 64 -24 18 7 36 7 59 -1 23 -9 44 -9 73 -2 39 10 41 10 53
-19 7 -16 22 -36 35 -44 12 -9 31 -32 42 -52 10 -20 27 -52 36 -69 19 -36 37
-41 56 -18 17 20 33 19 47 -5 23 -35 79 -44 179 -27 115 20 270 71 313 104 57
44 135 125 169 177 34 53 86 201 96 276 7 58 -5 114 -26 118 -17 3 -52 -45
-111 -149 -74 -132 -176 -232 -276 -269 l-50 -19 -7 22 c-14 49 -51 82 -110
101 -33 11 -62 21 -66 23 -10 5 20 63 32 63 6 0 16 12 22 26 18 39 58 51 137
40 84 -12 126 -4 185 35 52 35 128 135 151 199 31 87 6 236 -58 352 -45 79
-55 88 -194 181 -96 64 -124 78 -190 92 -43 10 -127 32 -188 51 -60 18 -150
40 -200 49 -127 23 -303 71 -409 112 -50 20 -99 39 -110 42 -15 6 -10 12 30
37 27 16 92 49 144 73 52 23 112 51 132 62 20 10 43 19 50 19 15 0 147 65 193
94 283 183 478 319 654 458 96 76 453 418 635 607 128 135 170 182 344 395 71
87 285 388 379 534 111 171 255 432 299 539 63 150 123 349 150 493 13 69 33
168 45 220 14 63 23 157 29 280 4 102 14 284 20 405 17 290 8 645 -20 820 -57
363 -83 580 -75 638 6 38 3 52 -10 67 -15 16 -17 56 -18 367 -2 256 1 363 11
405 l13 56 67 21 c37 11 124 34 192 51 143 36 297 94 700 265 94 39 129 47
176 40 60 -9 65 9 21 77 -39 60 -236 256 -342 340 -144 114 -361 252 -510 323
-83 40 -166 77 -185 83 -28 10 -39 21 -54 59 -11 25 -53 87 -95 137 -42 50
-87 108 -101 128 -30 44 -149 147 -240 208 -36 24 -101 69 -145 101 -196 141
-327 202 -570 263 -293 74 -679 103 -1010 75z m-1585 -8904 c138 -33 356 -106
505 -168 160 -66 205 -90 237 -124 29 -31 108 -192 108 -220 0 -10 14 -38 30
-63 16 -25 30 -49 30 -54 0 -14 89 -185 121 -233 16 -24 27 -43 25 -43 -2 0
-20 7 -41 16 -20 8 -74 18 -120 21 -78 5 -83 5 -95 -16 -8 -17 -9 -31 -1 -53
6 -17 10 -32 9 -34 -2 -1 -36 14 -76 34 -93 48 -174 120 -247 221 -32 45 -64
81 -71 81 -37 0 18 -189 83 -284 18 -26 33 -52 33 -56 0 -4 -40 -26 -89 -49
-115 -53 -212 -69 -308 -52 -38 7 -73 15 -79 19 -8 5 -7 26 3 72 25 115 2 283
-44 317 -14 11 -14 15 2 50 10 21 23 45 30 53 21 25 26 98 16 230 -12 163 -30
205 -113 266 -33 24 -86 52 -117 61 l-56 17 40 7 c67 11 77 10 185 -16z m-300
-243 c37 -40 63 -98 57 -124 -20 -88 -58 -225 -73 -263 l-17 -46 -50 48 c-27
26 -78 85 -113 130 -36 45 -88 102 -117 127 l-51 44 24 20 c14 11 61 32 105
46 44 15 87 31 95 36 8 5 38 10 65 10 42 -1 54 -5 75 -28z m1926 -197 c26 -17
60 -80 69 -129 l7 -36 -103 0 c-115 1 -135 7 -175 60 -22 30 -64 112 -64 126
0 11 246 -9 266 -21z"/>
</g>
</svg>
