<?xml version="1.0" standalone="no"?>
<!DOCTYPE svg PUBLIC "-//W3C//DTD SVG 20010904//EN"
 "http://www.w3.org/TR/2001/REC-SVG-20010904/DTD/svg10.dtd">
<svg version="1.0" xmlns="http://www.w3.org/2000/svg"
 width="1467.000000pt" height="1536.000000pt" viewBox="0 0 1467.000000 1536.000000"
 preserveAspectRatio="xMidYMid meet">
<metadata>
Created by potrace 1.16, written by Peter Selinger 2001-2019
</metadata>
<g transform="translate(0.000000,1536.000000) scale(0.100000,-0.100000)"
fill="#FFFFFF" stroke="none">
<path d="M11367 15350 c-281 -27 -552 -93 -932 -227 -193 -68 -274 -109 -447
-226 -99 -67 -175 -111 -209 -121 -29 -9 -123 -25 -209 -36 -85 -11 -200 -34
-255 -50 -55 -16 -162 -45 -239 -64 -76 -20 -173 -51 -215 -70 -522 -233 -571
-262 -571 -340 0 -71 76 -115 301 -177 85 -23 233 -73 329 -111 96 -39 240
-92 320 -119 430 -147 674 -337 787 -615 23 -56 36 -108 40 -156 6 -71 6 -72
71 -142 46 -50 77 -96 105 -156 59 -128 117 -312 124 -389 5 -62 3 -73 -22
-120 -43 -79 -174 -197 -336 -304 -79 -52 -236 -170 -349 -262 -113 -92 -259
-211 -325 -264 -456 -372 -825 -750 -1126 -1152 -47 -64 -151 -213 -230 -330
-411 -614 -786 -1095 -1237 -1587 -199 -217 -319 -337 -557 -557 -307 -285
-385 -373 -529 -594 -97 -148 -199 -260 -391 -429 -175 -153 -328 -306 -395
-393 -75 -97 -244 -351 -304 -456 -72 -125 -101 -146 -309 -222 -124 -46 -171
-77 -330 -219 -256 -228 -440 -444 -668 -782 -118 -176 -203 -267 -361 -388
-174 -133 -573 -485 -858 -756 -146 -139 -312 -294 -370 -346 -162 -143 -213
-195 -335 -335 -61 -71 -154 -175 -205 -230 -160 -173 -270 -325 -270 -373 0
-41 47 -54 98 -28 34 18 96 83 206 216 93 112 268 280 431 414 192 158 617
451 873 602 81 47 218 134 305 193 175 118 259 171 299 188 98 43 -42 -107
-237 -253 -66 -49 -217 -150 -335 -224 -557 -348 -879 -588 -1116 -831 -170
-175 -252 -311 -262 -434 -6 -83 10 -139 58 -202 l38 -51 -150 -123 c-221
-180 -494 -383 -696 -516 -269 -178 -328 -245 -365 -421 -17 -80 -2 -100 98
-134 59 -19 87 -35 107 -58 24 -29 30 -32 62 -26 20 4 87 33 148 64 118 60
120 60 254 52 29 -2 53 5 86 24 80 46 98 31 98 -85 0 -71 0 -72 43 -114 93
-93 242 -98 489 -15 116 39 289 122 388 187 116 77 649 479 910 688 264 212
521 425 749 623 88 76 224 181 320 245 146 98 189 134 356 297 225 220 406
378 530 462 50 34 149 119 222 190 84 82 147 135 175 147 24 10 123 35 221 56
237 48 415 102 586 175 139 59 143 60 234 60 110 0 155 18 321 129 124 83 197
121 286 149 218 67 238 75 289 113 29 22 54 39 56 37 14 -15 47 -161 55 -242
14 -135 23 -165 85 -272 58 -101 70 -133 81 -214 12 -101 48 -170 103 -203 15
-9 63 -67 106 -129 44 -62 166 -234 272 -381 120 -167 238 -344 311 -470 65
-111 164 -274 218 -362 78 -124 115 -196 164 -320 35 -88 85 -196 111 -241 56
-95 83 -159 76 -178 -3 -7 -39 -34 -79 -59 -69 -43 -86 -49 -268 -87 -107 -22
-258 -61 -335 -86 l-140 -46 -80 -82 c-44 -45 -95 -100 -113 -124 l-34 -42
150 0 c104 0 163 4 198 15 27 8 104 26 172 40 105 21 151 25 307 25 215 0 326
18 461 76 l84 36 178 -7 177 -7 57 -47 c56 -45 70 -65 83 -125 3 -17 23 -45
42 -64 l36 -34 19 24 c38 49 52 93 54 163 1 39 2 77 3 86 2 25 127 34 244 18
83 -11 106 -20 237 -86 96 -49 161 -90 195 -122 113 -106 240 -171 336 -171
42 0 53 5 95 44 l49 44 88 -81 c95 -86 96 -87 133 -216 27 -93 47 -123 78
-119 32 5 49 52 47 132 -2 103 -17 167 -68 291 -65 160 -127 268 -188 330
l-53 55 78 0 c50 0 130 11 217 30 178 38 395 60 597 60 138 0 177 4 271 26 61
14 119 28 131 31 13 3 32 -5 51 -21 46 -39 133 -37 210 4 68 37 86 37 108 4
14 -22 83 -60 171 -94 l22 -9 -19 72 c-10 40 -19 74 -19 76 0 2 66 0 148 -3
l147 -8 33 -31 c31 -30 39 -32 116 -35 l84 -4 41 37 c23 21 44 48 47 61 6 23
10 24 93 24 l88 0 31 -44 c18 -24 32 -52 32 -61 0 -10 9 -33 21 -51 23 -37 36
-36 75 8 16 17 23 42 27 91 8 87 -8 121 -99 211 -76 77 -106 94 -229 131 -49
15 -107 36 -128 47 -34 17 -54 19 -160 14 -165 -6 -411 -23 -470 -32 -27 -4
-86 -1 -135 5 l-87 13 -145 -46 -145 -46 -130 10 c-71 6 -154 12 -183 14 -64
6 -104 33 -162 112 -33 44 -46 54 -70 54 -31 0 -56 30 -47 55 9 21 -19 51 -87
94 -36 22 -71 51 -77 63 -7 13 -38 50 -70 83 -31 33 -92 105 -136 161 -103
132 -397 410 -588 556 -107 81 -383 374 -476 504 -96 134 -109 164 -75 164 38
0 128 105 165 190 l31 75 -28 74 -29 74 30 111 c46 175 118 276 224 316 32 12
108 33 168 46 249 55 315 73 365 98 28 14 54 26 56 26 2 0 4 -19 4 -43 0 -80
58 -109 138 -68 20 10 66 40 101 66 36 26 173 113 305 193 455 274 499 310
846 697 253 282 316 367 570 769 135 214 225 335 352 477 117 131 162 189 228
303 29 49 102 154 161 232 225 296 271 404 419 974 83 323 102 375 172 483 84
126 88 139 88 259 0 102 0 103 36 153 63 88 105 186 225 530 41 119 76 415 69
600 -3 77 -5 192 -5 255 0 110 1 117 27 151 48 62 63 142 62 339 l-1 175 -47
160 c-47 159 -86 309 -86 333 0 8 16 12 45 12 25 0 45 2 45 5 0 3 -11 28 -25
55 -14 27 -25 54 -25 59 0 6 18 28 40 50 53 53 52 77 -12 205 -29 58 -50 107
-47 110 2 3 24 0 48 -5 24 -5 46 -7 50 -4 3 4 6 104 5 223 0 205 -1 221 -26
297 l-25 80 23 22 c32 30 30 56 -11 142 -28 59 -35 84 -35 135 0 94 -19 269
-41 381 -42 210 -123 400 -247 583 -112 164 -126 193 -177 342 -26 74 -60 163
-76 196 -34 71 -130 185 -290 340 -120 116 -190 169 -510 382 -513 342 -804
467 -1239 532 -154 23 -492 34 -633 20z m-2480 -11300 c61 -37 66 -59 79 -345
19 -399 35 -441 261 -672 103 -105 159 -155 184 -164 28 -9 105 -86 340 -341
167 -182 372 -394 456 -472 87 -83 214 -217 299 -317 81 -96 194 -223 251
-282 l103 -108 0 -57 c0 -34 -10 -88 -26 -134 l-25 -77 -97 -32 -97 -32 -57
17 c-40 11 -80 34 -130 75 l-73 58 -125 7 c-82 5 -142 3 -175 -4 -103 -23
-222 -29 -436 -20 l-216 8 -66 44 c-37 24 -101 66 -144 93 -118 77 -243 201
-272 272 -17 40 -47 82 -96 133 -40 41 -78 86 -85 100 -7 14 -34 54 -60 90
-26 36 -87 137 -135 225 -48 88 -136 246 -195 350 -59 105 -126 226 -150 270
-24 44 -71 123 -105 175 -33 52 -73 124 -88 159 -24 56 -26 66 -13 80 39 45
91 174 161 401 67 220 101 290 161 334 75 54 209 121 309 155 111 38 212 42
262 11z"/>
</g>
</svg>
