<?xml version="1.0" encoding="utf-8" ?><svg xmlns="http://www.w3.org/2000/svg" xmlns:xlink="http://www.w3.org/1999/xlink" width="1024" height="1024" viewBox="0 0 1024 1024"><path fill="#FFFFFF" d="M710.79 294.205C721.85 293.05 734.341 296.245 744.777 299.634C759.889 304.54 769.604 315.058 779.405 326.913C785.819 327.295 792.138 328.625 798.411 329.162C816.418 330.705 833.656 336.595 847.023 348.896C847.449 349.288 846.985 350.13 846.83 350.616C842.032 355.128 788.913 364.445 776.984 368.316C775.753 370.141 771.552 377.675 770.358 379.572C767.067 384.804 752.631 405.052 751.68 410.264C750.303 417.811 755.624 440.682 755.607 450.611C755.586 462.986 755.185 470.279 753.005 482.38C740.45 552.041 685.903 612.302 616.724 629.569C609.406 631.378 601.989 632.757 594.51 633.7C588.292 634.453 576.827 633.268 578.148 641.261C578.854 645.534 582.526 648.434 585.181 651.608C589.172 656.378 593.756 660.114 598.767 663.705C612.503 673.813 625.103 685.414 638.11 696.379C645.351 702.482 656.612 703.554 665.469 701.053C670.473 699.64 675.463 697.131 680.754 696.682C696.143 695.442 714.702 705.788 716.203 722.372C717.04 731.628 705.844 730.342 699.896 730.233C695.814 727.636 692.601 723.441 688.266 720.344C685.997 722.418 683.322 724.792 680.505 726.29C668.83 732.493 643.547 733.457 630.972 729.187C627.697 728.075 622.246 722.65 617.944 722.352C604.984 721.364 592.357 731.505 579.416 729.031C572.718 727.751 568.783 722.185 561.615 720.194C561.07 722.544 560.093 728.522 557.948 729.42C554.706 730.794 543.005 731.671 541.586 727.336C535.384 708.392 556.485 688.695 574.947 698.961C581.017 702.337 586.701 702.55 592.465 699.035L593.098 698.643C589.638 694.927 570.922 680.836 565.958 676.891L560.094 672.265C553.555 667.093 546.999 661.943 540.652 656.524C533.164 650.132 531.963 644.366 530.877 635.068C516.999 632.066 515.576 626.589 505.05 619.392C503.734 618.492 489.818 619.251 486.563 619.059C478.041 618.557 468.933 617.75 460.471 615.809C447.61 613.851 438.022 604.919 426.568 601.649C423.474 600.765 410.729 603.176 406.678 603.355C395.129 604.259 384.563 603.844 372.954 603.951C361.128 604.06 348.356 600.539 337.313 599.506C335.435 599.33 320.333 604.757 317.46 605.631C295.687 612.054 273.993 618.743 252.384 625.696C242.543 628.845 232.85 632.72 222.957 635.561C212.851 638.462 206.64 636.095 200.27 628.428C195.471 627.958 187.602 627.706 185.096 623.416C173.924 604.292 196.705 600.451 207.218 596.096C223.513 589.345 238.105 585.055 253.946 579.963L305.358 563.645C314.074 560.959 323.155 558.405 331.778 555.558C339.325 553.048 346.239 548.754 353.441 545.449C369.953 537.872 386.451 530.216 403.559 524.071C409.805 521.827 416.017 519.787 421.1 515.415C422.834 510.447 425.276 504.048 429.158 499.951C447.712 480.363 476.8 464.58 501.416 453.8C508.2 450.829 518.065 450.123 523.929 446.639C528.933 443.521 532.738 438.64 537.218 434.903C555.689 419.492 576.014 405.393 597.319 394.2C604.698 390.324 612.322 387.641 619.478 383.8C622.566 377.84 624.643 371.021 627.185 364.889C639.718 334.657 662.755 304.664 696.012 296.691C700.986 295.499 705.637 294.8 710.79 294.205ZM559.016 660.89C568.532 668.403 578.429 675.5 587.685 683.413C591.728 687.511 608.255 696.704 600.826 703.599C598.042 706.182 587.325 711.116 583.241 710.391C572.903 708.556 565.811 699.053 554.737 707.833C551.294 710.515 549.101 714.491 548.669 718.834C548.524 720.403 548.43 721.314 549.006 722.785C552.606 723.905 553.773 717.003 555.156 715.647C565.006 705.983 574.682 719.556 581.161 720.309C592.345 721.608 607.989 712.171 620.017 713.46C624.976 713.79 631.948 720.196 635.327 721.372C644.06 724.414 667.119 723.739 675.352 718.895C680.911 715.625 683.53 711.286 689.772 712.468C697.596 713.949 700.94 723.296 707.727 721.833C708.025 720.433 707.038 718.816 706.29 717.675C702.433 711.781 694.956 707.473 688.209 706.185C679.94 704.605 673.8 707.718 666.032 709.377C661.375 710.373 656.16 710.548 651.422 710.16C646.992 709.797 642.278 708.59 638.448 706.308C630.89 701.805 624.016 694.843 617.177 689.294C607.492 681.436 580.746 661.932 574.531 652.972C570.853 647.67 570.305 640.763 571.597 634.59C572.121 632.088 572.764 629.965 575.015 628.534C576.511 627.583 578.239 627.027 579.97 626.699C584.076 625.919 588.377 626.137 592.533 625.666C600.624 624.75 609.101 623.052 616.981 620.985C678.367 604.888 726.85 553.083 742.602 492.084C746.949 475.249 748.72 456.054 746.457 438.76C745.312 430.017 743.186 421.211 742.857 412.401C742.85 412.196 742.832 411.992 742.827 411.787C742.637 404.129 758.797 382.156 763.373 374.883C765.739 371.123 767.748 366.132 770.839 362.969C775.839 357.851 821.641 349.132 830.936 347.003C818.209 339.648 801.87 336.372 787.325 335.547C771.566 334.653 774.65 333.433 764.709 322.161C753.891 309.894 731.032 302.568 715.082 302.713C688.876 303.9 675.931 312.289 657.471 331.213C648.648 340.257 643.205 350.595 637.535 361.784C633.522 369.705 630.575 383.504 624.987 389.326C621.429 393.033 609.224 397.296 603.99 400.257C595.929 404.817 588.073 409.299 580.191 414.252C567.961 421.792 556.271 430.173 545.206 439.337C540.681 443.017 534.068 450.192 529.589 452.847C523.113 456.685 512.572 457.804 505.224 460.946C480.728 471.421 455.457 486.004 436.215 504.593C429.798 510.792 428.966 520.422 420.942 524.905C417.815 526.578 411.457 529.031 408.018 530.512L377.509 543.805C364.558 549.53 351.364 556.671 338.379 561.983C325.527 567.241 310.441 570.257 297.282 574.946C269.647 584.066 241.442 591.691 214.4 602.478C207.872 605.082 200.979 606.225 194.537 609.228C190.395 611.187 188.205 615.627 192.675 618.951C195.356 620.945 203.012 619.098 204.866 620.577C211.885 626.178 209.07 631.383 221.451 627.435C234.188 623.373 247.262 618.417 260.195 614.024C278.961 607.784 297.843 601.898 316.831 596.367C322.803 594.593 332.83 591.152 338.628 590.346C340.566 590.077 349.609 593.525 353.577 593.985C366.647 595.501 378.777 595.971 391.879 595.595C397.997 595.414 404.109 595.075 410.209 594.577C415.925 594.101 423.263 593.035 428.774 593.514C431.033 593.71 436.361 596.1 438.353 597.371C454.728 607.814 471.086 610.193 490.084 610.75C494.934 610.892 501.475 610.116 506.065 611.136C514.359 613.026 518.683 620.77 525.793 624.668C527.959 625.855 534.552 626.162 535.914 627.63C538.9 630.848 539.144 638.986 540.736 643.232C542.704 648.485 545.93 650.185 550.013 653.675C552.905 656.082 556.033 658.476 559.016 660.89Z"/></svg>