<?xml version="1.0" standalone="no"?>
<!DOCTYPE svg PUBLIC "-//W3C//DTD SVG 20010904//EN"
 "http://www.w3.org/TR/2001/REC-SVG-20010904/DTD/svg10.dtd">
<svg version="1.0" xmlns="http://www.w3.org/2000/svg"
 width="1536.000000pt" height="1206.000000pt" viewBox="0 0 1536.000000 1206.000000"
 preserveAspectRatio="xMidYMid meet">
<metadata>
Created by potrace 1.16, written by Peter Selinger 2001-2019
</metadata>
<g transform="translate(0.000000,1206.000000) scale(0.100000,-0.100000)"
fill="#FFFFFF" stroke="none">
<path d="M12800 12053 c-91 -10 -344 -67 -515 -117 -476 -137 -1030 -369
-1395 -586 -208 -123 -427 -307 -391 -329 25 -16 -114 -162 -349 -367 -174
-152 -478 -402 -965 -794 -1559 -1254 -1970 -1603 -2366 -2006 -227 -232 -316
-355 -328 -453 -6 -42 -16 -54 -291 -319 -916 -885 -1203 -1175 -1505 -1517
-73 -82 -242 -263 -376 -401 -891 -916 -1197 -1280 -1249 -1479 l-13 -50 -376
-179 c-1305 -623 -1762 -872 -2236 -1220 -111 -82 -305 -241 -381 -312 -88
-82 -83 -210 10 -292 63 -55 209 -117 349 -147 22 -4 26 -9 22 -28 -4 -16 1
-29 16 -42 17 -16 34 -20 93 -18 102 2 284 52 744 204 l397 131 220 123 c770
429 1469 802 2330 1241 l370 189 295 1 c462 2 750 41 1078 146 l126 40 20 -29
c65 -91 179 -154 321 -177 50 -9 162 -20 250 -26 181 -13 301 -32 372 -58 l48
-18 127 -589 c117 -546 126 -594 117 -644 -22 -132 -3 -295 52 -426 16 -39 74
-147 129 -240 109 -185 152 -284 171 -390 23 -134 -6 -318 -77 -487 -14 -33
-24 -61 -22 -63 2 -1 37 13 78 33 111 52 218 163 286 297 28 55 59 121 69 148
14 37 21 45 31 36 25 -20 104 -194 125 -274 26 -101 28 -287 5 -427 -20 -123
-20 -125 4 -131 23 -6 55 40 123 178 86 174 129 319 132 450 1 55 11 123 25
175 56 210 -8 448 -177 659 -68 85 -186 187 -258 224 -41 20 -214 200 -262
271 -68 102 -172 479 -203 736 -6 52 -13 106 -14 119 -4 28 23 41 152 73 74
19 114 22 272 22 207 0 253 -6 615 -84 127 -27 277 -57 335 -66 l105 -18 100
-81 c55 -45 231 -182 390 -305 610 -471 880 -697 1033 -868 62 -69 133 -158
137 -169 0 -1 41 -7 90 -13 264 -34 459 -105 552 -202 109 -113 48 -258 -192
-455 l-50 -40 177 -8 c164 -7 182 -6 247 14 102 31 176 102 237 227 l45 93 52
-31 c342 -207 387 -422 161 -760 -30 -45 -54 -84 -54 -88 0 -4 7 -13 15 -20
21 -17 146 72 239 171 199 212 255 523 136 759 -26 51 -109 140 -131 140 -18
0 -39 62 -58 170 -28 150 -39 185 -75 225 l-31 34 -130 11 c-130 11 -377 44
-447 59 -26 6 -50 4 -75 -5 -50 -17 -87 -17 -158 1 -174 46 -391 194 -865 590
-261 218 -469 383 -592 470 l-97 69 337 171 c1122 570 1933 1130 2571 1774
675 682 1083 1403 1230 2173 58 304 75 673 47 1059 -22 317 -22 324 20 448 73
215 156 362 266 467 l53 52 70 -9 c233 -30 857 -79 1002 -79 l45 0 -4 54 c-15
183 -198 369 -745 760 l-123 87 0 107 c0 286 -87 701 -221 1060 -97 258 -164
365 -348 555 -183 189 -382 348 -597 478 -237 144 -356 181 -524 162z"/>
</g>
</svg>
