<?xml version="1.0" standalone="no"?>
<!DOCTYPE svg PUBLIC "-//W3C//DTD SVG 20010904//EN"
 "http://www.w3.org/TR/2001/REC-SVG-20010904/DTD/svg10.dtd">
<svg version="1.0" xmlns="http://www.w3.org/2000/svg"
 width="717.000000pt" height="1536.000000pt" viewBox="0 0 717.000000 1536.000000"
 preserveAspectRatio="xMidYMid meet">
<metadata>
Created by potrace 1.16, written by Peter Selinger 2001-2019
</metadata>
<g transform="translate(0.000000,1536.000000) scale(0.100000,-0.100000)"
fill="#FFFFFF" stroke="none">
<path d="M4798 15351 c-58 -3 -109 -9 -112 -12 -4 -3 0 -12 9 -19 25 -21 17
-30 -25 -30 -58 0 -65 -24 -49 -165 6 -60 12 -122 12 -137 0 -15 -28 -85 -62
-155 -33 -70 -61 -137 -61 -149 0 -31 25 -49 115 -82 44 -17 120 -47 169 -67
49 -21 106 -40 128 -42 43 -6 49 -25 19 -57 -22 -24 -38 -76 -23 -76 5 0 17
10 26 23 l16 22 -2 -30 c-2 -21 -11 -34 -30 -43 -16 -7 -28 -20 -28 -28 0 -24
-26 -68 -75 -125 -38 -45 -45 -59 -45 -97 0 -53 12 -78 42 -86 25 -7 51 -38
63 -76 l7 -25 -24 23 c-25 23 -25 23 -31 3 -3 -13 -13 -21 -26 -21 -49 0 -49
-153 1 -262 32 -72 33 -75 33 -218 0 -133 -2 -150 -27 -212 -38 -94 -65 -244
-50 -269 11 -17 9 -19 -15 -19 -34 0 -66 -25 -87 -67 -24 -48 -21 -73 10 -73
31 0 47 -35 65 -136 8 -44 19 -75 31 -86 11 -10 17 -22 14 -27 -4 -5 3 -28 15
-51 14 -26 26 -80 35 -148 37 -290 54 -405 66 -430 7 -15 27 -33 45 -41 18 -8
35 -21 37 -28 11 -28 -22 -68 -76 -93 -71 -32 -149 -111 -173 -175 -10 -28
-33 -70 -52 -94 -18 -24 -33 -52 -33 -62 0 -23 -59 -187 -70 -194 -8 -5 -105
65 -126 92 -8 11 -13 44 -14 87 l0 70 -55 53 c-30 29 -55 58 -55 63 0 5 10 10
22 12 39 5 33 35 -11 58 -25 12 -41 27 -41 38 0 10 -7 27 -15 38 -20 27 -18
37 5 24 11 -6 20 -7 20 -2 0 6 -35 28 -77 51 -43 22 -69 41 -59 41 18 0 18 1
3 18 -10 10 -21 40 -26 65 -13 69 -23 77 -100 77 -83 0 -111 15 -47 24 26 4
44 11 42 15 -3 4 -36 19 -73 34 -86 34 -133 73 -173 143 -18 30 -43 68 -56 83
-29 35 -415 294 -478 321 -31 13 -56 35 -82 69 -20 29 -44 51 -54 51 -41 0
-50 11 -50 59 0 64 -13 105 -54 165 -45 66 -70 145 -63 194 8 45 70 172 115
230 18 24 30 47 27 52 -3 5 10 31 28 57 19 26 65 99 102 162 95 159 218 320
382 499 146 160 210 250 199 278 -5 14 -16 16 -64 11 -119 -12 -322 -140 -540
-339 -192 -175 -343 -361 -586 -720 -155 -229 -172 -247 -227 -245 -29 1 -45
-4 -54 -16 -16 -22 -21 -21 -28 3 -6 23 -37 27 -37 6 0 -10 -15 -17 -42 -20
-24 -3 -64 -8 -89 -11 -28 -4 -54 -14 -64 -25 -10 -11 -26 -20 -35 -20 -29 0
-130 -38 -250 -94 -63 -30 -138 -62 -167 -71 -39 -13 -77 -39 -155 -109 -57
-51 -148 -127 -203 -170 -189 -146 -585 -526 -585 -561 0 -7 -21 -35 -47 -63
-61 -63 -183 -206 -205 -241 -26 -38 -23 -54 7 -49 14 3 25 2 25 -3 0 -11 -36
-30 -43 -23 -9 9 -23 -26 -41 -96 -9 -36 -35 -96 -57 -135 -26 -45 -48 -101
-61 -155 -11 -47 -46 -193 -78 -325 -100 -412 -102 -424 -105 -830 -2 -262 -4
-312 -23 -395 -58 -267 -73 -519 -47 -845 20 -265 35 -358 75 -461 16 -43 48
-148 69 -234 22 -86 44 -167 49 -181 6 -14 8 -45 5 -70 -6 -61 30 -133 70
-137 34 -4 40 -18 62 -132 20 -104 53 -174 83 -178 13 -2 22 -11 22 -21 0 -25
38 -116 139 -329 107 -226 138 -311 152 -411 6 -42 17 -83 25 -92 8 -8 14 -23
14 -32 0 -40 132 -253 150 -242 19 12 42 -57 36 -106 -6 -44 -5 -47 13 -42 15
4 22 -1 26 -20 4 -14 4 -30 1 -35 -3 -5 5 -18 18 -29 13 -12 29 -37 36 -58
l12 -37 23 22 22 21 7 -31 c7 -36 30 -72 98 -151 35 -42 48 -65 48 -88 0 -24
4 -31 20 -31 11 0 26 -12 34 -28 23 -44 160 -168 200 -182 29 -9 38 -19 48
-51 6 -22 19 -46 28 -52 9 -7 31 -39 49 -72 19 -33 84 -139 146 -235 137 -214
181 -293 191 -343 3 -21 13 -41 21 -44 7 -3 20 -20 27 -37 7 -17 36 -57 64
-88 27 -31 71 -85 97 -120 68 -89 106 -128 127 -128 11 0 20 -10 23 -28 3 -15
20 -63 36 -107 17 -44 40 -107 51 -140 11 -33 27 -73 34 -88 8 -16 12 -33 8
-38 -3 -5 2 -19 10 -31 9 -12 16 -40 16 -60 0 -74 109 -370 160 -435 15 -20
19 -34 14 -59 -5 -26 -2 -35 10 -40 10 -4 15 -13 11 -22 -3 -9 5 -26 19 -41
13 -14 36 -56 51 -93 15 -38 31 -68 36 -68 18 0 20 47 4 94 -9 26 -14 50 -12
52 2 3 17 0 32 -6 15 -6 30 -8 33 -6 2 3 -5 27 -16 54 -37 85 -55 423 -27 494
9 23 26 28 150 44 l110 13 33 -37 c50 -55 108 -183 142 -313 17 -62 35 -130
40 -149 5 -19 10 -57 10 -85 0 -27 3 -61 7 -74 l6 -24 18 24 19 24 0 -31 c0
-17 -9 -43 -21 -58 l-20 -26 21 0 c25 0 37 -26 22 -50 -9 -15 -7 -21 14 -34
17 -12 24 -25 22 -44 -1 -15 8 -41 19 -57 12 -17 27 -57 32 -90 6 -33 20 -72
31 -87 11 -15 20 -41 20 -58 0 -20 5 -30 15 -30 9 0 15 -9 15 -25 0 -14 10
-45 22 -68 11 -23 29 -76 40 -117 10 -41 45 -132 78 -201 121 -258 239 -551
275 -684 10 -33 32 -94 50 -135 19 -41 50 -131 70 -199 38 -129 74 -211 131
-294 37 -54 46 -83 62 -204 7 -48 28 -126 51 -188 92 -244 79 -352 -63 -502
-36 -39 -66 -73 -66 -77 0 -3 675 -6 1500 -6 l1500 0 0 7680 0 7680 -1132 -2
c-623 -1 -1181 -4 -1240 -7z m-1628 -2676 c7 -9 10 -18 7 -21 -10 -11 -37 5
-37 21 0 19 14 19 30 0z m1847 -1657 c32 -36 33 -50 12 -173 l-20 -115 22
-117 c18 -97 20 -124 11 -162 -6 -25 -14 -75 -18 -111 -11 -103 -44 -152 -89
-132 -34 16 -53 50 -66 115 -6 37 -19 67 -36 85 -38 41 -123 224 -123 264 0
47 45 107 103 138 42 23 48 30 68 94 24 73 69 136 98 136 10 0 27 -10 38 -22z
m-248 -2819 c21 -35 51 -179 51 -246 0 -37 -3 -43 -21 -43 -14 0 -26 12 -39
43 -22 50 -56 238 -47 261 10 26 36 18 56 -15z m145 -1328 c17 -15 18 -27 11
-151 -6 -118 -4 -148 16 -240 25 -122 30 -276 10 -333 -18 -52 -100 -129 -246
-232 l-122 -86 -7 -123 c-6 -108 15 -508 29 -553 3 -9 19 -7 62 8 90 31 156
41 189 28 l29 -11 -29 -23 c-28 -23 -163 -79 -253 -105 -42 -13 -42 -13 -48
-69 -9 -77 -31 -257 -46 -368 l-13 -92 30 -58 29 -58 0 -195 c0 -250 -26 -375
-106 -510 -47 -80 -55 -116 -74 -329 -8 -93 -19 -180 -24 -194 -5 -14 -28 -49
-50 -78 -45 -59 -98 -178 -109 -242 -10 -54 -37 -62 -46 -14 -4 19 -27 76 -52
128 -77 157 -124 269 -124 294 0 13 -7 25 -15 27 -17 3 -65 127 -65 167 0 14
5 39 12 58 11 29 10 35 -8 48 -19 14 -19 15 5 34 23 18 26 29 35 149 8 110 7
135 -6 164 -11 23 -18 83 -22 203 -4 94 -16 289 -26 435 -20 264 -24 482 -11
530 4 15 15 26 29 28 25 4 28 12 10 30 -9 9 -4 12 26 12 44 0 115 46 155 100
20 28 22 35 11 56 -17 31 -6 94 20 114 11 9 23 32 27 53 4 26 11 37 23 37 12
0 20 11 25 36 4 24 13 38 26 41 24 7 24 15 -1 38 -11 10 -20 27 -20 37 0 18 6
19 53 16 l52 -3 -3 57 c-3 45 2 69 22 113 14 31 28 72 32 93 10 55 26 82 96
159 35 39 76 87 91 107 18 23 36 36 51 36 31 0 51 25 69 90 9 30 32 80 51 110
43 70 80 187 106 338 11 66 20 122 20 125 0 9 51 -14 74 -32z"/>
</g>
</svg>
