<?xml version="1.0" standalone="no"?>
<!DOCTYPE svg PUBLIC "-//W3C//DTD SVG 20010904//EN"
 "http://www.w3.org/TR/2001/REC-SVG-20010904/DTD/svg10.dtd">
<svg version="1.0" xmlns="http://www.w3.org/2000/svg"
 width="1536.000000pt" height="1070.000000pt" viewBox="0 0 1536.000000 1070.000000"
 preserveAspectRatio="xMidYMid meet">
<metadata>
Created by potrace 1.16, written by Peter Selinger 2001-2019
</metadata>
<g transform="translate(0.000000,1070.000000) scale(0.100000,-0.100000)"
fill="#FFFFFF" stroke="none">
<path d="M3358 9895 c-2 -2 -89 -7 -193 -10 -222 -8 -296 -23 -449 -91 -196
-89 -270 -125 -353 -175 -71 -43 -90 -61 -123 -113 -43 -68 -153 -179 -215
-218 -178 -110 -273 -137 -484 -139 -121 -1 -252 -15 -406 -43 -49 -9 -121
-21 -160 -27 -168 -25 -187 -30 -276 -81 -133 -76 -188 -148 -145 -191 9 -9
45 -16 93 -19 51 -4 104 -15 149 -33 104 -40 112 -42 209 -55 50 -7 122 -24
160 -37 132 -46 160 -52 285 -63 69 -6 143 -16 165 -22 84 -23 182 -60 240
-91 83 -44 200 -164 245 -252 19 -38 51 -90 70 -115 83 -110 143 -233 164
-340 3 -14 25 -51 49 -82 55 -70 87 -144 100 -228 8 -55 6 -82 -12 -173 -26
-128 -28 -235 -6 -417 9 -74 15 -173 14 -220 -1 -85 15 -212 51 -390 11 -52
24 -133 30 -180 17 -127 41 -194 149 -405 55 -106 117 -245 140 -309 22 -64
48 -131 57 -149 26 -51 142 -217 194 -277 61 -70 119 -158 159 -238 42 -84
112 -184 176 -252 28 -30 82 -101 119 -158 50 -76 84 -116 129 -150 33 -26 89
-69 123 -97 35 -27 80 -61 100 -75 20 -14 57 -43 83 -65 58 -51 126 -95 146
-95 9 0 30 -13 48 -30 18 -16 35 -30 38 -30 4 0 21 -13 39 -30 18 -16 38 -30
45 -30 6 0 20 -9 30 -20 10 -11 23 -20 30 -20 7 0 20 -9 30 -20 10 -11 25 -20
34 -20 9 0 27 -9 41 -20 14 -11 29 -20 33 -20 5 0 28 -13 52 -30 24 -16 50
-30 57 -30 7 0 24 -9 38 -20 14 -11 33 -20 42 -20 10 0 34 -9 53 -20 20 -11
40 -18 45 -15 4 3 21 -5 37 -17 15 -13 37 -28 48 -34 16 -9 19 -20 17 -51 -3
-34 0 -41 17 -46 26 -6 26 -17 4 -43 -10 -10 -24 -35 -30 -54 -12 -30 -10 -37
10 -67 22 -32 22 -32 31 -10 32 85 51 117 68 117 10 0 19 -6 19 -12 4 -36 -4
-114 -12 -122 -14 -15 -11 -63 5 -69 21 -8 46 30 46 71 0 79 37 76 76 -6 14
-32 31 -67 37 -80 6 -12 17 -22 25 -22 12 0 13 19 7 120 -7 109 -6 120 9 114
22 -8 46 -56 46 -89 0 -14 7 -40 16 -56 8 -17 18 -53 21 -82 9 -73 21 -34 22
69 1 63 4 83 16 88 28 10 43 -5 49 -52 13 -90 18 -112 27 -112 5 0 9 6 9 14 0
8 4 18 10 21 18 11 47 -14 69 -60 26 -56 59 -95 81 -95 9 0 20 -4 25 -9 19
-18 86 -51 102 -51 12 0 0 17 -35 53 -29 29 -52 60 -52 70 0 9 -5 17 -12 17
-6 0 -8 3 -4 7 3 4 41 -27 84 -69 42 -42 87 -81 100 -87 13 -7 27 -23 32 -37
5 -13 20 -29 32 -35 13 -5 34 -16 48 -24 34 -20 67 -20 51 -1 -7 8 -8 17 -3
20 11 7 72 -22 72 -34 0 -4 12 -10 28 -13 15 -3 52 -14 82 -25 125 -45 161
-52 283 -60 71 -4 131 -4 133 0 3 5 38 8 79 8 41 0 77 5 80 10 3 6 21 10 39
10 27 0 37 7 59 41 16 24 27 55 27 75 0 19 5 34 12 34 6 0 35 -18 64 -40 32
-25 67 -43 91 -47 100 -14 117 -46 57 -104 -19 -18 -42 -50 -50 -69 -8 -19
-26 -46 -38 -60 -13 -14 -29 -35 -35 -47 -6 -13 -18 -23 -26 -23 -11 0 -15
-11 -15 -38 0 -47 -20 -77 -70 -102 -21 -11 -42 -30 -46 -42 -12 -39 -81 -134
-127 -174 -24 -22 -61 -65 -82 -97 -78 -119 -197 -189 -440 -257 -26 -8 -87
-10 -175 -6 -189 9 -731 12 -736 5 -2 -3 7 -12 21 -19 35 -18 51 -63 36 -99
-17 -39 -51 -55 -98 -47 -21 4 -63 9 -93 11 -53 5 -95 9 -192 20 -40 5 -59 0
-127 -31 -66 -30 -90 -48 -144 -108 l-65 -72 5 -74 c6 -108 8 -113 59 -153 38
-29 50 -34 61 -25 10 8 12 20 7 37 -12 42 -14 194 -3 223 6 14 24 32 41 39 46
19 94 -8 108 -62 9 -31 15 -40 28 -36 47 15 138 51 149 59 18 15 116 48 140
48 12 0 34 -10 50 -23 l28 -23 280 13 c409 20 455 23 507 29 38 5 50 2 67 -15
35 -35 28 -77 -21 -122 -37 -33 -42 -43 -40 -76 7 -120 -168 -187 -348 -133
-41 13 -81 27 -88 33 -15 12 -74 24 -187 37 -44 6 -109 14 -145 19 -60 8 -68
7 -105 -17 -22 -14 -44 -32 -49 -40 -5 -8 -24 -32 -43 -53 -31 -34 -34 -42
-31 -91 l3 -53 38 -3 c35 -3 37 -2 37 28 0 35 13 64 43 97 18 21 22 21 48 7
16 -8 41 -33 56 -56 l27 -41 83 6 c69 5 83 4 83 -9 0 -8 -12 -19 -27 -25 -16
-6 -37 -18 -48 -28 -28 -25 -280 -54 -477 -55 -152 -1 -157 0 -182 23 -26 24
-26 24 -133 13 -60 -7 -162 -12 -228 -12 -97 0 -125 -3 -147 -18 -35 -22 -128
-94 -197 -151 -52 -44 -53 -46 -48 -89 2 -23 8 -46 11 -50 8 -8 77 28 81 43
30 114 50 137 132 154 31 6 84 11 118 11 80 0 95 -15 98 -96 2 -58 3 -59 37
-71 48 -17 105 -8 148 25 l35 27 211 -2 c176 -2 224 -5 290 -22 98 -26 113
-26 151 -1 33 22 122 28 154 11 27 -15 101 -115 101 -138 0 -31 29 -81 51 -88
29 -10 106 31 164 85 97 91 143 119 261 156 126 39 135 43 216 97 32 21 94 54
138 72 44 19 108 52 142 75 68 44 142 75 222 92 47 10 103 8 257 -8 49 -5 65
-2 130 27 41 18 97 34 124 37 46 4 54 1 93 -31 23 -20 59 -41 79 -48 36 -12
36 -12 84 40 37 40 54 51 78 51 35 0 113 -36 157 -73 16 -13 40 -28 54 -32 14
-4 60 -20 102 -37 79 -31 98 -31 98 2 0 10 5 22 10 25 6 3 10 24 10 45 0 21
-4 42 -10 45 -5 3 -10 17 -10 29 0 13 -7 30 -16 37 -9 7 -20 24 -25 37 -8 21
-14 24 -47 19 -26 -3 -43 1 -57 13 -26 23 -188 90 -218 90 -12 0 -51 9 -87 20
-47 14 -94 20 -168 20 l-104 0 -31 33 c-61 62 -196 245 -204 275 -4 19 3 33
36 66 22 23 41 46 41 52 0 6 22 31 48 55 26 24 68 68 92 97 25 29 59 60 76 68
30 14 504 483 561 554 35 44 55 63 121 112 29 22 56 46 59 54 3 7 40 31 84 53
120 61 154 92 199 188 40 86 107 163 166 193 16 8 40 21 54 30 33 22 128 60
149 60 9 0 27 9 40 19 14 10 31 17 39 14 24 -10 62 20 111 87 27 36 59 76 73
90 14 14 49 65 78 113 64 108 135 167 241 200 45 15 77 23 244 68 17 4 50 14
75 21 35 10 169 13 605 12 536 -1 688 -8 780 -34 17 -5 50 -14 75 -20 124 -33
264 -98 385 -180 39 -26 126 -76 194 -111 68 -35 138 -72 155 -81 17 -9 38
-17 46 -18 35 -1 135 -32 197 -61 36 -17 105 -46 152 -64 122 -48 298 -127
351 -159 25 -15 110 -58 189 -97 80 -38 165 -84 190 -103 26 -18 95 -56 154
-84 97 -47 115 -52 175 -52 90 0 140 -17 290 -98 70 -38 152 -81 183 -96 31
-14 74 -38 94 -52 78 -53 318 -181 440 -235 28 -12 106 -48 175 -81 141 -67
166 -78 230 -104 25 -10 107 -49 182 -86 75 -38 141 -68 147 -68 25 0 22 48
-6 96 -15 27 -35 62 -43 78 -8 16 -28 41 -44 55 -15 14 -43 40 -61 58 -18 17
-51 43 -74 57 -22 15 -41 30 -41 35 0 9 -126 115 -181 152 -20 13 -79 58 -131
100 -52 42 -122 91 -155 108 -42 21 -103 70 -195 157 -143 136 -300 260 -382
301 -28 14 -78 47 -111 73 -33 26 -96 66 -140 90 -113 60 -168 96 -259 165
-132 100 -151 114 -159 115 -15 0 -150 115 -208 176 -31 33 -68 78 -83 102
-17 28 -52 59 -99 89 -40 26 -104 78 -144 116 -39 38 -94 79 -121 92 -55 26
-220 176 -301 274 -68 84 -175 188 -201 196 -11 3 -20 10 -20 14 0 3 -14 15
-31 25 -21 13 -29 24 -27 39 3 20 8 22 58 19 30 -2 134 -6 230 -8 96 -2 198
-8 225 -14 28 -5 104 -11 170 -14 106 -4 128 -2 195 19 41 13 109 33 150 45
146 40 185 55 208 78 13 12 22 29 20 38 -3 15 -81 62 -193 116 -33 15 -68 33
-79 39 -18 10 -62 35 -102 58 -11 5 -51 21 -91 35 -39 14 -131 56 -205 93 -73
38 -165 83 -204 100 -39 18 -125 58 -190 89 -66 31 -162 76 -214 101 -51 24
-119 59 -150 77 -30 17 -71 38 -90 45 -199 75 -275 116 -535 287 -208 138
-296 216 -351 313 -23 40 -217 188 -434 331 -240 158 -369 252 -414 301 -27
30 -61 68 -77 85 -15 17 -62 46 -105 65 -43 19 -205 97 -359 175 -154 77 -311
153 -350 168 -105 42 -136 57 -182 92 -24 18 -53 36 -65 39 -39 12 -99 38
-223 98 -106 52 -129 68 -195 136 -41 43 -93 88 -115 101 -47 28 -208 142
-280 198 -27 21 -102 73 -165 115 -63 42 -134 90 -158 107 -56 40 -160 91
-242 120 -36 13 -119 47 -185 76 -66 29 -140 59 -165 67 -101 33 -219 68 -285
83 -150 34 -305 87 -420 144 -124 62 -137 69 -270 157 -43 29 -104 62 -134 74
-31 12 -68 31 -83 41 -14 10 -31 18 -36 18 -6 0 -53 41 -104 91 -61 59 -115
102 -158 123 -36 19 -126 76 -200 127 -74 51 -207 129 -295 174 -88 44 -184
97 -212 117 -29 20 -68 39 -85 43 -251 47 -395 88 -540 155 -91 43 -116 50
-167 50 -33 0 -99 9 -147 20 -136 32 -391 60 -406 45z m4056 -7396 c24 -35 26
-44 15 -67 -6 -15 -26 -36 -43 -47 -17 -11 -36 -30 -42 -43 -6 -13 -48 -60
-93 -106 -44 -46 -81 -91 -81 -100 0 -9 -20 -30 -44 -47 -24 -17 -49 -42 -56
-55 -15 -28 -39 -39 -54 -24 -12 12 6 50 74 155 26 39 61 95 79 126 19 31 46
64 62 73 16 9 29 23 29 30 0 7 9 21 20 31 11 10 20 23 20 30 0 7 9 20 20 30
11 10 20 24 20 31 0 11 12 17 41 23 4 0 18 -17 33 -40z m-434 -1194 c38 -19
74 -43 79 -53 15 -29 -2 -43 -47 -41 -22 2 -47 -3 -55 -9 -16 -14 -247 -14
-247 0 0 18 29 78 38 78 5 0 26 14 47 30 52 41 96 40 185 -5z"/>
<path d="M5408 2958 c-6 -16 1 -38 12 -38 15 0 19 28 6 40 -10 8 -15 7 -18 -2z"/>
<path d="M5094 1681 c-42 -7 -105 -48 -100 -66 4 -13 61 -29 80 -22 9 4 16 15
16 25 0 28 32 52 71 52 26 0 30 3 19 10 -16 11 -25 11 -86 1z"/>
</g>
</svg>
