<?xml version="1.0" standalone="no"?>
<!DOCTYPE svg PUBLIC "-//W3C//DTD SVG 20010904//EN"
 "http://www.w3.org/TR/2001/REC-SVG-20010904/DTD/svg10.dtd">
<svg version="1.0" xmlns="http://www.w3.org/2000/svg"
 width="1536.000000pt" height="1297.000000pt" viewBox="0 0 1536.000000 1297.000000"
 preserveAspectRatio="xMidYMid meet">
<metadata>
Created by potrace 1.16, written by Peter Selinger 2001-2019
</metadata>
<g transform="translate(0.000000,1297.000000) scale(0.100000,-0.100000)"
fill="#FFFFFF" stroke="none">
<path d="M11205 11988 c-31 -18 -179 -38 -287 -38 -88 0 -97 -2 -103 -20 -7
-21 -58 -29 -70 -10 -10 16 -20 12 -50 -17 -19 -19 -38 -28 -63 -29 -20 -1
-40 -8 -47 -18 -7 -9 -26 -16 -47 -16 -20 0 -41 -7 -48 -15 -7 -8 -20 -15 -29
-15 -10 0 -49 -21 -87 -47 -38 -27 -81 -54 -96 -62 -33 -17 -107 -87 -133
-126 -63 -93 -131 -142 -205 -149 -30 -3 -52 -15 -91 -50 -28 -25 -55 -46 -60
-46 -5 0 -35 -24 -67 -53 -32 -29 -78 -63 -103 -75 -90 -44 -110 -83 -124
-247 -4 -44 -13 -89 -20 -100 -7 -11 -15 -47 -17 -80 -12 -139 -40 -291 -59
-321 -24 -39 -158 -161 -202 -183 -18 -9 -58 -34 -90 -56 -32 -22 -66 -45 -75
-50 -9 -6 -35 -22 -57 -35 -22 -14 -49 -31 -60 -37 -11 -7 -43 -26 -71 -42
-28 -17 -80 -62 -116 -100 -62 -66 -240 -211 -259 -211 -13 0 -158 -69 -199
-95 -19 -12 -69 -39 -110 -60 -41 -21 -90 -52 -108 -69 -27 -25 -36 -28 -50
-19 -22 13 -22 13 -138 -93 -106 -96 -162 -151 -274 -269 -47 -49 -108 -109
-135 -131 -28 -23 -63 -60 -80 -82 -16 -23 -40 -45 -52 -51 -13 -6 -23 -17
-23 -25 0 -8 -22 -36 -48 -63 -27 -26 -60 -68 -75 -93 -15 -25 -45 -62 -67
-84 -22 -21 -40 -44 -40 -50 0 -15 -77 -89 -107 -105 -13 -7 -23 -20 -23 -30
0 -22 -40 -61 -63 -61 -20 0 -81 -60 -102 -99 -8 -16 -37 -39 -72 -56 -40 -20
-90 -61 -159 -131 -56 -56 -111 -105 -123 -109 -11 -3 -24 -17 -27 -30 -3 -13
-14 -27 -24 -30 -10 -3 -37 -30 -60 -60 -44 -57 -106 -108 -209 -170 -76 -45
-240 -201 -284 -267 -16 -27 -36 -48 -43 -48 -15 0 -112 -105 -127 -137 -6
-13 -14 -23 -19 -23 -16 0 -166 -140 -189 -176 -23 -38 -155 -174 -169 -174
-14 0 -156 -115 -194 -158 -32 -35 -37 -47 -33 -71 6 -30 -5 -41 -41 -41 -9 0
-38 -23 -63 -51 -40 -44 -51 -51 -83 -51 -34 0 -40 -4 -73 -55 -19 -30 -39
-69 -45 -86 -6 -18 -20 -40 -32 -50 -11 -11 -34 -43 -51 -72 -66 -117 -118
-195 -171 -256 -30 -35 -58 -75 -61 -89 -11 -44 -53 -102 -138 -190 -46 -47
-86 -95 -90 -107 -3 -13 -10 -23 -14 -23 -4 0 -22 -22 -40 -49 -37 -58 -90
-103 -155 -132 -33 -14 -46 -26 -46 -40 0 -11 -16 -36 -35 -56 -19 -20 -35
-41 -35 -48 0 -12 -75 -65 -93 -65 -7 0 -21 -7 -31 -15 -11 -8 -27 -15 -35
-15 -9 0 -63 -24 -120 -53 l-105 -52 -40 -80 c-40 -79 -89 -135 -174 -205 -41
-33 -43 -37 -37 -74 9 -58 -9 -97 -57 -126 -23 -14 -69 -45 -102 -70 -63 -46
-123 -80 -141 -80 -5 0 -21 -6 -35 -13 -14 -7 -56 -23 -95 -36 -38 -13 -77
-30 -86 -37 -8 -8 -24 -14 -35 -14 -24 0 -117 -32 -136 -47 -7 -6 -23 -13 -34
-17 -14 -4 -24 -18 -28 -38 -17 -86 2 -120 58 -100 18 7 47 12 65 12 18 0 42
5 54 12 12 6 38 15 57 19 40 9 111 33 155 54 188 88 227 105 239 105 14 0 93
28 141 50 74 33 121 50 140 50 12 0 30 10 41 21 10 12 47 35 80 50 34 16 64
36 68 44 3 8 17 15 31 15 15 0 36 5 48 12 12 6 35 14 52 18 20 4 31 13 35 30
4 18 15 26 38 31 18 4 41 14 51 23 10 9 25 16 33 16 9 0 21 6 27 13 7 9 26 12
58 9 27 -2 66 -4 88 -5 46 -1 55 -9 55 -54 0 -22 -10 -43 -29 -65 -16 -19 -31
-47 -33 -63 -2 -24 -8 -31 -30 -33 -14 -2 -32 -10 -38 -18 -7 -8 -18 -14 -25
-14 -20 0 -66 -40 -75 -66 -6 -14 -18 -24 -29 -24 -11 0 -25 -9 -32 -21 -7
-14 -17 -19 -30 -16 -11 3 -24 -2 -32 -12 -6 -9 -24 -24 -39 -34 -16 -10 -28
-24 -28 -32 0 -9 -10 -15 -26 -15 -18 0 -40 -16 -77 -58 -28 -31 -111 -115
-184 -186 -79 -76 -133 -136 -133 -147 0 -11 -36 -55 -82 -100 -77 -75 -81
-82 -64 -94 23 -17 12 -37 -17 -30 -17 4 -27 -3 -46 -32 -83 -131 -123 -186
-182 -253 -36 -41 -73 -86 -82 -100 -9 -14 -63 -73 -121 -132 -58 -60 -108
-118 -112 -130 -3 -13 -13 -30 -20 -38 -8 -8 -48 -61 -89 -116 -72 -97 -119
-146 -254 -262 -35 -31 -61 -62 -61 -72 0 -11 -13 -26 -30 -35 -17 -9 -30 -21
-30 -29 0 -7 -42 -53 -94 -102 -87 -83 -141 -143 -209 -232 -52 -70 -92 -117
-154 -183 -35 -36 -63 -70 -63 -75 0 -5 -12 -20 -27 -34 -14 -14 -48 -58 -74
-99 -27 -40 -63 -90 -82 -110 -50 -55 -89 -135 -104 -215 -4 -19 -31 -53 -79
-99 -88 -83 -96 -104 -60 -151 31 -41 110 -89 147 -89 38 0 110 38 155 81 52
50 146 111 183 118 29 6 160 128 200 187 38 55 77 97 92 97 8 0 50 37 92 83
43 45 91 96 107 113 17 16 30 34 30 40 0 12 33 41 85 75 22 14 83 68 136 120
123 121 280 259 344 301 27 18 60 49 73 68 13 19 40 46 60 60 58 39 164 130
186 159 10 14 40 49 66 76 26 28 56 66 66 85 41 76 73 107 156 149 46 24 119
62 163 86 44 24 87 44 95 44 8 1 44 19 80 40 36 21 107 60 158 85 51 26 124
73 162 104 38 31 89 72 112 90 24 18 61 47 84 65 23 17 51 39 64 47 12 8 54
39 93 67 38 29 91 62 116 74 25 12 60 31 76 43 17 12 48 30 69 41 21 11 53 37
70 58 17 22 67 63 111 93 44 29 105 74 135 99 63 52 167 125 178 125 4 0 21
12 38 27 93 86 149 133 155 133 4 0 31 16 60 35 30 19 60 35 67 35 7 0 28 11
45 24 18 13 57 36 87 51 79 39 111 57 147 83 17 12 52 26 77 31 25 5 52 14 60
20 9 8 55 12 133 11 190 -2 186 -2 193 -29 4 -16 15 -27 34 -32 16 -5 33 -14
37 -21 7 -10 11 -10 21 0 6 6 27 12 45 12 23 0 44 10 71 34 36 33 41 35 107
33 68 -2 69 -2 75 -32 8 -35 28 -77 44 -87 31 -21 148 15 196 61 14 12 62 40
107 61 l81 38 274 -5 c188 -3 292 -1 333 7 33 6 146 15 250 19 116 4 199 12
212 19 55 31 151 0 175 -55 24 -55 135 -183 159 -183 7 0 44 -33 84 -72 59
-61 75 -84 93 -137 41 -121 22 -188 -72 -261 -13 -10 -56 -17 -130 -22 -216
-12 -341 -37 -387 -75 -8 -7 -21 -13 -28 -13 -28 0 -99 -41 -131 -77 -47 -52
-61 -80 -67 -138 -2 -27 -11 -67 -19 -89 -8 -21 -12 -46 -9 -57 6 -17 8 -17
40 -2 27 13 33 21 29 38 -4 16 6 30 41 61 25 21 61 54 80 72 19 17 42 32 50
32 9 0 31 11 48 24 82 62 188 82 256 48 19 -9 48 -34 64 -54 26 -32 31 -48 35
-115 5 -77 5 -78 53 -127 27 -28 49 -54 49 -58 0 -15 51 -8 57 7 3 9 -4 44
-16 79 -26 77 -26 92 -1 149 15 33 45 67 106 119 47 40 121 105 163 143 122
109 207 130 298 72 22 -14 58 -29 79 -32 22 -4 56 -13 77 -21 48 -18 170 -17
222 1 50 18 683 22 733 4 17 -6 52 -14 79 -17 39 -6 50 -12 61 -34 21 -44 47
-45 92 -4 27 24 50 36 70 36 16 0 50 5 74 12 58 15 131 -1 193 -42 59 -40 77
-38 109 10 l26 39 -21 27 c-12 15 -21 36 -21 48 0 47 -158 166 -220 166 -20 0
-44 6 -55 14 -23 16 -264 25 -303 12 -13 -4 -28 -3 -35 2 -15 12 -116 5 -133
-9 -8 -7 -14 -7 -19 1 -3 5 -40 10 -83 10 -49 0 -100 8 -140 20 -76 24 -103
25 -160 5 -65 -23 -124 -26 -157 -9 -15 8 -45 17 -67 21 -23 3 -53 18 -71 34
-17 16 -39 29 -49 29 -9 0 -21 6 -25 13 -4 8 -33 31 -63 52 -30 21 -62 44 -71
51 -8 8 -25 14 -36 14 -11 0 -26 7 -33 15 -7 8 -17 15 -22 15 -5 0 -29 15 -53
33 -114 83 -168 120 -208 140 -23 12 -49 28 -57 34 -199 166 -207 186 -108
266 43 34 109 62 183 76 81 17 151 40 195 64 25 14 63 30 85 36 22 5 54 14 70
20 17 6 41 13 55 15 14 3 46 24 70 46 50 45 176 110 213 110 14 0 30 7 37 15
7 8 23 15 37 15 13 0 26 7 29 15 4 8 16 15 28 15 12 0 34 15 50 35 17 20 39
35 51 35 11 0 28 8 38 18 9 9 32 29 50 44 17 14 73 64 122 111 50 46 111 94
138 106 37 18 47 28 47 47 0 28 8 31 25 7 12 -17 14 -17 35 2 12 10 31 41 42
68 22 51 119 147 149 147 9 0 22 7 29 15 7 8 17 15 23 15 5 0 42 30 81 68 40
37 111 96 159 132 47 36 91 76 97 90 6 14 22 45 35 70 13 25 24 52 24 61 2 33
77 118 185 209 61 50 118 101 129 113 10 12 28 33 40 47 61 69 96 119 114 160
13 29 62 88 137 165 154 159 236 253 236 273 0 10 25 71 66 159 13 29 27 65
30 80 10 39 50 118 92 182 19 30 45 82 57 117 12 35 26 69 31 76 27 39 45 82
51 125 7 56 43 140 80 184 11 14 26 71 43 159 5 25 21 72 36 105 26 56 28 69
29 200 0 126 2 144 23 180 12 22 26 47 31 55 26 46 40 91 46 143 4 32 13 70
21 85 7 15 14 32 14 37 0 6 14 28 30 49 17 22 30 50 30 63 0 37 46 118 86 151
44 37 74 80 74 108 0 11 16 43 35 70 22 30 35 61 35 80 0 33 25 92 46 109 7 6
25 35 40 65 33 67 245 277 314 311 25 12 63 34 86 49 22 15 67 40 100 56 l59
28 374 3 c341 2 375 3 393 19 16 15 23 16 38 6 14 -8 27 -9 45 -2 30 12 241
12 269 1 16 -6 64 8 85 25 18 15 -171 203 -211 211 -15 3 -29 11 -32 19 -3 8
-20 14 -43 14 -21 0 -47 7 -57 15 -11 8 -41 15 -67 15 -28 0 -51 6 -58 14 -13
16 -46 22 -188 36 -97 9 -199 35 -255 66 -14 8 -33 14 -41 14 -8 0 -20 6 -26
14 -7 8 -42 22 -79 32 -37 9 -80 25 -97 34 -16 10 -41 20 -55 23 -14 4 -59 28
-101 56 -74 48 -130 105 -163 166 -8 17 -37 54 -63 82 -27 29 -59 80 -73 112
-21 51 -31 63 -69 82 -49 25 -171 110 -234 164 -23 20 -51 40 -62 45 -35 14
-114 90 -152 147 -41 63 -58 75 -133 99 -30 10 -66 24 -80 31 -14 7 -28 13
-32 13 -4 0 -29 13 -55 28 -27 16 -66 31 -88 34 -22 3 -65 17 -95 31 -73 35
-169 58 -260 64 -41 2 -92 11 -113 19 -47 17 -253 19 -282 2z m-2895 -7423 c7
-8 18 -15 26 -15 7 0 18 -9 24 -20 6 -12 21 -20 35 -20 18 0 25 -5 25 -19 0
-24 13 -33 64 -46 31 -8 49 -23 86 -70 25 -33 59 -67 76 -75 51 -26 93 -60 99
-80 4 -11 17 -23 31 -26 13 -3 34 -18 47 -33 12 -14 53 -50 90 -80 102 -80
143 -156 98 -181 -38 -20 -62 -10 -130 53 -73 67 -100 90 -146 125 -16 12 -95
86 -175 163 -80 78 -149 146 -155 151 -74 69 -174 176 -168 181 12 13 60 7 73
-8z"/>
</g>
</svg>
