<?xml version="1.0" standalone="no"?>
<!DOCTYPE svg PUBLIC "-//W3C//DTD SVG 20010904//EN"
 "http://www.w3.org/TR/2001/REC-SVG-20010904/DTD/svg10.dtd">
<svg version="1.0" xmlns="http://www.w3.org/2000/svg"
 width="1536.000000pt" height="1075.000000pt" viewBox="0 0 1536.000000 1075.000000"
 preserveAspectRatio="xMidYMid meet">
<metadata>
Created by potrace 1.16, written by Peter Selinger 2001-2019
</metadata>
<g transform="translate(0.000000,1075.000000) scale(0.100000,-0.100000)"
fill="#FFFFFF" stroke="none">
<path d="M12595 10743 c-18 -2 -41 -16 -57 -35 -26 -30 -26 -30 -40 -9 -17 27
-28 27 -28 -1 -1 -21 -2 -22 -14 -5 -18 24 -31 21 -44 -8 -10 -21 -18 -25 -57
-25 -40 0 -60 -11 -212 -113 -92 -63 -226 -147 -298 -187 -209 -117 -307 -176
-349 -209 -21 -17 -43 -31 -48 -31 -5 0 -40 -29 -77 -64 -48 -46 -80 -67 -105
-71 -29 -6 -36 -12 -36 -31 0 -14 -6 -24 -14 -24 -54 0 -346 -442 -346 -524 0
-13 -6 -26 -13 -29 -23 -9 -76 -121 -118 -247 -21 -67 -46 -135 -55 -152 -15
-28 -15 -30 0 -25 22 9 20 1 -9 -37 -14 -18 -25 -40 -25 -49 0 -9 -9 -35 -21
-57 -15 -28 -20 -53 -17 -85 l3 -45 -29 29 -28 29 -42 -42 c-23 -22 -66 -54
-96 -71 -32 -17 -60 -42 -68 -58 -11 -22 -18 -26 -38 -21 -19 5 -29 1 -40 -14
-8 -12 -37 -28 -65 -36 -57 -17 -106 -45 -134 -76 -10 -11 -38 -26 -63 -32
-24 -6 -46 -17 -49 -25 -3 -8 -50 -36 -104 -63 -53 -27 -100 -54 -104 -60 -3
-5 -15 -10 -26 -10 -10 0 -28 -9 -39 -20 -11 -11 -30 -20 -43 -20 -13 0 -36
-13 -52 -30 -16 -16 -54 -39 -84 -51 -31 -11 -76 -33 -101 -49 -50 -31 -92
-45 -163 -55 -40 -5 -47 -9 -42 -24 6 -21 -14 -41 -74 -71 -24 -12 -62 -35
-84 -51 -22 -16 -46 -29 -53 -29 -6 0 -31 -16 -54 -35 -24 -20 -68 -47 -98
-62 -65 -30 -214 -142 -327 -243 -44 -40 -104 -88 -134 -107 -64 -41 -231
-205 -231 -226 0 -8 -10 -17 -23 -21 -15 -3 -30 -21 -43 -48 -15 -34 -31 -48
-79 -73 -33 -17 -105 -66 -160 -109 -54 -43 -110 -85 -123 -94 -13 -8 -28 -26
-33 -39 -5 -13 -16 -23 -24 -23 -28 0 -107 -52 -167 -111 -39 -39 -69 -59 -92
-63 -23 -4 -43 -17 -56 -36 -23 -33 -50 -40 -50 -13 0 13 -8 10 -32 -14 -18
-18 -52 -38 -75 -46 -23 -8 -66 -35 -96 -61 -30 -25 -59 -46 -64 -46 -5 0 -22
-13 -36 -30 -17 -18 -37 -30 -52 -30 -14 0 -25 -4 -25 -9 0 -5 -7 -16 -15 -25
-13 -13 -20 -13 -55 -1 -49 17 -69 2 -44 -34 21 -30 12 -36 -25 -17 -41 22
-46 20 -27 -8 15 -23 14 -25 -4 -31 -11 -3 -52 -33 -91 -66 -39 -32 -75 -59
-81 -59 -6 0 -65 -55 -132 -123 -132 -133 -333 -300 -463 -384 -58 -37 -83
-59 -83 -73 0 -14 -11 -22 -41 -30 -23 -7 -72 -30 -108 -53 -42 -27 -82 -43
-110 -47 -25 -3 -46 -11 -49 -19 -3 -10 2 -12 24 -8 l29 5 -25 -20 c-168 -132
-217 -187 -353 -393 -95 -146 -183 -251 -284 -341 -152 -136 -361 -281 -588
-410 -262 -148 -306 -176 -365 -230 -33 -32 -72 -76 -85 -99 -29 -49 -41 -119
-26 -157 13 -34 63 -60 117 -62 32 -1 40 -4 32 -13 -6 -7 -26 -13 -44 -13 -31
0 -34 -2 -29 -23 10 -38 -46 -110 -136 -177 -96 -71 -158 -109 -189 -115 -13
-2 -30 -11 -40 -20 -9 -8 -22 -15 -29 -15 -6 0 -42 -23 -79 -52 -43 -33 -160
-97 -332 -181 -146 -72 -283 -142 -305 -158 -23 -15 -122 -72 -222 -127 -211
-117 -334 -192 -380 -232 -31 -28 -56 -43 -278 -170 -217 -124 -621 -373 -694
-428 -41 -30 -153 -125 -250 -211 -357 -318 -551 -461 -806 -596 -166 -87
-157 -72 -149 -239 8 -168 0 -202 -62 -301 -25 -38 -43 -76 -42 -85 4 -21 107
-26 145 -6 15 8 71 52 123 98 119 105 227 188 405 313 77 54 210 149 295 211
85 62 191 133 235 160 108 64 365 188 445 214 36 12 79 35 95 51 17 16 39 29
48 29 9 0 17 4 17 10 0 5 19 18 43 28 23 10 76 41 117 69 226 152 703 391 825
414 31 6 58 19 73 34 28 30 19 28 282 65 118 17 305 48 415 70 110 22 279 51
375 64 96 14 256 38 355 55 99 16 208 32 242 36 36 4 67 13 74 22 10 12 27 13
81 8 55 -6 73 -4 86 8 12 11 39 15 97 14 52 -1 89 4 105 13 20 11 122 15 490
21 613 10 676 13 694 28 9 8 95 17 242 26 125 8 243 20 263 26 26 9 36 9 39 0
2 -6 27 -11 60 -11 39 0 70 -7 96 -21 l38 -20 22 21 23 20 18 -20 c23 -26 45
-26 45 0 0 30 29 24 36 -7 12 -59 -1 -52 134 -72 83 -13 120 -32 120 -61 0
-23 4 -24 31 -10 10 6 19 17 19 25 0 20 29 19 37 0 3 -9 -2 -24 -11 -34 -15
-17 -12 -20 61 -54 68 -32 78 -34 88 -20 9 12 25 15 72 11 34 -2 68 -10 77
-17 14 -12 14 -17 0 -49 -8 -19 -11 -39 -6 -44 5 -5 38 3 74 16 66 25 195 52
204 43 2 -2 -3 -18 -13 -35 -23 -39 -12 -50 23 -23 39 30 58 12 49 -47 -4 -30
-2 -50 8 -66 8 -12 20 -47 26 -78 15 -71 60 -135 97 -140 15 -2 29 -9 32 -17
3 -9 -2 -11 -17 -6 -19 6 -20 4 -10 -22 32 -86 82 -126 299 -243 161 -87 266
-155 280 -180 38 -71 -55 -85 -371 -54 -96 9 -203 14 -259 11 -103 -6 -251
-42 -340 -83 -144 -66 -340 -265 -340 -346 0 -16 5 -28 13 -28 6 0 55 34 107
75 185 145 218 167 265 173 71 8 101 -11 125 -77 11 -31 28 -72 38 -91 22 -43
44 -43 147 2 122 53 151 59 360 68 110 5 295 15 411 21 311 18 347 9 601 -157
186 -121 235 -161 231 -192 -5 -43 -25 -47 -160 -34 -152 15 -280 15 -333 1
-21 -6 -55 -23 -74 -38 -29 -22 -47 -27 -113 -30 -64 -3 -80 -7 -89 -22 -5
-10 -20 -19 -32 -19 -41 0 -128 -61 -239 -168 -131 -126 -198 -212 -198 -253
0 -16 4 -29 8 -29 5 0 62 43 128 95 65 52 155 113 199 136 79 40 81 41 170 37
76 -3 98 -8 139 -31 28 -15 78 -32 115 -37 224 -33 757 -41 928 -13 90 14 114
15 176 4 40 -7 101 -17 137 -23 41 -7 256 -10 576 -9 l510 1 210 -99 c312
-147 414 -184 414 -148 0 8 -30 62 -67 119 -38 57 -73 113 -79 124 -27 47
-265 180 -399 224 -38 12 -111 40 -161 60 -50 21 -183 66 -295 100 l-204 63
-180 3 c-99 1 -210 5 -247 9 -62 6 -68 9 -68 30 0 12 -7 29 -16 36 -9 7 -43
46 -76 86 -34 43 -77 82 -100 94 -22 11 -67 41 -101 66 -79 58 -275 153 -397
193 -101 33 -232 102 -504 264 -187 112 -292 193 -318 246 -35 73 -64 400 -38
440 7 11 11 9 20 -14 10 -27 12 -28 29 -12 9 9 29 16 43 16 31 0 41 9 27 26
-14 17 -3 34 23 34 11 0 22 -8 25 -20 3 -11 10 -20 15 -20 14 0 233 117 283
151 22 15 47 39 55 53 20 38 63 62 192 105 62 21 149 53 193 70 153 62 549
254 630 307 45 29 106 62 136 73 30 12 107 50 172 86 65 36 122 65 126 65 5 0
50 34 102 75 110 89 304 222 374 258 28 14 58 35 67 46 10 12 30 21 44 21 17
0 37 12 58 35 18 19 37 35 42 35 13 0 118 84 224 180 47 42 108 94 137 116 28
21 112 85 186 141 74 56 154 125 178 155 24 29 99 112 165 185 163 177 186
206 228 288 36 70 167 251 257 356 27 31 49 64 49 73 0 8 28 48 63 88 200 232
346 449 481 715 36 71 84 157 106 191 22 35 40 71 40 81 0 9 11 27 25 39 15
13 25 33 25 49 0 14 7 34 16 44 11 13 17 49 21 145 3 84 10 137 19 151 8 13
18 75 23 154 8 104 13 135 28 151 16 18 18 40 17 207 0 151 -3 193 -17 225
-24 55 -22 93 8 120 28 26 32 46 10 46 -21 0 -18 17 16 85 24 49 28 67 23 103
-5 31 -2 49 11 69 12 17 21 59 26 112 8 86 32 140 60 133 17 -4 29 17 29 54 0
16 7 39 15 50 13 16 16 17 25 4 5 -8 10 -37 10 -65 1 -71 14 -40 34 79 22 131
37 166 71 166 34 0 45 31 45 126 0 67 2 74 19 74 26 0 30 8 42 82 12 74 40
123 77 136 26 8 27 12 27 78 0 83 31 156 76 179 16 9 70 24 121 35 187 39 422
121 582 203 72 37 110 51 138 51 21 -1 38 1 38 4 0 2 -9 20 -21 38 -40 65
-231 197 -333 230 -73 24 -106 42 -143 77 -18 17 -54 42 -80 56 -29 16 -59 44
-78 71 -16 25 -62 79 -101 120 -88 94 -104 117 -104 154 0 44 -37 112 -79 146
-21 16 -51 46 -66 66 -27 35 -27 37 -7 32 12 -4 22 -3 22 1 0 15 -36 40 -90
64 -30 14 -65 38 -77 55 -27 36 -173 113 -403 210 -177 74 -279 110 -400 137
-41 9 -112 25 -157 36 -45 10 -132 23 -195 29 -108 9 -389 11 -453 3z"/>
</g>
</svg>
