<?xml version="1.0" standalone="no"?>
<!DOCTYPE svg PUBLIC "-//W3C//DTD SVG 20010904//EN"
 "http://www.w3.org/TR/2001/REC-SVG-20010904/DTD/svg10.dtd">
<svg version="1.0" xmlns="http://www.w3.org/2000/svg"
 width="1536.000000pt" height="1469.000000pt" viewBox="0 0 1536.000000 1469.000000"
 preserveAspectRatio="xMidYMid meet">
<metadata>
Created by potrace 1.16, written by Peter Selinger 2001-2019
</metadata>
<g transform="translate(0.000000,1469.000000) scale(0.100000,-0.100000)"
fill="#FFFFFF" stroke="none">
<path d="M1741 14679 c-187 -14 -356 -57 -437 -112 -63 -42 -90 -93 -126 -236
-38 -157 -92 -266 -165 -339 l-58 -57 -6 -150 c-7 -171 -14 -197 -97 -359
-100 -196 -223 -370 -390 -551 -96 -104 -125 -156 -151 -280 -26 -121 -36
-145 -128 -325 -87 -171 -125 -275 -147 -401 -40 -228 -46 -611 -11 -729 9
-30 20 -71 25 -90 12 -46 12 -361 -1 -425 -28 -142 -23 -275 27 -720 47 -413
71 -532 173 -835 115 -339 252 -630 405 -858 104 -154 129 -196 281 -472 59
-107 134 -236 166 -286 32 -50 81 -138 109 -195 28 -56 76 -133 106 -171 89
-108 274 -280 420 -389 75 -56 184 -142 243 -193 196 -168 273 -220 771 -521
342 -207 590 -361 658 -409 26 -18 112 -71 192 -116 80 -45 165 -97 190 -115
99 -72 212 -110 430 -144 146 -23 222 -41 313 -72 32 -10 87 -21 123 -24 36
-2 72 -9 80 -16 38 -32 2 -110 -104 -220 -172 -181 -350 -276 -607 -326 -68
-13 -144 -17 -310 -17 -206 -1 -224 0 -285 22 -82 30 -256 42 -430 31 -133 -9
-200 -26 -237 -61 -41 -38 -30 -47 60 -50 l82 -3 3 -36 c4 -46 -9 -55 -86 -68
-40 -6 -77 -20 -106 -40 -45 -31 -86 -86 -86 -114 0 -8 -21 -43 -46 -78 -59
-79 -74 -116 -74 -177 0 -99 46 -91 110 18 52 89 88 115 152 111 9 0 37 -21
61 -46 56 -57 79 -57 129 -3 21 23 38 45 38 49 0 18 63 39 147 48 48 6 264 13
478 16 215 3 441 8 504 11 l114 5 -7 -88 c-10 -126 -15 -149 -42 -178 -20 -21
-32 -25 -83 -25 -33 0 -120 13 -193 29 -268 60 -469 62 -638 9 l-35 -12 54
-10 c66 -13 84 -35 56 -67 -26 -28 -116 -73 -191 -95 -147 -42 -184 -72 -184
-146 l0 -49 58 45 c90 69 138 90 212 94 82 5 107 -12 118 -78 7 -44 9 -45 47
-48 22 -2 94 5 160 15 77 11 174 18 270 17 138 0 156 -2 225 -27 191 -70 223
-79 336 -84 l110 -6 11 -142 c8 -103 16 -154 31 -188 37 -84 57 -55 70 100 13
153 45 190 111 130 21 -19 54 -37 73 -41 19 -3 100 0 179 9 79 8 191 15 249
15 103 0 106 1 185 41 166 86 230 95 380 55 120 -32 289 -99 350 -137 30 -19
72 -35 109 -41 103 -17 107 -18 131 -44 40 -43 74 -31 111 39 17 32 40 67 51
79 48 47 157 11 226 -75 59 -72 70 -104 74 -202 5 -111 10 -135 27 -135 27 0
41 70 41 205 0 121 -2 134 -27 186 -24 48 -47 71 -180 177 -187 150 -225 170
-346 182 -50 6 -114 18 -141 29 -110 42 -178 129 -168 217 10 96 100 232 196
296 75 50 110 89 149 162 45 86 231 283 333 353 69 46 74 48 143 48 187 0 442
-152 809 -483 359 -324 528 -428 922 -567 105 -37 232 -87 284 -111 52 -24
102 -44 112 -44 52 0 108 93 135 223 16 77 24 306 11 350 -4 15 -35 57 -69 95
-33 37 -71 90 -84 119 -16 36 -36 60 -67 81 -48 34 -81 92 -75 137 5 48 29 52
81 16 122 -83 449 -387 500 -463 47 -70 68 -89 232 -203 265 -185 406 -306
493 -420 87 -115 165 -196 256 -267 50 -39 132 -111 182 -159 98 -94 172 -139
228 -139 53 0 61 23 46 134 -25 188 -81 301 -229 459 -134 144 -169 215 -117
238 45 21 91 3 129 -49 101 -140 826 -897 1172 -1223 44 -42 108 -105 143
-142 34 -36 130 -121 212 -188 182 -147 670 -618 776 -749 183 -225 493 -657
654 -910 105 -166 149 -215 234 -265 34 -20 95 -65 136 -101 93 -81 175 -121
278 -136 102 -15 117 -9 108 40 -4 20 -22 141 -41 267 -38 265 -59 353 -115
492 -43 108 -49 143 -25 163 33 28 92 -10 325 -209 91 -78 184 -150 207 -161
23 -11 44 -29 48 -41 5 -14 34 -33 88 -58 45 -21 124 -70 176 -110 155 -117
264 -158 305 -112 25 28 16 54 -39 121 -26 30 -85 109 -133 175 -134 186 -193
249 -671 721 -538 532 -748 757 -873 934 -73 104 -251 300 -458 505 -397 393
-639 659 -814 894 -130 177 -268 329 -642 711 -392 400 -505 529 -695 797
-138 193 -233 360 -449 783 -281 549 -394 751 -615 1105 -72 116 -216 351
-319 523 -254 422 -396 608 -786 1032 -167 180 -254 291 -358 450 -41 63 -104
160 -140 215 -102 158 -273 381 -483 630 -107 127 -245 292 -308 369 -150 181
-276 320 -556 606 -352 361 -554 582 -622 680 -21 30 -59 63 -117 100 -285
180 -400 263 -539 387 -159 143 -232 184 -417 238 -274 80 -724 282 -971 436
-110 68 -171 97 -239 113 -33 8 -73 25 -90 39 -16 14 -49 28 -72 32 -61 10
-95 33 -132 90 -68 103 -103 244 -140 555 -14 118 -30 243 -35 278 -23 154
-189 400 -311 462 -44 22 -59 35 -63 57 -14 69 -164 186 -284 222 -386 117
-428 127 -616 141 -150 11 -462 11 -616 -1z m3839 -9808 c107 -11 267 -27 355
-36 166 -16 269 -35 287 -53 18 -18 1 -55 -69 -148 -215 -287 -382 -447 -525
-505 -72 -30 -187 -30 -288 -1 -42 12 -108 26 -147 31 -82 10 -137 42 -196
114 -63 76 -87 133 -87 200 0 86 17 133 72 192 60 65 196 170 263 201 61 29
87 29 335 5z m-858 -891 c90 -22 206 -45 258 -51 196 -21 195 -21 198 -51 9
-79 -117 -109 -523 -124 -219 -8 -235 -4 -235 58 0 49 4 57 42 80 14 10 32 34
38 55 18 55 29 73 45 73 8 0 87 -18 177 -40z"/>
<path d="M3023 3868 c-34 -16 -28 -28 15 -28 46 0 112 18 112 30 0 13 -99 11
-127 -2z"/>
</g>
</svg>
